<svg viewBox="0 0 800 800" version="1.1" xmlns="http://www.w3.org/2000/svg" xmlns:xlink="http://www.w3.org/1999/xlink">
    <g id="loader">

        <g id="left-piston">
            <g id="left-arm" transform="translate(305.000000, 135.184000)" fill-rule="evenodd">
                <g id="arm-swing">
                    <path d="M180.2109,344.2441 L180.2099,344.2441 C180.1329,344.2061 180.0689,344.1721 180.0179,344.1411 C180.0109,344.0431 180.0059,343.9121 180.0079,343.7421 C180.1839,326.8901 180.0869,309.7941 179.9929,293.2601 L179.9919,293.1311 C179.9459,285.0231 179.8999,276.9171 179.8849,268.8191 L179.8849,268.6011 C179.8679,259.8961 179.8569,254.1451 175.1749,249.4891 C170.4849,244.8241 164.6069,244.8321 155.7319,244.8561 L155.6209,244.8561 C151.3349,244.8701 147.2109,245.1141 143.8759,247.0781 C142.1939,245.0081 140.7029,242.9821 139.6239,240.9411 C134.3039,230.8671 131.7579,218.9541 131.6099,203.4521 C131.5039,192.2901 131.5839,180.8961 131.6609,169.8761 L131.6629,169.6581 C131.7119,162.8281 131.7679,155.0881 131.7689,147.6201 C131.7719,131.4051 131.7399,115.1901 131.7079,98.9761 C131.6859,87.5571 131.6629,76.1381 131.6529,64.7511 C131.6599,64.5611 131.7429,63.9941 131.8039,63.5771 C131.8829,63.0401 131.9629,62.4861 132.0309,61.9011 C132.1949,60.4841 132.0539,59.0501 131.6209,57.6991 L131.5839,57.0121 C131.3109,52.1531 130.8019,43.1081 130.8849,34.3901 C131.0579,15.9891 115.7739,0.8651 96.8439,0.6781 C96.4209,0.6721 95.9989,0.6801 95.5779,0.6921 L94.9019,0.6921 C94.4809,0.6781 94.0639,0.6691 93.6689,0.6781 C74.7079,0.8651 59.4219,15.9891 59.5949,34.3901 C59.6779,43.1171 59.1689,52.1601 58.8909,57.1101 L58.8589,57.6991 C58.4259,59.0531 58.2849,60.4871 58.4499,61.9021 C58.5169,62.4811 58.5969,63.0351 58.6759,63.5751 C58.7369,63.9891 58.8199,64.5561 58.8269,64.7201 C58.8169,75.7171 58.7959,86.7131 58.7749,97.7101 L58.7729,99.0321 C58.7409,115.2281 58.7089,131.4241 58.7119,147.6201 C58.7129,154.9351 58.7659,162.3561 58.8169,169.6311 C58.8959,180.7231 58.9779,192.1921 58.8699,203.4521 C58.7229,218.9551 56.1759,230.8681 50.8549,240.9411 C49.7789,242.9791 48.2869,245.0061 46.6039,247.0791 C43.2629,245.1141 39.1209,244.8701 34.7899,244.8561 C25.8789,244.8281 19.9999,244.8181 15.3039,249.4891 C10.6219,254.1471 10.6119,259.9001 10.5959,268.6061 L10.5949,268.8091 C10.5799,276.9271 10.5339,285.0421 10.4879,293.1581 C10.3939,309.7181 10.2969,326.8411 10.4739,343.7431 C10.4749,343.9121 10.4699,344.0431 10.4629,344.1411 C10.4109,344.1721 10.3469,344.2061 10.2709,344.2441 C-0.7541,349.7861 0.8549,360.2511 1.3839,363.6941 C1.4599,364.1831 1.5729,364.9231 1.5789,365.1711 C1.6599,368.8901 3.0629,372.2141 5.5299,374.5261 C7.0779,375.9781 8.7719,376.8161 10.3349,377.2981 C10.3259,377.8161 10.3129,378.3321 10.2949,378.8391 C10.1109,384.0921 11.6309,388.2161 14.8139,391.0971 C16.9349,393.0161 20.6919,395.1381 26.5579,394.3891 C26.7109,394.3891 26.8979,394.3981 27.1049,394.4061 C27.7189,394.4251 28.4829,394.4511 29.3739,394.4091 C41.1279,393.8391 52.2389,395.4871 63.3509,399.4561 C73.5519,403.0981 83.9619,405.1801 94.3199,405.6421 C94.4599,405.6481 94.6009,405.6511 94.7399,405.6511 L95.7399,405.6511 C95.8799,405.6511 96.0209,405.6481 96.1869,405.6411 C106.5189,405.1801 116.9289,403.0981 127.1299,399.4561 C138.2509,395.4841 149.3649,393.8341 161.1059,394.4091 C161.9989,394.4511 162.7609,394.4271 163.4059,394.4041 C163.5889,394.3981 163.7739,394.3901 163.9289,394.3901 C169.8069,395.1261 173.5519,393.0111 175.6669,391.0971 C178.8509,388.2151 180.3709,384.0901 180.1859,378.8371 C180.1679,378.3301 180.1539,377.8161 180.1459,377.3001 C181.7089,376.8181 183.4009,375.9791 184.9499,374.5261 C187.4179,372.2131 188.8209,368.8901 188.9009,365.1661 C188.9079,364.9201 189.0219,364.1841 189.0979,363.6861 C189.6249,360.2481 191.2319,349.7851 180.2109,344.2441" id="arm-outline" fill="#FFFFFF"></path>
                    <path d="M95.7402,380.3086 L94.7402,380.3086 C65.6292,380.3376 41.4792,357.1576 40.9082,328.3686 C40.3152,298.4896 64.0772,273.6126 93.6302,273.1746 C94.0022,273.1686 94.3692,273.1836 94.7402,273.1856 L95.7402,273.1856 C96.1112,273.1836 96.4782,273.1686 96.8502,273.1746 C126.4022,273.6126 150.1662,298.4896 149.5722,328.3686 C149.0012,357.1576 124.8502,380.3376 95.7402,380.3086 M95.2818264,331.198827 L95.1986061,331.198827 C92.775981,331.201241 90.7662116,329.272195 90.7186928,326.876367 C90.6693432,324.389828 92.6468231,322.319558 95.1062316,322.283107 C95.1371895,322.282608 95.1677314,322.283856 95.1986061,322.284023 L95.2818264,322.284023 C95.3127011,322.283856 95.3432429,322.282608 95.3742008,322.283107 C97.8335261,322.319558 99.8111725,324.389828 99.7617397,326.876367 C99.7142209,329.272195 97.7043683,331.201241 95.2818264,331.198827 M80.2322,246.5516 C80.6212,244.0926 80.6662,241.5796 81.0332,239.1156 C85.9472,206.1636 86.7672,172.9286 87.7042,139.7196 C88.2262,121.2616 88.0652,102.7826 88.0392,84.3126 C88.0332,80.0416 89.2642,77.0176 93.7892,76.5226 C94.1152,76.4876 94.4302,76.4916 94.7402,76.5116 L95.7402,76.5116 C96.0502,76.4916 96.3652,76.4876 96.6912,76.5226 C101.2162,77.0176 102.4472,80.0416 102.4412,84.3126 C102.4152,102.7826 102.2552,121.2616 102.7752,139.7196 C103.7142,172.9286 104.5332,206.1636 109.4472,239.1156 C109.8142,241.5796 109.8582,244.0926 110.2482,246.5516 C111.4192,253.9526 110.9932,254.6246 104.2882,257.4216 C101.3732,258.6366 98.5332,259.0826 95.7402,258.9596 L94.7402,258.9596 C91.9472,259.0826 89.1072,258.6366 86.1922,257.4216 C79.4872,254.6246 79.0612,253.9526 80.2322,246.5516 M175.7192,353.1796 C172.2442,351.4326 169.9562,348.5886 170.0082,343.6386 C170.2672,318.7046 169.9322,293.7666 169.8852,268.8296 C169.8582,254.8096 169.9282,254.8096 155.6532,254.8566 C148.0112,254.8806 148.0112,254.8806 146.2382,262.5046 C144.4332,261.4426 142.3682,260.8196 141.2122,259.4356 C137.5092,255.0026 133.4472,250.6566 130.7822,245.6116 C123.8732,232.5296 121.7492,218.1536 121.6102,203.5476 C121.4332,184.9066 121.7652,166.2616 121.7682,147.6186 C121.7742,119.9886 121.6772,92.3586 121.6532,64.7286 C121.6522,63.4646 121.9282,62.2006 122.0972,60.7486 L121.7402,60.9496 C121.9022,60.9546 120.7622,47.2876 120.8852,34.2956 C121.0092,21.1616 109.8502,10.8076 96.7122,10.6766 C96.3862,10.6736 96.0632,10.6816 95.7402,10.6926 L94.7402,10.6926 C94.4172,10.6816 94.0942,10.6736 93.7682,10.6766 C80.6302,10.8076 69.4712,21.1616 69.5952,34.2956 C69.7182,47.2876 68.5782,60.9546 68.7402,60.9496 L68.3832,60.7486 C68.5522,62.2006 68.8282,63.4646 68.8272,64.7286 C68.8032,92.3586 68.7062,119.9886 68.7122,147.6186 C68.7152,166.2616 69.0472,184.9066 68.8702,203.5476 C68.7312,218.1536 66.6072,232.5296 59.6982,245.6116 C57.0332,250.6566 52.9712,255.0026 49.2682,259.4356 C48.1132,260.8196 46.0462,261.4426 44.2412,262.5046 C42.4702,254.8806 42.4702,254.8806 34.8272,254.8566 C20.5522,254.8096 20.6212,254.8096 20.5952,268.8296 C20.5482,293.7666 20.2132,318.7046 20.4722,343.6386 C20.5242,348.5886 18.2362,351.4326 14.7612,353.1796 C8.9252,356.1136 11.4912,360.9676 11.5772,364.9546 C11.6702,369.2646 15.7682,367.4666 18.2792,367.9716 C18.7592,368.0686 19.2382,368.1726 20.3172,368.3996 C20.3172,371.9486 20.4162,375.5726 20.2892,379.1886 C20.1612,382.8366 21.2742,385.0116 25.4132,384.4536 C26.5512,384.2996 27.7292,384.4786 28.8862,384.4206 C41.8692,383.7856 54.1912,385.5666 66.7142,390.0376 C76.0752,393.3816 85.4282,395.2356 94.7402,395.6516 L95.7402,395.6516 C105.0522,395.2356 114.4052,393.3816 123.7662,390.0376 C136.2892,385.5666 148.6102,383.7856 161.5942,384.4206 C162.7512,384.4786 163.9292,384.2996 165.0672,384.4536 C169.2062,385.0116 170.3192,382.8366 170.1912,379.1886 C170.0642,375.5726 170.1632,371.9486 170.1632,368.3996 C171.2422,368.1726 171.7212,368.0686 172.2022,367.9716 C174.7122,367.4666 178.8102,369.2646 178.9032,364.9546 C178.9892,360.9676 181.5542,356.1136 175.7192,353.1796" id="arm-body" fill="#80a997"></path>
                </g>
            </g>
            <g id="left-head" transform="translate(295.000000, 65.184000)" fill-rule="evenodd">
                <path d="M209.8115,39.877 L209.5745,38.774 C210.4365,36.794 210.8735,34.549 210.8745,32.073 C210.8785,27.309 209.4625,23.482 206.6665,20.702 C205.9835,20.023 205.2305,19.423 204.4105,18.905 C204.3905,14.505 203.8445,9.311 200.0605,5.438 C195.6265,0.899 189.4775,0.882 185.4085,0.871 C158.6065,0.798 52.8775,0.798 26.0725,0.871 C22.0035,0.882 15.8535,0.899 11.4195,5.438 C7.6355,9.312 7.0895,14.505 7.0695,18.904 C6.2505,19.421 5.4975,20.022 4.8135,20.702 C2.0175,23.483 0.6015,27.309 0.6055,32.075 C0.6075,34.55 1.0445,36.794 1.9065,38.774 L1.6685,39.877 C0.8385,43.745 -0.5145,50.045 2.8895,55.293 C2.2075,57.184 1.9135,59.297 2.0265,61.564 C2.2935,66.935 4.5205,71.395 8.1955,74.229 C7.8595,75.918 7.8055,77.538 7.8195,78.944 C7.9635,92.736 7.9025,106.744 7.8435,120.29 L7.8405,120.819 C7.8165,126.466 7.7925,132.114 7.7835,137.739 L7.7805,138.113 C7.7675,139.697 7.7445,142.349 8.9525,145.169 C9.0545,145.409 9.1605,145.672 9.2795,145.967 C10.5625,149.151 12.9515,155.079 19.6285,156.081 C20.3155,156.184 21.0205,156.236 21.7225,156.236 C25.3475,156.236 28.3075,154.89 30.4695,153.907 L30.5605,153.865 C30.8825,153.719 31.2005,153.573 31.5095,153.444 C32.0905,153.202 32.6535,152.909 33.1925,152.567 C36.1115,152.347 38.6745,151.388 40.8285,149.705 C44.1165,147.136 45.4305,143.726 45.9915,140.731 C58.6875,140.8 80.0175,140.774 93.3925,140.759 L94.4915,140.758 C99.0445,140.753 102.9495,140.749 105.7405,140.749 C108.5325,140.749 112.4385,140.753 116.9925,140.758 L118.7005,140.76 C132.7825,140.776 153.1935,140.797 165.4885,140.731 C166.0475,143.721 167.3625,147.133 170.6515,149.705 C172.8045,151.387 175.3665,152.346 178.2875,152.567 C178.8265,152.908 179.3875,153.201 179.9685,153.444 C180.2755,153.571 180.5855,153.713 180.9015,153.856 L181.0155,153.909 C183.1225,154.867 186.1335,156.237 189.7545,156.237 C190.4335,156.237 191.1325,156.189 191.8525,156.081 C198.5315,155.079 200.9185,149.149 202.2015,145.968 L202.2565,145.83 C202.3495,145.598 202.4395,145.375 202.5255,145.174 C203.7375,142.347 203.7135,139.695 203.7005,138.116 L203.6975,137.762 C203.6875,131.952 203.6625,126.14 203.6365,120.33 C203.5785,106.754 203.5175,92.716 203.6615,78.945 C203.6755,77.539 203.6215,75.919 203.2855,74.229 C206.9605,71.395 209.1875,66.935 209.4555,61.563 C209.5675,59.296 209.2725,57.183 208.5905,55.293 C211.9955,50.046 210.6425,43.746 209.8115,39.877" id="head-outline" fill="#FFFFFF"></path>
                <path d="M106.2261,127.4541 C106.0631,127.4521 105.9021,127.4401 105.7401,127.4341 C105.5781,127.4401 105.4171,127.4521 105.2541,127.4541 C92.3011,127.6471 81.7181,117.2881 81.5951,104.2961 C81.4721,91.1611 92.6301,80.8071 105.7681,80.6771 C106.0941,80.6731 105.3871,80.6731 105.7121,80.6771 C118.8511,80.8071 130.0091,91.1611 129.8851,104.2961 C129.7631,117.2881 119.1801,127.6471 106.2261,127.4541 M193.6611,78.8391 C193.7091,74.2971 192.6281,72.9541 187.9151,72.9621 C160.5231,73.0131 50.9571,73.0131 23.5651,72.9621 C18.8521,72.9541 17.7721,74.2971 17.8191,78.8391 C18.0231,98.4831 17.8171,118.1321 17.7831,137.7791 C17.7811,138.9391 17.7091,140.2161 18.1461,141.2351 C18.9301,143.0641 19.8841,146.0071 21.1111,146.1911 C23.1611,146.4981 25.5251,145.1041 27.6671,144.2121 C28.4811,143.8731 29.1821,142.2751 29.7081,142.3801 C36.8251,143.8061 36.2311,138.6851 36.5251,134.4341 C36.6731,132.2981 36.5751,130.6391 39.6841,130.6781 C52.7881,130.8461 92.2541,130.7491 105.7401,130.7491 C119.2261,130.7491 158.6911,130.8461 171.7961,130.6781 C174.9061,130.6391 174.8081,132.2981 174.9551,134.4341 C175.2491,138.6851 174.6551,143.8061 181.7721,142.3801 C182.2991,142.2751 182.9991,143.8731 183.8131,144.2121 C185.9561,145.1041 188.3191,146.4981 190.3691,146.1911 C191.5971,146.0071 192.5511,143.0641 193.3341,141.2351 C193.7701,140.2161 193.6991,138.9391 193.6971,137.7791 C193.6631,118.1321 193.4571,98.4831 193.6611,78.8391" id="head-bottom" fill="#80a997"></path>
                <path d="M193.1992,56.521 C164.4332,56.633 47.0472,56.633 18.2812,56.521 C14.7782,56.507 11.7822,56.411 12.0132,61.067 C12.2192,65.195 14.3732,67.568 18.6102,67.561 C32.1212,67.538 45.6332,67.411 59.1442,67.374 C74.6762,67.33 136.8042,67.33 152.3362,67.374 C165.8472,67.411 179.3592,67.538 192.8712,67.561 C197.1072,67.568 199.2612,65.195 199.4672,61.067 C199.6982,56.411 196.7022,56.507 193.1992,56.521 Z M194.3203,41.9771 C164.7943,41.9101 46.6873,41.9101 17.1603,41.9771 C15.2103,41.9811 13.2593,41.9771 11.4463,41.9771 C9.6453,50.3591 10.7283,51.7451 18.5053,51.7211 C47.5833,51.6331 163.8973,51.6331 192.9753,51.7211 C200.7533,51.7451 201.8353,50.3591 200.0343,41.9771 C198.2203,41.9771 196.2703,41.9811 194.3203,41.9771 Z M16.2285,37.1133 C35.6475,36.9413 55.0685,37.0273 74.4885,36.9923 C84.9065,36.9733 126.5745,36.9733 136.9915,36.9923 C156.4125,37.0273 175.8325,36.9413 195.2515,37.1133 C199.0725,37.1473 200.8715,35.9003 200.8745,32.0653 C200.8775,28.2383 199.5415,26.4953 195.2265,26.5213 C165.8305,26.6993 45.6505,26.6993 16.2535,26.5213 C11.9385,26.4953 10.6025,28.2383 10.6055,32.0653 C10.6085,35.9003 12.4075,37.1473 16.2285,37.1133 Z M194.3818,21.2681 C194.5758,11.8921 193.5918,10.8931 185.3808,10.8711 C158.8338,10.7991 52.6468,10.7991 26.0998,10.8711 C17.8888,10.8931 16.9048,11.8921 17.0978,21.2681 L194.3818,21.2681 Z" id="head-ribbons" fill="#80a997"></path>
                <path d="M106.1089,116.0332 C105.9839,116.0312 105.4969,116.0312 105.3719,116.0332 C98.6649,116.1812 92.9259,110.8772 92.7939,104.4062 C92.6629,98.0012 98.3989,92.0032 104.6559,92.0032 L106.8249,92.0032 C113.0819,92.0032 118.8169,98.0012 118.6869,104.4062 C118.5549,110.8772 112.8169,116.1812 106.1089,116.0332 M106.4459,85.1292 C106.2079,85.1302 105.9759,85.1572 105.7399,85.1672 C105.5049,85.1572 105.2729,85.1302 105.0349,85.1292 C94.4229,85.0882 85.6559,93.9422 85.8569,104.4952 C86.0489,114.5852 94.7639,123.0082 104.9409,122.9392 C105.2109,122.9372 105.4729,122.9072 105.7399,122.8932 C106.0079,122.9072 106.2699,122.9372 106.5399,122.9392 C116.7169,123.0082 125.4319,114.5852 125.6239,104.4952 C125.8249,93.9422 117.0569,85.0882 106.4459,85.1292" id="head-nut" fill="#80a997"></path>
            </g>
            <g id="left-crank" transform="translate(255.000000, 398.184000)" fill-rule="evenodd">
                <path d="M270.7324,142.4268 L269.6474,142.0178 L268.4994,141.8668 C260.6084,140.8358 252.8054,138.9378 245.2994,136.2208 C233.5864,132.0068 232.9684,131.1668 232.1144,129.7368 C231.2614,128.2268 230.2404,126.8248 229.0664,125.5548 L228.9904,125.2668 C226.2624,113.3578 214.5614,69.7328 204.5124,40.1388 C199.1134,23.9508 186.2514,11.0168 170.0974,5.5218 C162.3134,2.5818 154.1544,0.9188 145.8274,0.5758 L145.6074,0.5678 L144.8974,0.5758 C136.5854,0.9188 128.4254,2.5818 120.6424,5.5218 C104.4884,11.0168 91.6294,23.9458 86.2384,40.1078 C76.2774,69.6408 64.4354,113.5888 61.7704,125.1238 L61.6574,125.5728 C60.4484,126.8848 59.3954,128.3448 58.5004,129.9648 L58.4124,130.1298 C57.7374,131.4278 57.2924,132.2848 45.6164,136.1608 L45.4234,136.2278 C37.9354,138.9378 30.1354,140.8348 22.2384,141.8668 L21.1094,142.0158 L20.0394,142.4148 C1.4454,149.3588 0.0004,160.7608 0.0004,164.0898 L0.0644,165.2208 C2.8044,189.2818 11.5224,212.5358 25.2744,232.4708 C52.0794,271.3078 92.4854,290.9998 145.3704,290.9998 C198.4624,290.9998 238.8514,271.3028 265.4004,232.4768 C279.1734,212.5518 287.9144,189.2978 290.6754,165.2298 L290.7404,164.0898 C290.7404,150.9918 275.4254,144.1978 270.7324,142.4268" id="crank-outline" fill="#FFFFFF"></path>
                <path d="M267.2034,151.7836 C258.5754,150.6556 250.0954,148.5916 241.9144,145.6306 C228.7464,140.8926 226.1614,139.2926 223.4544,134.7396 C222.8634,133.6706 222.1174,132.6966 221.2394,131.8476 C220.4614,131.0646 219.9094,130.0866 219.6384,129.0166 C219.6384,128.5246 207.3334,79.5446 195.0264,43.3026 C190.5654,29.9296 180.0854,19.4266 166.7214,14.9366 C159.9064,12.3426 152.7174,10.8686 145.4314,10.5686 L145.3084,10.5686 C138.0234,10.8686 130.8334,12.3436 124.0184,14.9366 C110.6554,19.4266 100.1744,29.9296 95.7134,43.3026 C83.4074,79.7906 71.1014,128.5246 71.1014,129.0166 C70.8314,130.0866 70.2784,131.0646 69.5014,131.8476 C68.6234,132.6966 67.8774,133.6706 67.2864,134.7396 C64.8254,139.4776 62.1794,141.2006 48.8264,145.6306 C40.6454,148.5916 32.1654,150.6556 23.5374,151.7836 C19.4144,153.3226 10.0004,157.9366 10.0004,164.0896 C12.5644,186.6036 20.6374,208.1396 33.5054,226.7906 C58.1794,262.5406 95.8364,280.9996 145.3704,280.9996 C194.9034,280.9996 232.5604,262.7866 257.1734,226.7906 C270.0634,208.1456 278.1574,186.6096 280.7404,164.0896 C280.7404,157.9366 270.9574,153.1996 267.2034,151.7836 Z M145,218.3937 C164.096736,218.3937 179.5777,202.912736 179.5777,183.816 C179.5777,164.719264 164.096736,149.2383 145,149.2383 C125.903264,149.2383 110.4223,164.719264 110.4223,183.816 C110.4223,202.912736 125.903264,218.3937 145,218.3937 Z" id="crank-body" fill="#80a997"></path>
                <path d="M145,212.816 C161.016258,212.816 174,199.832258 174,183.816 C174,167.799742 161.016258,154.816 145,154.816 C128.983742,154.816 116,167.799742 116,183.816 C116,199.832258 128.983742,212.816 145,212.816 Z M145,205.816 C157.150264,205.816 167,195.966264 167,183.816 C167,171.665736 157.150264,161.816 145,161.816 C132.849736,161.816 123,171.665736 123,183.816 C123,195.966264 132.849736,205.816 145,205.816 Z" id="crank-nut" fill="#80a997"></path>
            </g>
        </g>
        <g id="right-piston">
            <g id="right-arm" transform="translate(305.000000, 135.184000)" fill-rule="evenodd">
                <g id="arm-swing">
                    <path d="M180.2109,344.2441 L180.2099,344.2441 C180.1329,344.2061 180.0689,344.1721 180.0179,344.1411 C180.0109,344.0431 180.0059,343.9121 180.0079,343.7421 C180.1839,326.8901 180.0869,309.7941 179.9929,293.2601 L179.9919,293.1311 C179.9459,285.0231 179.8999,276.9171 179.8849,268.8191 L179.8849,268.6011 C179.8679,259.8961 179.8569,254.1451 175.1749,249.4891 C170.4849,244.8241 164.6069,244.8321 155.7319,244.8561 L155.6209,244.8561 C151.3349,244.8701 147.2109,245.1141 143.8759,247.0781 C142.1939,245.0081 140.7029,242.9821 139.6239,240.9411 C134.3039,230.8671 131.7579,218.9541 131.6099,203.4521 C131.5039,192.2901 131.5839,180.8961 131.6609,169.8761 L131.6629,169.6581 C131.7119,162.8281 131.7679,155.0881 131.7689,147.6201 C131.7719,131.4051 131.7399,115.1901 131.7079,98.9761 C131.6859,87.5571 131.6629,76.1381 131.6529,64.7511 C131.6599,64.5611 131.7429,63.9941 131.8039,63.5771 C131.8829,63.0401 131.9629,62.4861 132.0309,61.9011 C132.1949,60.4841 132.0539,59.0501 131.6209,57.6991 L131.5839,57.0121 C131.3109,52.1531 130.8019,43.1081 130.8849,34.3901 C131.0579,15.9891 115.7739,0.8651 96.8439,0.6781 C96.4209,0.6721 95.9989,0.6801 95.5779,0.6921 L94.9019,0.6921 C94.4809,0.6781 94.0639,0.6691 93.6689,0.6781 C74.7079,0.8651 59.4219,15.9891 59.5949,34.3901 C59.6779,43.1171 59.1689,52.1601 58.8909,57.1101 L58.8589,57.6991 C58.4259,59.0531 58.2849,60.4871 58.4499,61.9021 C58.5169,62.4811 58.5969,63.0351 58.6759,63.5751 C58.7369,63.9891 58.8199,64.5561 58.8269,64.7201 C58.8169,75.7171 58.7959,86.7131 58.7749,97.7101 L58.7729,99.0321 C58.7409,115.2281 58.7089,131.4241 58.7119,147.6201 C58.7129,154.9351 58.7659,162.3561 58.8169,169.6311 C58.8959,180.7231 58.9779,192.1921 58.8699,203.4521 C58.7229,218.9551 56.1759,230.8681 50.8549,240.9411 C49.7789,242.9791 48.2869,245.0061 46.6039,247.0791 C43.2629,245.1141 39.1209,244.8701 34.7899,244.8561 C25.8789,244.8281 19.9999,244.8181 15.3039,249.4891 C10.6219,254.1471 10.6119,259.9001 10.5959,268.6061 L10.5949,268.8091 C10.5799,276.9271 10.5339,285.0421 10.4879,293.1581 C10.3939,309.7181 10.2969,326.8411 10.4739,343.7431 C10.4749,343.9121 10.4699,344.0431 10.4629,344.1411 C10.4109,344.1721 10.3469,344.2061 10.2709,344.2441 C-0.7541,349.7861 0.8549,360.2511 1.3839,363.6941 C1.4599,364.1831 1.5729,364.9231 1.5789,365.1711 C1.6599,368.8901 3.0629,372.2141 5.5299,374.5261 C7.0779,375.9781 8.7719,376.8161 10.3349,377.2981 C10.3259,377.8161 10.3129,378.3321 10.2949,378.8391 C10.1109,384.0921 11.6309,388.2161 14.8139,391.0971 C16.9349,393.0161 20.6919,395.1381 26.5579,394.3891 C26.7109,394.3891 26.8979,394.3981 27.1049,394.4061 C27.7189,394.4251 28.4829,394.4511 29.3739,394.4091 C41.1279,393.8391 52.2389,395.4871 63.3509,399.4561 C73.5519,403.0981 83.9619,405.1801 94.3199,405.6421 C94.4599,405.6481 94.6009,405.6511 94.7399,405.6511 L95.7399,405.6511 C95.8799,405.6511 96.0209,405.6481 96.1869,405.6411 C106.5189,405.1801 116.9289,403.0981 127.1299,399.4561 C138.2509,395.4841 149.3649,393.8341 161.1059,394.4091 C161.9989,394.4511 162.7609,394.4271 163.4059,394.4041 C163.5889,394.3981 163.7739,394.3901 163.9289,394.3901 C169.8069,395.1261 173.5519,393.0111 175.6669,391.0971 C178.8509,388.2151 180.3709,384.0901 180.1859,378.8371 C180.1679,378.3301 180.1539,377.8161 180.1459,377.3001 C181.7089,376.8181 183.4009,375.9791 184.9499,374.5261 C187.4179,372.2131 188.8209,368.8901 188.9009,365.1661 C188.9079,364.9201 189.0219,364.1841 189.0979,363.6861 C189.6249,360.2481 191.2319,349.7851 180.2109,344.2441" id="arm-outline" fill="#FFFFFF"></path>
                    <path d="M95.7402,380.3086 L94.7402,380.3086 C65.6292,380.3376 41.4792,357.1576 40.9082,328.3686 C40.3152,298.4896 64.0772,273.6126 93.6302,273.1746 C94.0022,273.1686 94.3692,273.1836 94.7402,273.1856 L95.7402,273.1856 C96.1112,273.1836 96.4782,273.1686 96.8502,273.1746 C126.4022,273.6126 150.1662,298.4896 149.5722,328.3686 C149.0012,357.1576 124.8502,380.3376 95.7402,380.3086 M95.2818264,331.198827 L95.1986061,331.198827 C92.775981,331.201241 90.7662116,329.272195 90.7186928,326.876367 C90.6693432,324.389828 92.6468231,322.319558 95.1062316,322.283107 C95.1371895,322.282608 95.1677314,322.283856 95.1986061,322.284023 L95.2818264,322.284023 C95.3127011,322.283856 95.3432429,322.282608 95.3742008,322.283107 C97.8335261,322.319558 99.8111725,324.389828 99.7617397,326.876367 C99.7142209,329.272195 97.7043683,331.201241 95.2818264,331.198827 M80.2322,246.5516 C80.6212,244.0926 80.6662,241.5796 81.0332,239.1156 C85.9472,206.1636 86.7672,172.9286 87.7042,139.7196 C88.2262,121.2616 88.0652,102.7826 88.0392,84.3126 C88.0332,80.0416 89.2642,77.0176 93.7892,76.5226 C94.1152,76.4876 94.4302,76.4916 94.7402,76.5116 L95.7402,76.5116 C96.0502,76.4916 96.3652,76.4876 96.6912,76.5226 C101.2162,77.0176 102.4472,80.0416 102.4412,84.3126 C102.4152,102.7826 102.2552,121.2616 102.7752,139.7196 C103.7142,172.9286 104.5332,206.1636 109.4472,239.1156 C109.8142,241.5796 109.8582,244.0926 110.2482,246.5516 C111.4192,253.9526 110.9932,254.6246 104.2882,257.4216 C101.3732,258.6366 98.5332,259.0826 95.7402,258.9596 L94.7402,258.9596 C91.9472,259.0826 89.1072,258.6366 86.1922,257.4216 C79.4872,254.6246 79.0612,253.9526 80.2322,246.5516 M175.7192,353.1796 C172.2442,351.4326 169.9562,348.5886 170.0082,343.6386 C170.2672,318.7046 169.9322,293.7666 169.8852,268.8296 C169.8582,254.8096 169.9282,254.8096 155.6532,254.8566 C148.0112,254.8806 148.0112,254.8806 146.2382,262.5046 C144.4332,261.4426 142.3682,260.8196 141.2122,259.4356 C137.5092,255.0026 133.4472,250.6566 130.7822,245.6116 C123.8732,232.5296 121.7492,218.1536 121.6102,203.5476 C121.4332,184.9066 121.7652,166.2616 121.7682,147.6186 C121.7742,119.9886 121.6772,92.3586 121.6532,64.7286 C121.6522,63.4646 121.9282,62.2006 122.0972,60.7486 L121.7402,60.9496 C121.9022,60.9546 120.7622,47.2876 120.8852,34.2956 C121.0092,21.1616 109.8502,10.8076 96.7122,10.6766 C96.3862,10.6736 96.0632,10.6816 95.7402,10.6926 L94.7402,10.6926 C94.4172,10.6816 94.0942,10.6736 93.7682,10.6766 C80.6302,10.8076 69.4712,21.1616 69.5952,34.2956 C69.7182,47.2876 68.5782,60.9546 68.7402,60.9496 L68.3832,60.7486 C68.5522,62.2006 68.8282,63.4646 68.8272,64.7286 C68.8032,92.3586 68.7062,119.9886 68.7122,147.6186 C68.7152,166.2616 69.0472,184.9066 68.8702,203.5476 C68.7312,218.1536 66.6072,232.5296 59.6982,245.6116 C57.0332,250.6566 52.9712,255.0026 49.2682,259.4356 C48.1132,260.8196 46.0462,261.4426 44.2412,262.5046 C42.4702,254.8806 42.4702,254.8806 34.8272,254.8566 C20.5522,254.8096 20.6212,254.8096 20.5952,268.8296 C20.5482,293.7666 20.2132,318.7046 20.4722,343.6386 C20.5242,348.5886 18.2362,351.4326 14.7612,353.1796 C8.9252,356.1136 11.4912,360.9676 11.5772,364.9546 C11.6702,369.2646 15.7682,367.4666 18.2792,367.9716 C18.7592,368.0686 19.2382,368.1726 20.3172,368.3996 C20.3172,371.9486 20.4162,375.5726 20.2892,379.1886 C20.1612,382.8366 21.2742,385.0116 25.4132,384.4536 C26.5512,384.2996 27.7292,384.4786 28.8862,384.4206 C41.8692,383.7856 54.1912,385.5666 66.7142,390.0376 C76.0752,393.3816 85.4282,395.2356 94.7402,395.6516 L95.7402,395.6516 C105.0522,395.2356 114.4052,393.3816 123.7662,390.0376 C136.2892,385.5666 148.6102,383.7856 161.5942,384.4206 C162.7512,384.4786 163.9292,384.2996 165.0672,384.4536 C169.2062,385.0116 170.3192,382.8366 170.1912,379.1886 C170.0642,375.5726 170.1632,371.9486 170.1632,368.3996 C171.2422,368.1726 171.7212,368.0686 172.2022,367.9716 C174.7122,367.4666 178.8102,369.2646 178.9032,364.9546 C178.9892,360.9676 181.5542,356.1136 175.7192,353.1796" id="arm-body" fill="#80a997"></path>
                </g>
            </g>
            <g id="right-head" transform="translate(295.000000, 65.184000)" fill-rule="evenodd">
                <path d="M209.8115,39.877 L209.5745,38.774 C210.4365,36.794 210.8735,34.549 210.8745,32.073 C210.8785,27.309 209.4625,23.482 206.6665,20.702 C205.9835,20.023 205.2305,19.423 204.4105,18.905 C204.3905,14.505 203.8445,9.311 200.0605,5.438 C195.6265,0.899 189.4775,0.882 185.4085,0.871 C158.6065,0.798 52.8775,0.798 26.0725,0.871 C22.0035,0.882 15.8535,0.899 11.4195,5.438 C7.6355,9.312 7.0895,14.505 7.0695,18.904 C6.2505,19.421 5.4975,20.022 4.8135,20.702 C2.0175,23.483 0.6015,27.309 0.6055,32.075 C0.6075,34.55 1.0445,36.794 1.9065,38.774 L1.6685,39.877 C0.8385,43.745 -0.5145,50.045 2.8895,55.293 C2.2075,57.184 1.9135,59.297 2.0265,61.564 C2.2935,66.935 4.5205,71.395 8.1955,74.229 C7.8595,75.918 7.8055,77.538 7.8195,78.944 C7.9635,92.736 7.9025,106.744 7.8435,120.29 L7.8405,120.819 C7.8165,126.466 7.7925,132.114 7.7835,137.739 L7.7805,138.113 C7.7675,139.697 7.7445,142.349 8.9525,145.169 C9.0545,145.409 9.1605,145.672 9.2795,145.967 C10.5625,149.151 12.9515,155.079 19.6285,156.081 C20.3155,156.184 21.0205,156.236 21.7225,156.236 C25.3475,156.236 28.3075,154.89 30.4695,153.907 L30.5605,153.865 C30.8825,153.719 31.2005,153.573 31.5095,153.444 C32.0905,153.202 32.6535,152.909 33.1925,152.567 C36.1115,152.347 38.6745,151.388 40.8285,149.705 C44.1165,147.136 45.4305,143.726 45.9915,140.731 C58.6875,140.8 80.0175,140.774 93.3925,140.759 L94.4915,140.758 C99.0445,140.753 102.9495,140.749 105.7405,140.749 C108.5325,140.749 112.4385,140.753 116.9925,140.758 L118.7005,140.76 C132.7825,140.776 153.1935,140.797 165.4885,140.731 C166.0475,143.721 167.3625,147.133 170.6515,149.705 C172.8045,151.387 175.3665,152.346 178.2875,152.567 C178.8265,152.908 179.3875,153.201 179.9685,153.444 C180.2755,153.571 180.5855,153.713 180.9015,153.856 L181.0155,153.909 C183.1225,154.867 186.1335,156.237 189.7545,156.237 C190.4335,156.237 191.1325,156.189 191.8525,156.081 C198.5315,155.079 200.9185,149.149 202.2015,145.968 L202.2565,145.83 C202.3495,145.598 202.4395,145.375 202.5255,145.174 C203.7375,142.347 203.7135,139.695 203.7005,138.116 L203.6975,137.762 C203.6875,131.952 203.6625,126.14 203.6365,120.33 C203.5785,106.754 203.5175,92.716 203.6615,78.945 C203.6755,77.539 203.6215,75.919 203.2855,74.229 C206.9605,71.395 209.1875,66.935 209.4555,61.563 C209.5675,59.296 209.2725,57.183 208.5905,55.293 C211.9955,50.046 210.6425,43.746 209.8115,39.877" id="head-outline" fill="#FFFFFF"></path>
                <path d="M106.2261,127.4541 C106.0631,127.4521 105.9021,127.4401 105.7401,127.4341 C105.5781,127.4401 105.4171,127.4521 105.2541,127.4541 C92.3011,127.6471 81.7181,117.2881 81.5951,104.2961 C81.4721,91.1611 92.6301,80.8071 105.7681,80.6771 C106.0941,80.6731 105.3871,80.6731 105.7121,80.6771 C118.8511,80.8071 130.0091,91.1611 129.8851,104.2961 C129.7631,117.2881 119.1801,127.6471 106.2261,127.4541 M193.6611,78.8391 C193.7091,74.2971 192.6281,72.9541 187.9151,72.9621 C160.5231,73.0131 50.9571,73.0131 23.5651,72.9621 C18.8521,72.9541 17.7721,74.2971 17.8191,78.8391 C18.0231,98.4831 17.8171,118.1321 17.7831,137.7791 C17.7811,138.9391 17.7091,140.2161 18.1461,141.2351 C18.9301,143.0641 19.8841,146.0071 21.1111,146.1911 C23.1611,146.4981 25.5251,145.1041 27.6671,144.2121 C28.4811,143.8731 29.1821,142.2751 29.7081,142.3801 C36.8251,143.8061 36.2311,138.6851 36.5251,134.4341 C36.6731,132.2981 36.5751,130.6391 39.6841,130.6781 C52.7881,130.8461 92.2541,130.7491 105.7401,130.7491 C119.2261,130.7491 158.6911,130.8461 171.7961,130.6781 C174.9061,130.6391 174.8081,132.2981 174.9551,134.4341 C175.2491,138.6851 174.6551,143.8061 181.7721,142.3801 C182.2991,142.2751 182.9991,143.8731 183.8131,144.2121 C185.9561,145.1041 188.3191,146.4981 190.3691,146.1911 C191.5971,146.0071 192.5511,143.0641 193.3341,141.2351 C193.7701,140.2161 193.6991,138.9391 193.6971,137.7791 C193.6631,118.1321 193.4571,98.4831 193.6611,78.8391" id="head-bottom" fill="#80a997"></path>
                <path d="M193.1992,56.521 C164.4332,56.633 47.0472,56.633 18.2812,56.521 C14.7782,56.507 11.7822,56.411 12.0132,61.067 C12.2192,65.195 14.3732,67.568 18.6102,67.561 C32.1212,67.538 45.6332,67.411 59.1442,67.374 C74.6762,67.33 136.8042,67.33 152.3362,67.374 C165.8472,67.411 179.3592,67.538 192.8712,67.561 C197.1072,67.568 199.2612,65.195 199.4672,61.067 C199.6982,56.411 196.7022,56.507 193.1992,56.521 Z M194.3203,41.9771 C164.7943,41.9101 46.6873,41.9101 17.1603,41.9771 C15.2103,41.9811 13.2593,41.9771 11.4463,41.9771 C9.6453,50.3591 10.7283,51.7451 18.5053,51.7211 C47.5833,51.6331 163.8973,51.6331 192.9753,51.7211 C200.7533,51.7451 201.8353,50.3591 200.0343,41.9771 C198.2203,41.9771 196.2703,41.9811 194.3203,41.9771 Z M16.2285,37.1133 C35.6475,36.9413 55.0685,37.0273 74.4885,36.9923 C84.9065,36.9733 126.5745,36.9733 136.9915,36.9923 C156.4125,37.0273 175.8325,36.9413 195.2515,37.1133 C199.0725,37.1473 200.8715,35.9003 200.8745,32.0653 C200.8775,28.2383 199.5415,26.4953 195.2265,26.5213 C165.8305,26.6993 45.6505,26.6993 16.2535,26.5213 C11.9385,26.4953 10.6025,28.2383 10.6055,32.0653 C10.6085,35.9003 12.4075,37.1473 16.2285,37.1133 Z M194.3818,21.2681 C194.5758,11.8921 193.5918,10.8931 185.3808,10.8711 C158.8338,10.7991 52.6468,10.7991 26.0998,10.8711 C17.8888,10.8931 16.9048,11.8921 17.0978,21.2681 L194.3818,21.2681 Z" id="head-ribbons" fill="#80a997"></path>
                <path d="M106.1089,116.0332 C105.9839,116.0312 105.4969,116.0312 105.3719,116.0332 C98.6649,116.1812 92.9259,110.8772 92.7939,104.4062 C92.6629,98.0012 98.3989,92.0032 104.6559,92.0032 L106.8249,92.0032 C113.0819,92.0032 118.8169,98.0012 118.6869,104.4062 C118.5549,110.8772 112.8169,116.1812 106.1089,116.0332 M106.4459,85.1292 C106.2079,85.1302 105.9759,85.1572 105.7399,85.1672 C105.5049,85.1572 105.2729,85.1302 105.0349,85.1292 C94.4229,85.0882 85.6559,93.9422 85.8569,104.4952 C86.0489,114.5852 94.7639,123.0082 104.9409,122.9392 C105.2109,122.9372 105.4729,122.9072 105.7399,122.8932 C106.0079,122.9072 106.2699,122.9372 106.5399,122.9392 C116.7169,123.0082 125.4319,114.5852 125.6239,104.4952 C125.8249,93.9422 117.0569,85.0882 106.4459,85.1292" id="head-nut" fill="#80a997"></path>
            </g>
            <g id="right-crank" transform="translate(255.000000, 398.184000)" fill-rule="evenodd">
                <path d="M270.7324,142.4268 L269.6474,142.0178 L268.4994,141.8668 C260.6084,140.8358 252.8054,138.9378 245.2994,136.2208 C233.5864,132.0068 232.9684,131.1668 232.1144,129.7368 C231.2614,128.2268 230.2404,126.8248 229.0664,125.5548 L228.9904,125.2668 C226.2624,113.3578 214.5614,69.7328 204.5124,40.1388 C199.1134,23.9508 186.2514,11.0168 170.0974,5.5218 C162.3134,2.5818 154.1544,0.9188 145.8274,0.5758 L145.6074,0.5678 L144.8974,0.5758 C136.5854,0.9188 128.4254,2.5818 120.6424,5.5218 C104.4884,11.0168 91.6294,23.9458 86.2384,40.1078 C76.2774,69.6408 64.4354,113.5888 61.7704,125.1238 L61.6574,125.5728 C60.4484,126.8848 59.3954,128.3448 58.5004,129.9648 L58.4124,130.1298 C57.7374,131.4278 57.2924,132.2848 45.6164,136.1608 L45.4234,136.2278 C37.9354,138.9378 30.1354,140.8348 22.2384,141.8668 L21.1094,142.0158 L20.0394,142.4148 C1.4454,149.3588 0.0004,160.7608 0.0004,164.0898 L0.0644,165.2208 C2.8044,189.2818 11.5224,212.5358 25.2744,232.4708 C52.0794,271.3078 92.4854,290.9998 145.3704,290.9998 C198.4624,290.9998 238.8514,271.3028 265.4004,232.4768 C279.1734,212.5518 287.9144,189.2978 290.6754,165.2298 L290.7404,164.0898 C290.7404,150.9918 275.4254,144.1978 270.7324,142.4268" id="crank-outline" fill="#FFFFFF"></path>
                <path d="M267.2034,151.7836 C258.5754,150.6556 250.0954,148.5916 241.9144,145.6306 C228.7464,140.8926 226.1614,139.2926 223.4544,134.7396 C222.8634,133.6706 222.1174,132.6966 221.2394,131.8476 C220.4614,131.0646 219.9094,130.0866 219.6384,129.0166 C219.6384,128.5246 207.3334,79.5446 195.0264,43.3026 C190.5654,29.9296 180.0854,19.4266 166.7214,14.9366 C159.9064,12.3426 152.7174,10.8686 145.4314,10.5686 L145.3084,10.5686 C138.0234,10.8686 130.8334,12.3436 124.0184,14.9366 C110.6554,19.4266 100.1744,29.9296 95.7134,43.3026 C83.4074,79.7906 71.1014,128.5246 71.1014,129.0166 C70.8314,130.0866 70.2784,131.0646 69.5014,131.8476 C68.6234,132.6966 67.8774,133.6706 67.2864,134.7396 C64.8254,139.4776 62.1794,141.2006 48.8264,145.6306 C40.6454,148.5916 32.1654,150.6556 23.5374,151.7836 C19.4144,153.3226 10.0004,157.9366 10.0004,164.0896 C12.5644,186.6036 20.6374,208.1396 33.5054,226.7906 C58.1794,262.5406 95.8364,280.9996 145.3704,280.9996 C194.9034,280.9996 232.5604,262.7866 257.1734,226.7906 C270.0634,208.1456 278.1574,186.6096 280.7404,164.0896 C280.7404,157.9366 270.9574,153.1996 267.2034,151.7836 Z M145,218.3937 C164.096736,218.3937 179.5777,202.912736 179.5777,183.816 C179.5777,164.719264 164.096736,149.2383 145,149.2383 C125.903264,149.2383 110.4223,164.719264 110.4223,183.816 C110.4223,202.912736 125.903264,218.3937 145,218.3937 Z" id="crank-body" fill="#80a997"></path>
                <path d="M145,212.816 C161.016258,212.816 174,199.832258 174,183.816 C174,167.799742 161.016258,154.816 145,154.816 C128.983742,154.816 116,167.799742 116,183.816 C116,199.832258 128.983742,212.816 145,212.816 Z M145,205.816 C157.150264,205.816 167,195.966264 167,183.816 C167,171.665736 157.150264,161.816 145,161.816 C132.849736,161.816 123,171.665736 123,183.816 C123,195.966264 132.849736,205.816 145,205.816 Z" id="crank-nut" fill="#80a997"></path>
            </g>
        </g>

        <!-- <g id="guides" stroke-width="0.5">
            <path d="M404.254746,462.000918 C402.819336,462.005089 401.423579,462.180278 400.000065,462.238674 C398.576552,462.180278 397.180795,462.005089 395.74142,462.000918 C331.715026,461.738134 278.807106,517.940444 280.020463,584.925222 C281.182272,648.969327 333.769009,702.43118 395.174394,701.997378 C396.804099,701.984865 398.386221,701.78882 400.000065,701.705397 C401.61391,701.78882 403.196032,701.984865 404.825737,701.997378 C466.231122,702.43118 518.817859,648.969327 519.979668,584.925222 C521.18906,517.940444 468.285105,461.738134 404.254746,462.000918" id="guide-rotation" stroke="#FF0000" fill="none"></path>
            <path d="M400,0 L400,800" id="guide-vert" stroke="#D0011B" stroke-linecap="square"></path>
            <path d="M800,582 L0,582" id="guide-horz" stroke="#D0011B" stroke-linecap="square"></path>
        </g> -->
    </g>
</svg>