<svg width="180" height="158" viewBox="0 0 180 158" xmlns="http://www.w3.org/2000/svg"><defs><filter x="-50%" y="-50%" width="200%" height="200%" filterUnits="objectBoundingBox" id="filter-1"><feGaussianBlur stdDeviation="4" in="SourceGraphic"/></filter></defs><g id="Page-1" fill="none" fill-rule="evenodd"><g id="logo"><g id="logo-shadow" fill="#739888"><path d="M105.086 95.595c-1.285-.535-2.1-1.805-2.1-3.445 0-2.393 1.748-4.977 4.572-4.977 2.12 0 3.543 1.513 3.543 3.767 0 1.905-1.12 3.93-3.03 4.655h1.42l-.39 1.753-.58 2.572c-1.15 5.094-2.09 9.206-2.23 12.203.55-.847 1.4-2.485 2.62-5.648 2.06-12.17 3.67-19.343 5.09-22.564 1.19-2.68 3.4-3.63 5.08-3.63 2.84 0 4.53 1.6 4.53 4.26 0 3.12-2.29 7.42-4.47 10.7.32-.06.62-.08.89-.08 2.52 0 4.08 1.72 4.08 4.49 0 2.97-1.99 7.26-5.29 9.72.33.79.52 1.59.69 2.28.05.21.11.44.17.66.68-.7 1.88-2.42 3.23-5.94 1.07-5.6 4.39-11.2 9.45-11.2 2.2 0 3.85 1.21 4.5 3.15-.1-.6-.15-1.21-.15-1.84 0-1.63.36-3.58 1.1-5.98l.42-1.35 5.82 1.71-.07 1.14c-.17 2.74-.48 4.82-1.07 6.95 1.45 1.49 3.23 3.49 3.23 6.27 0 1.59-.69 3.4-1.42 5.3-.78 2.02-1.58 4.11-1.58 5.94 0 4.72 3.06 5.42 4.88 5.42 3.23 0 4.7-2.57 4.7-4.97 0-1.65-.71-3.19-1.95-4.23l-1.08-.9 4.32-5.37 1.11.85c2.7 2.06 4.24 5.22 4.24 8.67 0 2.83-1.08 5.6-2.96 7.61-2.11 2.26-5.02 3.46-8.42 3.46-5.47 0-11.29-3.7-11.29-10.57 0-.75.08-1.49.22-2.2-1.77 3.05-4.02 5.16-7.38 5.16-2.75 0-4.83-1.44-5.97-4-1.32 2.15-2.98 3.77-5.18 3.77-2.44 0-3.7-1.53-4.41-3.38-.09.64-.17 1.27-.25 1.9l-.16 1.26h-6.18l-.07-.66c-.78.52-1.72.88-2.86.88-3.51 0-4.44-3.18-4.62-5.68-.43.26-.88.47-1.34.64-1.91 3.26-4.23 5.05-6.58 5.05-2.3 0-4.97-1.13-5.72-6.06-.62.42-1.28.77-1.95 1.02-1.91 3.26-4.24 5.05-6.58 5.05-2.9 0-4.43-1.72-5.2-3.91-2.44 3.59-4.81 4.14-6.71 4.14-4.28 0-6.95-3.54-6.95-9.23 0-5.88 2.79-12.32 7.05-14.33l-3.1-3.1c-4.17 8.98-7.53 22.74-10.55 36.39l-.28 1.29-6.78-.88-.22-.98c-.65-2.89-.97-6.9-.97-11.91 0-4.08.22-8.44.5-12.44-1.8 7.09-3.62 15.31-5.4 23.37l-.59 2.67-5.78-1.32-.23-.82c-1.41-5.02-1.53-9.91-1.53-14.1 0-1 .01-2.01.02-3.02.01-1.01.03-2.03.03-3.06 0-15-3.62-21.68-11.73-21.68-7.07 0-12 5.78-12 14.06 0 6.34 3.53 9.18 7.03 9.18 4 0 6.78-3.05 7.63-8.38l.24-1.53 7.01 1.66-.25 1.35c-1.5 7.91-6.78 12.45-14.5 12.45-8.42 0-14.3-6.196-14.3-15.06 0-5.55 1.85-10.327 5.36-13.8 3.52-3.49 8.38-5.33 14.05-5.33 8.47 0 14.49 4.28 16.96 12.06 1.61 5.116 1.82 11.18 1.82 15.89v1.2c2.41-10.8 5.64-23.09 8.95-29.18l.52-.95 2.79.63-18.992-19c-2.442-2.44-3.79-5.7-3.79-9.17 0-3.47 1.348-6.73 3.79-9.17l39.2-39.37C73.19 1.348 76.45 0 79.92 0c3.473 0 6.73 1.346 9.173 3.788L128.4 43.1c2.443 2.443 3.79 5.7 3.79 9.17 0 3.472-1.346 6.73-3.79 9.172l-31.608 31.61c-.513.802-1.07 1.61-1.663 2.41h.15c3.46 0 5.36 2.608 5.65 7.757.39-1.82.81-3.51 1.15-4.9.15-.61.28-1.16.39-1.63l.26-1.11h2.34z" id="Combined-Shape" filter="url(#filter-1)" transform="translate(10 17)"/></g><g id="logo-shield"><path d="M145.595 50.032l-45.99-45.99C96.998 1.435 93.523 0 89.818 0c-3.705 0-7.18 1.435-9.787 4.042l-45.99 45.99c-2.6 2.605-4.04 6.08-4.04 9.786 0 3.704 1.44 7.18 4.04 9.786l45.99 45.99c2.61 2.607 6.09 4.042 9.79 4.042 3.71 0 7.18-1.435 9.79-4.04l45.99-45.992c2.61-2.606 4.04-6.08 4.04-9.786 0-3.706-1.43-7.18-4.04-9.786z" id="Shape" fill="#FFF"/><path d="M96.978 112.97c-3.938 3.938-10.383 3.938-14.32 0l-45.99-45.992c-3.94-3.938-3.94-10.383 0-14.32l45.99-45.99c3.937-3.94 10.382-3.94 14.32 0l45.99 45.99c3.94 3.937 3.94 10.382 0 14.32l-45.99 45.99z" id="Shape" fill="#000"/><path d="M95.08 108.384c-2.894 2.894-7.63 2.894-10.526 0L41.252 65.08c-2.894-2.894-2.894-7.63 0-10.526l43.302-43.302c2.895-2.894 7.632-2.894 10.527 0l43.31 43.302c2.9 2.895 2.9 7.632 0 10.527l-43.31 43.31z" id="Shape" fill="#FC0"/></g><g id="logo-text"><path d="M165.284 119.34l-1.386-1.058-4.736 5.9 1.342 1.123c1.155.97 1.818 2.408 1.818 3.95 0 2.216-1.356 4.603-4.335 4.603-1.686 0-4.515-.656-4.515-5.05 0-1.763.79-3.817 1.55-5.804.744-1.935 1.445-3.763 1.445-5.416 0-2.823-1.72-4.843-3.18-6.358.563-2.08.87-4.132 1.032-6.81l.08-1.42-6.41-1.882-.52 1.686c-.75 2.42-1.11 4.406-1.11 6.068v.16c-.91-1.145-2.29-1.813-3.99-1.813-2.97 0-5.67 1.91-7.62 5.38-.12.21-.23.44-.35.67.06-.43.09-.84.09-1.23 0-3-1.8-4.92-4.61-4.83 2.08-3.23 4.11-7.25 4.11-10.24 0-2.88-1.82-4.61-4.87-4.61-1.79 0-4.14 1-5.39 3.83-.75 1.69-1.5 4.37-2.23 7.56.01-.14.02-.28.02-.41 0-2.42-1.6-4.11-3.89-4.11-3.04 0-4.92 2.76-4.92 5.32 0 1.27.47 2.35 1.27 3.08h-1.44l-.33 1.37c-.11.46-.25 1.01-.4 1.62-.21.83-.45 1.8-.69 2.84-.64-3.73-2.38-5.74-5.22-5.95 2.98-4.14 4.69-8.02 4.69-10.75 0-2.73-1.7-4.43-4.43-4.43-5.71 0-7.06 7.44-9.31 19.78l-.05.27-.06.31c-.74-3.25-2.43-4.99-5.08-5.19 2.98-4.14 4.7-8.02 4.7-10.75 0-2.53-1.46-4.16-3.83-4.39l.09-.12-1.07-1.17c-1.93-2.1-4.51-3.12-7.88-3.12-6.08 0-11.17 4.64-15.57 14.2-2.33 5.05-4.48 11.53-6.51 19.61.05-6.3.48-15.7 2.07-26.91l.23-1.63-6.28-1.42-.65 1.19c-3.02 5.54-5.96 16.18-8.28 26.18-.07-4.39-.41-9.58-1.82-14.07-2.52-7.92-8.65-12.28-17.26-12.28-11.6 0-19.71 7.99-19.71 19.44 0 9.05 6.01 15.37 14.62 15.37 7.77 0 13.31-4.76 14.81-12.72l.31-1.68-7.69-1.82-.31 1.9c-1.12 7.01-5.03 8.06-7.27 8.06-3.31 0-6.66-2.72-6.66-8.81 0-8.05 4.78-13.68 11.62-13.68 7.85 0 11.35 6.56 11.35 21.27 0 1.02-.01 2.04-.02 3.05-.01 1.01-.03 2.02-.03 3.02 0 4.2.12 9.1 1.55 14.16l.29 1.02 6.32 1.44.66-3.02c1.46-6.64 2.95-13.39 4.44-19.52-.15 2.84-.25 5.76-.25 8.54 0 5.03.33 9.06.98 11.97l.27 1.22 7.334.95.35-1.6c4.95-22.35 11-46.19 20.25-46.19 1.07 0 2.49.21 3.16 1.21l.27.41c-1.318 2.97-2.21 7.32-3.218 12.78-.86-1.54-2.42-2.47-4.42-2.47-2.97 0-5.68 1.91-7.62 5.38-1.59 2.83-2.53 6.53-2.53 9.9 0 5.9 2.79 9.57 7.28 9.57 2.88 0 4.96-1.46 6.62-3.71 1.22 2.76 3.362 3.48 5.264 3.48 2.44 0 4.84-1.808 6.807-5.1.5-.197.98-.438 1.447-.72.89 4.71 3.61 5.82 5.97 5.82 2.44 0 4.84-1.808 6.8-5.1.27-.107.53-.228.79-.36.51 4.7 3.23 5.455 4.92 5.455.96 0 1.8-.23 2.55-.63l.044.41h6.8l.2-1.57.09-.73c.82 1.44 2.1 2.52 4.21 2.52 2.13 0 3.77-1.38 5.14-3.41 1.236 2.317 3.307 3.63 5.994 3.63 3.007 0 5.137-1.58 6.83-3.99-.02.23-.03.46-.03.69 0 7.087 5.986 10.91 11.62 10.91 3.49 0 6.486-1.23 8.66-3.56 1.94-2.07 3.05-4.92 3.05-7.83 0-3.55-1.59-6.81-4.37-8.93zm-19.816-.858l-.018.047c-1.46 3.91-3.228 6.16-4.85 6.16-.71 0-.93-1.38-.998-2.29 2.7-.79 4.46-2.32 5.504-3.56.145-.17.285-.35.418-.53-.02.05-.037.1-.056.15zm-12.844.157c-1.074 2.78-2.047 4.41-2.712 5.28-.154-.63-.33-1.34-.6-2.06 1.454-1.13 2.64-2.58 3.51-4.12-.07.29-.14.59-.198.88zm-11.43-13.32c-.9 4.13-1.76 8.93-2.523 13.45-.72 1.87-1.31 3.2-1.78 4.13.33-2.78 1.13-6.31 2.09-10.52.19-.82.38-1.67.58-2.55l.49-2.18h-.52c.77-.61 1.34-1.44 1.68-2.35zm-16.84 10.88c0 1.5-.203 3.15-.555 4.67-.57-.82-.84-2-.84-3.11 0-1.79.62-3.21 1.16-3.63.1.33.22.95.22 2.06zm-14.215 0c0 1.5-.21 3.16-.56 4.67-.57-.82-.83-2-.83-3.11 0-1.79.62-3.21 1.16-3.63.1.33.22.95.22 2.06zm-8.41 2.52c-1.45 3.79-3.18 5.97-4.78 5.97-.71 0-.93-1.38-1-2.29 2.7-.79 4.46-2.32 5.5-3.55.1-.12.19-.25.29-.37l-.03.24z" id="Shape" fill="#FFF"/><path d="M147.126 119.153c-1.7 4.558-3.89 7.33-6.526 7.33-2.057 0-2.816-2.146-2.816-4.827v-.67c5.274-.85 7.956-5.14 7.956-8.314 0-2.056-1.118-3.665-3.353-3.665-4.107 0-7.1 4.995-8.043 10.146h-.002c-1.967 5.14-3.888 7.33-4.96 7.33-1.252 0-.984-3.174-2.37-5.23 3.442-1.922 5.72-6.257 5.72-9.207 0-1.788-.803-3.04-2.635-3.04-1.967 0-3.755 1.833-5.185 4.828l.715-3.71c2.77-3.397 6.615-9.52 6.615-13.14 0-1.7-.85-2.816-3.084-2.816-1.34 0-2.905.85-3.754 2.77-1.694 3.842-3.502 13.41-5 22.32-1.948 5.068-3.41 7.537-4.565 7.537-.41 0-.9-.223-.9-1.52 0-3.664 1.29-8.85 2.86-15.82H114c-.514 2.173-1.578 6.12-2.214 9.984-.88 2.13-2.043 3.26-3.328 3.82.715-1.97 1.207-4.16 1.207-6.17 0-4.61-1.028-7.78-4.246-7.78-1.25 0-2.42.58-3.35 1.52l.17-.85.14-.76c3.93-4.7 6.48-9.52 6.48-12.43 0-1.61-.81-2.64-2.64-2.64-4.25 0-5.5 7.06-7.6 18.59-.42 2.26-.75 4.42-.94 6.4-.9 2.32-2.1 3.52-3.44 4.1.71-1.97 1.2-4.16 1.2-6.17 0-4.61-1.03-7.78-4.25-7.78-1.25 0-2.42.58-3.36 1.52l.18-.85.13-.76c3.93-4.69 6.48-9.52 6.48-12.43 0-1.61-.81-2.64-2.64-2.64-4.25 0-5.5 7.06-7.6 18.59-.42 2.26-.76 4.42-.95 6.4-1.7 4.56-3.89 7.33-6.52 7.33-2.06 0-2.82-2.15-2.82-4.83v-.67c5.27-.85 7.95-5.14 7.95-8.31 0-2.06-1.12-3.67-3.36-3.67-5 0-8.35 7.42-8.35 13.5 0 4.2 1.61 7.77 5.5 7.77 3.46 0 5.59-2.91 7.43-7.03.12 4.13 1.33 6.8 4.46 6.8 2.1 0 4.11-2.1 5.58-4.79 1.51-.45 3.01-1.47 4.16-2.94v.16c0 4.56 1.16 7.55 4.47 7.55 2.1 0 4.11-2.1 5.58-4.78 1.36-.4 2.7-1.26 3.8-2.5-.06.68-.09 1.34-.09 1.96 0 3.08.81 5.32 3.22 5.32 1.86 0 3.17-1.33 4.27-3.3-.07.61-.11 1.24-.11 1.86 0 .4 0 .8.04 1.2h3.62c.31-2.5.71-5.09 1.11-7.64h.67c.72 2.73.67 7.87 4.29 7.87 2.34 0 4.11-2.9 5.67-6.49.26 3.72 1.91 6.71 5.47 6.71 4.38 0 6.61-4.65 8.85-10.51l1.79-4.74c.49.94.89 1.97.89 3.31 0 2.28-2.95 6.25-2.95 10.41 0 5.81 4.87 9.12 9.83 9.12 6.39 0 9.92-4.78 9.92-9.61 0-2.81-1.21-5.63-3.67-7.5l-2.55 3.17c1.65 1.38 2.46 3.35 2.46 5.32 0 3.26-2.19 6.39-6.13 6.39-3.22 0-6.3-1.88-6.3-6.84 0-3.89 2.99-8.36 2.99-11.22 0-2.55-1.92-4.34-3.4-5.86.72-2.32 1.07-4.47 1.25-7.42l-3.35-.98c-.71 2.32-1.03 4.11-1.03 5.54 0 1.56.36 2.77.81 3.75-.45 2.14-1.03 4.38-1.84 6.52zM61.98 94.66c-1.653 11.62-2.1 21.453-2.1 28.604 0 7.957.537 12.56.537 12.56 5.14-26.28 12.112-46.036 23.33-46.036 3.084 0 5.095.94 6.57 2.547L87.59 95.51c-.893-1.342-2.546-2.012-4.647-2.012-9.967 0-15.912 20.113-21.99 47.6l-4.47-.58c-.67-2.995-.938-7.152-.938-11.577 0-12.24 1.92-26.86 1.92-26.86-3.262 8.36-6.703 24.14-9.92 38.71l-3.532-.8c-1.296-4.6-1.475-9.11-1.475-13.67 0-2.01.045-4.02.045-6.08 0-10.64-1.61-23.06-13.14-23.06-8.135 0-13.41 6.66-13.41 15.47 0 7.24 4.247 10.6 8.448 10.6 4.65 0 8.05-3.4 9.03-9.56l4.16.99c-1.43 7.6-6.52 11.27-13.05 11.27-7.46.01-12.82-5.31-12.82-13.58 0-10.46 7.15-17.65 17.93-17.65 8.32 0 13.46 4.43 15.56 11.04 1.48 4.7 1.75 10.28 1.75 15.42 0 2.68-.04 5.28-.04 7.56 0 2.42.04 4.43.4 5.86 2.46-12.65 6.84-32.49 11.27-40.63l3.35.76zm12.293 24.627c3.352-1.654 4.827-4.738 4.827-6.392 0-.67-.268-1.117-.715-1.117-1.833 0-3.576 3.8-4.112 7.51zm15.598 5.99c-1.65-.403-2.68-1.476-3.3-2.86 0 2.59.23 4.334 1.3 4.334.76 0 1.43-.53 2.01-1.47zm.36-13.052c-2.01 0-3.26 2.727-3.26 5.542 0 2.592 1.12 5.32 3.67 5.855.81-2.145 1.3-4.96 1.3-7.42 0-2.458-.53-3.977-1.7-3.977zM92.65 97.7c0-.403-.18-.627-.403-.627-.312 0-1.34.447-3.352 8.894 1.43-2.1 3.13-5.005 3.71-7.91 0-.135.046-.27.046-.358zm11.44 27.576c-1.652-.402-2.68-1.475-3.306-2.86 0 2.592.224 4.335 1.296 4.335.76 0 1.43-.53 2.01-1.47zm.36-13.05c-2.012 0-3.264 2.726-3.264 5.54 0 2.593 1.117 5.32 3.664 5.856.805-2.145 1.296-4.96 1.296-7.42 0-2.458-.538-3.977-1.7-3.977zm2.41-14.526c0-.41-.18-.63-.4-.63-.315 0-1.344.444-3.355 8.89 1.43-2.1 3.13-5.004 3.71-7.91 0-.134.046-.27.046-.357zm7.687 6.88c0-1.61 1.162-3.53 3.13-3.53 1.474 0 2.1 1.07 2.1 2.32 0 1.61-1.163 3.486-3.13 3.486-1.43 0-2.1-1.073-2.1-2.28zm14.034 7.64c-1.07 0-2.54 1.52-4.47 5.99l-.22 1.384c.54 0 1.03.133 1.43.267 1.97-1.61 4.03-5.05 4.03-6.75 0-.44-.13-.8-.53-.89h-.22zm1.21-14.527c0-.403-.18-.627-.4-.627-.71 0-1.29 1.877-2.9 9.297 1.3-2.413 2.73-5.676 3.27-8.314 0-.14.05-.27.05-.36zm8.14 21.587c3.35-1.653 4.83-4.737 4.83-6.39 0-.67-.27-1.117-.71-1.117-1.83 0-3.57 3.8-4.11 7.51z" id="Shape" fill="#010101"/></g><g id="logo-bike" fill="#000"><path d="M124.745 62.533c.002-1.933-1.314-2.943-1.796-3.53-.67-.79-1.51-1.07-1.88-1.163-.03-.08-.07-.156-.11-.243-.24-.478-.69-1.097-.69-1.104l-.02-.024c-.81-.91-1.61-1.23-2.3-1.23-.77 0-1.34.38-1.62.62l-.28-.28-.02-.02c-.47-.39-.98-.52-1.42-.52-.5 0-.91.16-1.19.3l-.01-.08c0-.05 0-.1.01-.13 0-.04.15-.27.45-.58.29-.32.71-.76 1.23-1.36.49-.57.73-1 .72-1.57-.01-.62-.22-1.35-.42-2.84-.16-1.2-.8-1.91-1.5-2.28-.7-.37-1.44-.43-1.88-.43-.25 0-.4.02-.41.02h-.03c-.94.21-2.01.31-3.12.31-2.06 0-4.24-.33-5.9-.78-1.26-.34-2.18-.58-3.02-.59-.92-.01-1.72.31-2.6 1.03-.43.34-.99.48-1.59.48-.71 0-1.47-.19-2.07-.38-.3-.1-.56-.19-.76-.27l-.25-.09c-.08-.02-.11-.04-.21-.05-.06-.01-.4-.19-.96-.56-.57-.38-1.38-.95-2.53-1.76-1.01-.72-2.04-.94-2.9-.94-1.33 0-2.27.51-2.3.53l-.03.01-2.63 1.86c0-.07.01-.14.01-.21-.01-.59-.22-1.14-.32-1.36.34-1.19.6-1.84.77-2.18.09-.17.15-.27.18-.31.32-.1.58-.37.86-.68.8-.95 1.59-2.56 1.74-2.87 1.66-1.45 3.42-1.55 3.89-1.55h.1c2.03.56 5.77.87 5.78.87.03 0 .07 0 .1-.01.9-.23 1.53-.65 1.94-1.18.4-.54.56-1.17.56-1.8 0-.79-.25-1.58-.59-2.24-.59-1.15-1.51-1.41-2.07-1.4-.29 0-.49.06-.55.07-.35.09-1.08.16-1.95.19-.88.04-1.91.04-2.88.04-.98 0-1.91-.01-2.6-.01-2.14 0-4.14.96-4.72 1.3-.17.1-.55.37-1.07.74-1.04.76-2.58 1.92-3.44 2.57.05-.19.05-.37.05-.54 0-.1 0-.19-.01-.26.08-.06.2-.15.35-.25.27-.2.61-.43.91-.57.36-.19.81-.55 1.2-.87.38-.32.68-.6.68-.61l.04-.05.77-1.16c.64-.61.94-1.07.95-1.54 0-.25-.12-.48-.29-.62-.5-.42-1.33-.46-2.05-.47-.32 0-.61.02-.83.03-.38.03-.82.22-1.32.51-1.51.85-3.56 2.6-4.72 3.94-.81.94-1.66 2.97-2.35 4.8-.49 1.31-.89 2.5-1.07 3.07-1.44-.9-2.84-1.08-3.03-1.1-.14-.03-.27-.05-.4-.05-.5 0-.93.23-1.3.53-1.08.92-1.69 2.6-1.7 2.62-.01.02-.585 1.71-.59 3.7 0 .78.09 1.61.35 2.4.27.85.79 1.4 1.37 1.7.577.31 1.204.4 1.74.4.305 0 .58-.03.803-.06-.13.52-.22 1.26-.28 1.93-.04.46-.07.87-.086 1.13-1.01.03-4.56.41-7.918 4.04-2.22 2.42-2.84 5.24-2.84 7.52 0 1.28.19 2.39.4 3.19.102.4.21.72.31.95.04.11.09.2.13.28.03.04.05.07.08.1.04.03.06.1.25.12.09 0 .19-.06.23-.12l.01-.02c-.007-.01.143-.11.3-.17.22 3.15 1.38 5.88 3.39 7.83 2.08 2.03 5.06 3.21 8.77 3.21.24 0 .48-.01.73-.02h.04c4.225-.76 6.54-2.98 7.76-5 .98-1.61 1.28-3.09 1.37-3.64l.2-.03c2.42 2.46 6.53 2.66 6.56 2.67l17.61 1.18c1.373 2.35 4.35 4.7 8.23 4.7.62 0 1.27-.06 1.94-.19 4.48-.9 6.344-4.51 6.64-5.13.97-.56 1.71-1.72 2.252-2.76.41-.79.69-1.52.81-1.84.12-.03.26-.11.4-.24.2-.2.41-.51.61-1.04.113-.31.16-.65.16-.98-.008-.97-.36-1.92-.508-2.27.77-1.35 1.07-2.46 1.07-3.38zm-45.013-33.34c.062.052.065.066.07.13.003.075-.046.227-.175.404-.406.57-.696 1.08-1.365 1.6-.314.245-1.04.695-1.686 1.21-.324.26-.63.534-.868.825-.232.292-.41.604-.414.96 0 .07.008.14.024.21.01.047.016.1.016.163.004.303-.153.766-.325 1.185-.09.21-.18.413-.25.594-.07.185-.12.334-.13.51 0 .074.01.173.09.272.08.1.21.14.3.137.16-.005.28-.062.45-.147.33-.182.9-.598 1.63-1.146 1.1-.818 2.55-1.916 3.97-2.835 1.41-.92 2.81-1.653 3.69-1.753.49-.06 1.07-.083 1.71-.082 1.76 0 3.89.173 5.44.173.77-.002 1.39-.036 1.82-.184.05-.02.09-.03.14-.03.22-.01.55.2.8.6.26.39.43.93.43 1.45-.01.74-.31 1.42-1.25 1.79-.03.01-.07.03-.09.06h-.13c-.48 0-1.78-.12-5-.63-.02 0-.33-.05-.81-.05-.79 0-2.05.12-3.24.79-.93.52-1.45.98-1.77 1.37-.32.39-.42.72-.49.9-.07.16-.34.67-.67 1.12-.17.22-.35.44-.52.59-.17.15-.33.23-.41.24-.28.03-.5.16-.62.34-.12.18-.14.37-.14.52 0 .11.01.21.03.28l-.53 1.75c-.2-.25-.46-.55-.8-.86-.74-.67-1.82-1.35-3.17-1.35-.14 0-.27.01-.41.02-.06-.01-.16-.03-.28-.03-.29 0-.75.09-1.21.46-.41.33-.81.89-1.13 1.78l-2.37-1.51c.05-.18.12-.48.23-.86.54-1.94 1.88-6.07 3.52-7.74 1.09-1.13 2.22-1.99 3.18-2.56.96-.57 1.77-.85 2.14-.84h.06c.24.02.39.08.45.13zM123.01 64.88c-.06-.07-.17-.232-.28-.512-.738-1.798-1.62-3.762-4.593-6.625l-.02-.017s-.256-.206-.538-.462c-.19-.168-.4-.37-.52-.526.19-.13.51-.3.88-.296.5.005 1.17.27 1.91 1.55-.01.04-.01.088-.01.142-.01.19.06.48.32.697.24.21.61.34 1.18.35.01.01.02.01.03.02.2.12.73.46 1.2 1.04.47.58.88 1.39.88 2.48 0 .42-.06.87-.2 1.38l-.01.04-.03.15c-.03.14-.08.34-.15.5-.02.05-.05.09-.07.13zM98.2 46.918c.31-.208.516-.385.705-.492.19-.105.363-.165.7-.168.404 0 1.03.106 2.05.38 1.936.522 3.954 1.053 6.298 1.053.97 0 1.998-.09 3.096-.31.41-.08.76-.12 1.07-.12 1.17.02 1.61.48 1.91 1.08.29.62.32 1.38.48 1.9.12.4.2.66.2.89 0 .2-.06.4-.25.72-.19.32-.53.73-1.06 1.29-.79.83-1.02 1.5-1.23 1.86-.11.18-.18.27-.31.34s-.35.12-.74.12c-.19 0-.41-.01-.67-.03-.12-.01-.23-.01-.35-.01-2.61.02-5.29 2.28-6.55 4.31-.11.19-.42.4-.84.55-.63.23-1.47.36-2.15.42-.65.07-1.15.07-1.19.07l-2.83-.1s-.79-.03-1.58-.03c-.3 0-.59.01-.84.02-.24.02-.43.03-.59.07l.1-.31c.07-.19.09-.41.1-.64h8.37c.3 0 .57-.06.79-.18.21-.11.41-.31.41-.6s-.2-.48-.42-.6c-.22-.12-.49-.18-.79-.18h-.07l.07-.03c.21-.11.41-.31.41-.6s-.2-.48-.42-.6c-.22-.12-.49-.18-.78-.18h-.29c.05-.02.11-.04.16-.07.21-.11.41-.31.41-.6-.01-.29-.2-.49-.42-.6-.22-.12-.49-.18-.78-.18h-7.7c-.1-.18-.24-.43-.37-.68l-.25-.47c.27.01.68.06 1.02.11.36.05.65.11.65.11 1.64.35 2.79.46 3.68.46 1.38 0 2.11-.26 3.01-.26.1 0 .2.01.3.01.12.01.23.01.32.01.27 0 .46-.02.63-.08.09-.03.17-.08.23-.16.07-.08.1-.18.1-.27-.01-.22-.11-.34-.21-.47-.1-.12-.21-.24-.32-.34-.25-.24-.56-.3-.82-.3-.4 0-.72.13-.74.13l-.05.03c-.17.11-.28.13-.35.13-.1 0-.15-.04-.21-.12-.03-.04-.05-.08-.06-.11l-.01-.01c0-.23-.04-.41-.12-.56-.09-.16-.29-.27-.45-.27-.2.01-.34.09-.47.18-.13.09-.23.2-.31.32-.03.05-.17.18-.32.28-.15.1-.33.17-.41.16-.05 0-.05 0-.06-.01-.01-.01-.05-.06-.06-.2-.04-.3-.11-.59-.22-.83-.06-.12-.13-.23-.22-.32s-.24-.17-.39-.17c-.24 0-.42.14-.56.33-.15.19-.28.46-.42.82-.1.25-.19.41-.25.48-.03.04-.06.06-.07.06-.01 0-.01.01-.01.01h-.01c-.06-.02-.19-.18-.27-.34-.04-.08-.08-.15-.1-.21l-.01-.04v-.45c0-1.64-.25-2.61-.59-3.29-.35-.68-.76-1.06-1.03-1.51-.06-.08-.09-.15-.12-.22 1.14.45 2.06.63 2.81.63 1.22.01 2-.47 2.59-.86zm21.124 21.686h-.92c-.732-2.25-2.524-4.022-4.788-4.725l-.415-1.14c2.97.67 5.33 2.94 6.13 5.86zm-58.18 7.555c-1.737-1.74-2.81-4.14-2.81-6.79 0-.48.033-.95.1-1.4.19-.21.412-.29.704-.29.444 0 1.004.22 1.436.46.217.11.403.23.534.32l.116.08.097.58c.03.18.31 2.38 2.28 4.68 1.3 1.51 3.35 2.8 5.76 2.81 1.02 0 2.09-.23 3.19-.76.78-.38 1.82-1.12 2.69-2.03.81-.85 1.49-1.84 1.64-2.86l.55-.07c-.73 4.57-4.7 8.07-9.48 8.06-2.65 0-5.05-1.08-6.79-2.81zm10.53-5.33c-.024 0-.24.04-.586.07-.367.04-.878.07-1.444.07-1.133 0-2.488-.17-3.345-.74-.96-.64-2.41-1.54-3.82-2.28-.71-.37-1.4-.71-2.01-.95-.62-.24-1.16-.4-1.6-.4-1.06 0-1.86.3-2.31.77-.08-.44-.16-1.07-.16-1.82 0-1.61.35-3.74 1.82-5.76 1.47-2.02 4.06-3.93 8.6-5.07.01 0 .03-.01.06-.01.14-.03.51-.08 1.04-.08.72 0 1.73.1 2.85.49-.25.43-.68 1.28-.88 2.11-.44.04-1.48.18-2.65.56-1.54.5-3.32 1.41-4.22 3.15l-.02.04s-.06.17-.17.46c-.16.42-.43 1.07-.77 1.67-.34.6-.77 1.14-1.16 1.36-.12.06-.17.2-.14.32.04.12.15.21.29.2h.05c.5-.02 1.92.47 4.68 3.73.07.08.18.12.29.08.11-.03.18-.13.2-.24l.01-.11c.04-.25.17-.91.48-1.56.31-.66.8-1.3 1.53-1.58.04-.02.07-.04.1-.07.02-.02.47-.48.7-1.27.21-.73.42-1.65.66-2.46.12-.4.24-.77.37-1.06.12-.29.26-.49.35-.55.51-.39.68-.87.67-1.24 0-.28-.08-.5-.13-.62l.03-.24c.09-.61.41-1.92 1.02-2.44.03-.02.05-.05.07-.09l3.48-7.21v-.01s.03-.07.09-.19c.09-.17.25-.44.45-.65.19-.21.41-.34.58-.33.17 0 .42.1.74.6l-.19 1.65c-.27.32-.53.81-.8 1.39-.86 1.86-1.72 4.64-1.72 4.65-.02.06-.02.12 0 .18v.01c.02.04.1.32.1.73 0 .76-.28 1.99-1.91 3.26-.05.03-.08.08-.1.14 0 0-.21.74-.32 1.4-.04.25-.27.81-.52 1.35-.25.55-.51 1.1-.63 1.45-.16.49-.48 1.79-.49 2.93 0 .42.05.82.18 1.16.17.41.23.81.35 1.15.06.17.14.33.28.47.15.13.36.2.58.2.15 0 .31-.03.49-.08.97-.27 2.58-.99 3.62-.98.24 0 .45.04.6.11.04.02.08.03.13.03h.25c.06.23.17.62.32.98l-6.1 1.09zM64.06 48.87c-.02-.013-.033-.025-.04-.03 0-.002-.002-.002-.002-.002-.662-.67-.886-1.352-.89-2.24-.003-1.06.36-2.398.762-4.12.196-.833.523-1.3.873-1.57s.748-.354 1.12-.355c.3 0 .577.057.777.115.1.03.18.06.235.08.034.013.055.02.067.028.127.076 1.04.622 2.133 1.34 1.178.772 2.57 1.744 3.384 2.51.69.66.86 1.25.86 1.718 0 .292-.07.54-.14.71-.04.087-.07.155-.1.2l-.03.047-.01.01-.02.02c-.59.99-1.24 1.02-1.39 1.02h-.03c-1.06-.11-1.9-.16-2.57-.16-1.2 0-1.84.15-2.21.32-.22.09-.35.22-.42.32-.56.24-1.02.31-1.38.31-.38 0-.66-.08-.83-.16-.09-.04-.16-.08-.2-.1zm9.372-5.068c.02-.227.105-.81.38-1.306.285-.496.697-.893 1.49-.9.13 0 .273.013.428.04 2.432.413 3.062 1.675 3.26 2.143.11.27.365.88.36 1.36 0 .22-.05.4-.16.52s-.304.23-.693.25c-.6.03-1.087.07-1.512.07-.853-.01-1.445-.13-2.325-.66-.648-.4-.95-.79-1.097-1.05-.073-.14-.107-.25-.124-.31l-.02-.08v-.1zm-5.92 7.85c.034-.31.067-.51.067-.51v-.09s-.01-.02-.01-.067c-.01-.048-.01-.117-.01-.2 0-.254.04-.627.22-.906.18-.28.46-.5 1.09-.5.24 0 .45-.01.64-.01.66-.01 1.02.04 1.18.15.08.05.15.13.22.29.07.16.14.39.2.7.15.71.3 1.32.29 1.78-.02.5-.12.77-.57 1.01-.46.23-1.37.42-2.13.41-.38 0-.73-.05-.95-.14-.24-.09-.3-.18-.31-.27-.02-.18-.03-.37-.03-.57 0-.4.03-.81.06-1.11zm35.02 12.93c-.113-.024-.245-.03-.434-.044-.608-.033-1.666-.04-2.422-.04h-.587v-2.33h.17c.18 0 .4.002.57.01.08.004.16.01.21.016.02.072.04.21.05.344.01.195.02.4.02.508 0 .065-.01.106-.01.165 0 .04 0 .09.02.15.03.11.13.19.18.21.06.03.11.05.18.08.09.03.15.04.25.05.53.07 1.76.13 2.22.14.02.09.04.23.07.44v.05c-.01.13-.03.14-.12.19-.09.05-.24.06-.33.06h-.08zM99.22 65.7c.15-.01.295-.015.435-.015 1.287 0 2.15.39 2.7.94.55.55.8 1.285.8 2.02 0 .042 0 .086-.002.13l-5.046.097-.01-.022c-.164-.328-.487-1.095-.484-1.76.002-.363.09-.676.31-.913s.608-.433 1.297-.478zm-13.547 1.47h6.58c.208 0 .377.17.377.376 0 .208-.17.377-.377.377h-6.58c-.208 0-.376-.17-.377-.377 0-.207.17-.375.377-.376zm6.607-1.573H85.7c-.21 0-.377-.17-.378-.378 0-.21.17-.38.377-.38h6.58c.2 0 .37.17.37.37 0 .2-.17.37-.38.37zm-14.713-2.835c-.064-.13-.136-.295-.213-.494-.3-.77-.985-1.465-1.59-1.995-.37-.318-.71-.57-.923-.722l.7-1.11.1.13c.31.42.78 1.07 1.17 1.75.4.68.72 1.4.74 1.86.02.19.02.35.02.49v.1zm1.776-9.523l.005.01.7 2.57c.004.09.014.31.065.58.067.34.186.76.492 1.07.08.08.114.18.116.32.01.16-.06.37-.15.54-.09.17-.22.31-.3.35-.08.05-.13.06-.15.06-.02 0-.06-.01-.16-.11s-.23-.29-.4-.57c-.45-.74-1-2.24-1.15-3.29-.07-.54-.13-1.27-.17-1.85-.04-.59-.06-1.04-.06-1.04v-.23c0-.16.01-.36.05-.5.02-.07.04-.11.05-.12.03.01.14.05.3.2l.05.03c.02 0 .43.34.74 1.94zm29.53 9.67l.455.94c-2.368.71-4.228 2.59-4.915 4.97l-.233-.01-.266-1.69c.937-2.18 2.646-3.51 4.96-4.23zM92.876 50.73c0 .377-.08.693-.258.96-.18.264-.467.496-.937.673-.5.19-.95.257-1.34.257-1 0-1.66-.436-2.2-.58-.26-.06-.72-.09-1.32-.094-.62 0-1.37.036-2.06.14-.67.1-1.29.25-1.71.525-.04.02-.18.06-.38.06-.36 0-.94-.12-1.66-.8-.6-.56-.97-1.52-1.21-2.45-.21-.8-.32-1.55-.46-2.05l4.65-3.19.02-.01.02-.01c.12-.08.73-.47 1.66-.47.65 0 1.47.19 2.42.82 1.31.87 2.21 1.45 2.85 2.01s1.04 1.1 1.39 1.98c.33.83.57 1.63.57 2.27zM78.49 68.608c-.073-.243-.116-.443-.14-.58-.013-.07-.02-.123-.024-.16l-.005-.046v-.03c-.15-.75-.23-1.448-.23-2.094 0-3.266 1.8-5.322 3.63-6.6.92-.634 1.84-1.066 2.52-1.336.35-.137.63-.23.83-.295.2-.06.31-.086.31-.087.13-.03.22-.142.22-.273-.01-1.487.17-2.203.51-2.495.17-.157.41-.257.77-.314.36-.057.82-.07 1.41-.07h.04c.3 0 .63.003 1 .003.74 0 1.26.3 1.7.76.65.7 1.01 1.82 1.2 2.75.1.47.15.9.17 1.2.03.31.03.49.03.49l.01.22c-.01 1.12-.38 1.74-.93 2.14-.56.39-1.34.54-2.14.54-.77 0-1.55-.13-2.13-.26-.29-.06-.53-.13-.7-.18-.17-.05-.26-.08-.26-.08-.04-.01-.09-.02-.14-.01-1.38.24-2.74 1.42-2.77 1.43l-.04.05c-.98 1.34-1.36 2.46-1.36 3.39 0 1.34.8 2.23 1.57 2.75s1.52.72 1.54.72l.08.01 2.96-.04c5.52-.08 17.53-.26 25.44-.38.15.06.29.08.43.08.15 0 .29-.03.41-.09 3.63-.05 6.24-.09 6.66-.09.39 0 .63.06.74.12.1.07.11.08.12.21.01.15-.07.41-.23.75-.15.34-.38.76-.65 1.25-1.02 1.83-2.18 2.3-3.01 2.61-.72.27-1.61.55-1.83.61-1.18-.07-22.89-1.37-30.17-1.78-3.67-.21-5.54-1.61-6.54-2.94-.49-.66-.77-1.32-.92-1.8zm44.363.48c-.005.024-.01.045-.018.063-.054-.04-.142-.12-.245-.25-.16-.2-.363-.52-.61-.97-.885-1.61-1.785-3.81-3.138-5.71-1.344-1.89-3.172-3.51-5.884-3.9-.148-.06-.7-.26-1.24-.27-.235 0-.48.04-.694.19-.217.15-.348.43-.342.75 0 .22.05.47.15.76.747 2.13 3.06 7.39 3.062 7.39.003.01.027.06.066.15.116.27.345.91.34 1.35.002.05 0 .1-.006.15-.02.17-.077.3-.14.37l-.554.01c-.292-.13-.707-.45-1.212-1.02-.11-.22-.755-1.55-1.403-2.97-.353-.78-.707-1.59-.97-2.26-.132-.33-.242-.63-.316-.87-.08-.23-.12-.42-.11-.48-.01-.48-.02-.92-.24-1.3-.23-.39-.66-.61-1.29-.66-.24-.02-.44-.03-.61-.03-.35 0-.64.06-.88.24s-.41.41-.67.75c-.32.42-.6.9-.85 1.27-.13.19-.24.34-.33.43-.05.05-.09.08-.11.09l-.02.01c-.16-.04-.37-.09-.51-.18-.15-.09-.21-.16-.21-.3 0-.09.04-.25.17-.47.31-.52 1.01-1.69 1.98-2.73.96-1.04 2.18-1.93 3.47-1.98l.06-.01.04-.01c.1-.02.34-.07.61-.07.2 0 .41.03.59.1.18.08.33.19.43.38l.03.04c.04.06.3.3.85.29.33 0 .78-.08 1.36-.31.06-.03.11-.08.14-.14v-.01c.02-.03.1-.15.21-.24.12-.1.26-.17.46-.17.15 0 .33.04.57.17 1.41.81 6 4.3 7.97 11.29 0 .07.02.31.02.57 0 .21-.02.43-.05.57z" id="Shape"/></g></g></g></svg>