<?xml-stylesheet type="text/css" href="svg.css" ?> 
<svg version="1.1" xmlns="http://www.w3.org/2000/svg" xmlns:xlink="http://www.w3.org/1999/xlink" x="0px" y="0px"
	 viewBox="0 0 500 20" enable-background="new 0 0 500 20" xml:space="preserve">
	<style>
		path {
			fill: #FFF;
		}
	</style>
	<pattern x="0" y="0" width="500" height="20" patternUnits="userSpaceOnUse" id="dryBrushPattern" viewBox="513.5 -100 500 20" overflow="visible">
		<path d="M1154.2-17.7C1153.8-17.6,1154-17.7,1154.2-17.7L1154.2-17.7z M1327.1-19.2
			c0.1,0,0.1,0,0.2,0c0.1-0.2,0.2-0.4,0.3-0.5L1327.1-19.2z M1354.9-17.9c0.1,0,0.1,0,0.2,0.1C1355-18,1355.1-18.1,1354.9-17.9z
			 M1262.5-17.2c0.1,0,0.3-0.1,0.5-0.1C1262.8-17.3,1262.6-17.2,1262.5-17.2z M1103.2-16.6c0,0,0.1,0,0.1,0c-0.1,0-0.2-0.1-0.3-0.1
			L1103.2-16.6z M1104-16.8c0,0-0.1-0.1-0.2-0.1C1103.8-16.9,1103.9-16.9,1104-16.8z M1104-16.8c0.1,0.1-0.4,0.2-0.6,0.2
			c0.7,0.3,1.4,0.3,2,0.2C1105.4-16.7,1104.4-16.7,1104-16.8z M1265.7-1.5c-0.1,0-0.3,0-0.4,0.1C1265.5-1.4,1265.6-1.4,1265.7-1.5z
			 M1025.4-15.4l0.2-0.5C1025.4-15.7,1025.3-15.5,1025.4-15.4z M1380.6-17.6c0,0.2,0.1,0.3,0.1,0.4c0,0,0.1,0,0.1,0L1380.6-17.6z
			 M1510-9.7l-0.5,0.4c0.3,0,0.5-0.1,0.6-0.2C1510.1-9.5,1510.1-9.6,1510-9.7z M1415.8-15.4c0-0.1,0.1-0.1,0.1-0.2
			c-0.6-0.2-2.2-0.2-4.2-0.2l-0.1,0.6L1415.8-15.4z M1513.4-8.4c3.8,0.3,1-0.1,0.3-0.5l-0.3,0.3c-2.3-0.3-2.3-1-3.5-1.3
			c0,0.1,0,0.1,0.1,0.2l0.1-0.1c0.1,0.1,0,0.2-0.1,0.3c0,0.2-0.1,0.3-0.7,0.2l0.1-0.1c-1,0.1-2.6,0-3.3-0.1l0-0.6
			c-1.7,1.2-11.5-1.8-13.8-1.9c-2.3-0.8-5.2,0.2-8-0.2c-4.6-0.2-2.3-0.9-4.6-1.5c-2.9-0.4,0.6,0.7-0.6,0.8l-3.4-0.9
			c2-0.1,0.9-0.5,0.5-0.7c-3-0.1-7.7-1.3-8.6,0c-4-0.6-4-1.1-5.8-1.2c0.6,0.2,1.7,0.4,1.7,0.7c-1.6-0.6-0.8,0.1-0.1,0.3
			c-2.5,0.5-12.7-2.3-13.3-0.9v-0.3c-0.6,1,0.3,2-1.4,2.6l-1.1-0.5l-1.7,0.4c-1.2-0.3-0.6-0.6-0.6-0.7c-2.8,0.5-6.7-0.1-10.1-0.2
			l3.6,2.8c-2.9-0.6-8-2-8.6-1.1l-1.7-0.9c-5.7-1.8-4,0.8-6.3,0.2l-2.9-1l2.9,0c-2.9-0.5-4-0.9-6.3-1.5c0,0,0,0,0,0
			c0.2,0,0.3,0.1,0.3,0.2l-0.4,0c-0.3,0.5-1.8,0.9-3.9,0.8c-2.9-0.1-5.1,0.6-9.7-0.5l-1.1,1l-3.4-0.6v-0.8c3.4,0,9.7-0.3,14.1-0.3
			l0.1-0.4c-2.6,0-5.5,0.4-7.2,0.3c-0.7-0.1-2.5-0.9-1.8-1.4l-1.2,0.6c-8.6,0.1-8.6,0.1-17.6-0.8l0.8,0.4c-1.8,0.2-3.6,0.5-4-0.2
			c-5.4-0.1-11-0.7-14.5-1.7l-0.8,1c-1.1-0.1-2.8-1.5-3.4-0.2l-2.4,0.4c-1.6-0.1-2.5,0.5-4.3-0.1c0,0,0,0,0,0c0,0,0,0,0,0
			c-0.1,0-0.2-0.1-0.3-0.1c0,0,0,0.1,0,0.1c-3.5-0.4,0,0.9-4,0.3c-1.3-0.7-1.4,1.2-3.4,1l-2-1.4c-3.6-0.8-4.2,0.6-9.3,0.6
			c-2.5-0.5-3.7-1.7-2-2.8c-2.3,1.3-1,0.8-4,1.5c-0.5-0.5-0.1-0.6,0.5-1.1c-2.7-0.6-1.6,0.5-3.6,0.4c-0.6,1-1.3,2.6-1.9,2.7l0.8,0.3
			c-2.1,0.5-4.4,0.8-6.9,0.3l0.1-0.5l-2.6,0.3l-0.2-0.6l-3.7,0.2l0.5,0.2c-0.9,0.1-3.8,0.3-5.4,0l0.1-0.4c-4.7-1.1-8.5,0.3-13.9,0.5
			l0.7-0.7c-1.9-0.7-0.5,1.1-2.7,0.8l-0.1-0.9c-1.9,1.2-2.5-0.3-3.9-0.7l0.6,1.2l-2.5-0.2c-2.8-0.4-1.7-1.5-1.3-2.1l-1.9,0.9l-0.4-1
			c-1.4,1.2-1.4-0.2-3.8,0.5c-0.2-0.4,0.4-0.6-0.4-0.8l-4,1.5l2.4-0.6l-0.3,1.5c-2.5,1.2-3.4-0.2-5.2,0.3l1.2-0.5
			c-2.9,0.4-3.1-0.3-4.7-0.6c0.5,0.3,1.3,0.7,0.1,0.9c-0.9,0.1-0.5-0.5-1.3-0.7c-0.2,1-2.3,1.5-4.2,1.1c0-0.1,0.1-0.3,0.2-0.4
			c-0.5,0.2-0.7,0.4-1.6,0.2l0.5-1.1l-1.6,1.1c-1.1-0.3-2.7,0.5-2.5-0.3l0.6-0.2l-8.2-0.3l-0.1-0.9c-0.8,1.2-4.5-0.5-4.2,1.1
			c-1.6-0.8-6.1,0.6-5.2-1.1c-5.4-0.1-8.3,1.5-14.9,0.7c-2.3-1.5-8.8-1-13-1.2c-8.3,0.6-13.6,1.2-22,1.6c-5.1-2.1-12.7,0.7-18.1-0.5
			l-1.5,0.8c-3.6-1.3-9.2,0.3-14.3-1c-1.2,0.4-1.9,0.5-2.2,0.5c0.2,0,0.6,0.2,0.7,0.7c-1.5-0.4-4.4,0.1-4.2-0.9l0.4-0.1
			c0.2-1-4.4,0.5-6-0.4l0.9,1.1l-2.8-0.2l0.7-0.2c-12,2.5-17.4-1.1-28.6,1.2c1.5-1.2-2.2,0.6-2.4-0.7c-2.8-1.7-5.2,0.4-7.6,0.8
			c0,0.1,0,0.1-0.2,0.2l-4.1-0.2c2.4-1.7-2.9,1.4-0.7,0c-10.6-1.3-24.4,0-36.6-0.6l0.5,0.4c-3.1-0.1-7,0.4-9.3-0.2
			c-2.4-0.7-5.2,1.1-6.1,1.2c-2.3,0.7-4.4-0.4-4.1-0.6c-2.7,0.3-5.2,1.7-8.9,1c-1.3-1.4-10.5,1.4-10.6-0.2l0,0.1
			c-4.9-1.1-9.5,0.8-14.8-0.2c0,0,0.1-0.1,0.3-0.2l-10.8,4.9l3.1,5.3l9.3,4.3l25.3-0.9l20.2,1.7l49.1-0.6l3.5-1.2
			c9.6,2.1,22-0.3,32.4,1.2l0.2-1c2.9-0.1,2.7,0.6,3.5,0.8c27.3-0.2,55.3-1.6,79.9-0.3c2.4,0.7,9.6,0.3,11.4,1
			c8-1.3,16.4-1.3,24.4-1.1l-0.3,0.1l3.8-0.2c0.2,0.1,0.2,0.2,0.1,0.3c4.2-0.9,10.9,0,16.1,0.4l-0.3,0.1c30.3,0.2,58.4-1.7,88.4-0.3
			c14,1.7,30.2-0.6,46.2,0.8c2.9,1,35.3,0.3,38.2-0.2l-3.8-1.3c12.1-0.6,17.7,0.7,28-0.3l-0.6,0.3c1.5,0.3,2.4-2.5,19,0.9V-1
			c0.6,0,0.6-0.3,1.7,0.1l-2.9-0.8c1.7-0.3,3.2-0.9,5.5-1c0.5,0.1,0.7,0.4,0.7,0.6l5.6-0.2l1.7,0.8c1.7-0.4,0.9-2.2,5.5-1.2
			c-1.7-1.2,2.3-0.7,1.7-1.3c0.2,0.1,0.8,0.4,1.2,0.6c2.7-0.1,7.9-0.5,9.2-1.1C1527-4.6,1516.3-7.1,1513.4-8.4z M1402.8-17.2
			l0.4-0.2C1403-17.4,1402.9-17.3,1402.8-17.2z M1044.9-16.2c0.1,0,0.2,0,0.2,0C1045-16.2,1044.9-16.2,1044.9-16.2z M1502.1-2.1
			l-0.1,0C1502-1.7,1502.1-1.9,1502.1-2.1z M1435.1-14.1c0.1,0,0.1,0,0.2,0l-0.8-0.6L1435.1-14.1z M1478-14.4c-1.9-0.1-2,0-1.7,0.1
			C1477-14.3,1477.6-14.3,1478-14.4z M1517.8-3.5c-1,0.1-1.8,0.1-1.8,0.1c0.6,0.1,1.1,0.3,1.7,0.4C1518.8-2.9,1518.4-3.2,1517.8-3.5
			z M1513.7-8.9l0.3-0.4C1513.4-9.2,1513.4-9,1513.7-8.9z"/>
		<path d="M654.2-17.7C653.8-17.6,654-17.7,654.2-17.7L654.2-17.7z M827.1-19.2c0.1,0,0.1,0,0.2,0
			c0.1-0.2,0.2-0.4,0.3-0.5L827.1-19.2z M854.9-17.9c0.1,0,0.1,0,0.2,0.1C855-18,855.1-18.1,854.9-17.9z M762.5-17.2
			c0.1,0,0.3-0.1,0.5-0.1C762.8-17.3,762.6-17.2,762.5-17.2z M603.2-16.6c0,0,0.1,0,0.1,0c-0.1,0-0.2-0.1-0.3-0.1L603.2-16.6z
			 M604-16.8c0,0-0.1-0.1-0.2-0.1C603.8-16.9,603.9-16.9,604-16.8z M604-16.8c0.1,0.1-0.4,0.2-0.6,0.2c0.7,0.3,1.4,0.3,2,0.2
			C605.4-16.7,604.4-16.7,604-16.8z M765.7-1.5c-0.1,0-0.3,0-0.4,0.1C765.5-1.4,765.6-1.4,765.7-1.5z M525.4-15.4l0.2-0.5
			C525.4-15.7,525.3-15.5,525.4-15.4z M880.6-17.6c0,0.2,0.1,0.3,0.1,0.4c0,0,0.1,0,0.1,0L880.6-17.6z M1010-9.7l-0.5,0.4
			c0.3,0,0.5-0.1,0.6-0.2C1010.1-9.5,1010.1-9.6,1010-9.7z M915.8-15.4c0-0.1,0.1-0.1,0.1-0.2c-0.6-0.2-2.2-0.2-4.2-0.2l-0.1,0.6
			L915.8-15.4z M1013.4-8.4c3.8,0.3,1-0.1,0.3-0.5l-0.3,0.3c-2.3-0.3-2.3-1-3.5-1.3c0,0.1,0,0.1,0.1,0.2l0.1-0.1
			c0.1,0.1,0,0.2-0.1,0.3c0,0.2-0.1,0.3-0.7,0.2l0.1-0.1c-1,0.1-2.6,0-3.3-0.1l0-0.6c-1.7,1.2-11.5-1.8-13.8-1.9
			c-2.3-0.8-5.2,0.2-8-0.2c-4.6-0.2-2.3-0.9-4.6-1.5c-2.9-0.4,0.6,0.7-0.6,0.8l-3.4-0.9c2-0.1,0.9-0.5,0.5-0.7c-3-0.1-7.7-1.3-8.6,0
			c-4-0.6-4-1.1-5.8-1.2c0.6,0.2,1.7,0.4,1.7,0.7c-1.6-0.6-0.8,0.1-0.1,0.3c-2.5,0.5-12.7-2.3-13.3-0.9v-0.3c-0.6,1,0.3,2-1.4,2.6
			l-1.1-0.5l-1.7,0.4c-1.2-0.3-0.6-0.6-0.6-0.7c-2.8,0.5-6.7-0.1-10.1-0.2l3.6,2.8c-2.9-0.6-8-2-8.6-1.1l-1.7-0.9
			c-5.7-1.8-4,0.8-6.3,0.2l-2.9-1l2.9,0c-2.9-0.5-4-0.9-6.3-1.5c0,0,0,0,0,0c0.2,0,0.3,0.1,0.3,0.2l-0.4,0c-0.3,0.5-1.8,0.9-3.9,0.8
			c-2.9-0.1-5.1,0.6-9.7-0.5l-1.1,1l-3.4-0.6v-0.8c3.4,0,9.7-0.3,14.1-0.3l0.1-0.4c-2.6,0-5.5,0.4-7.2,0.3c-0.7-0.1-2.5-0.9-1.8-1.4
			l-1.2,0.6c-8.6,0.1-8.6,0.1-17.6-0.8l0.8,0.4c-1.8,0.2-3.6,0.5-4-0.2c-5.4-0.1-11-0.7-14.5-1.7l-0.8,1c-1.1-0.1-2.8-1.5-3.4-0.2
			l-2.4,0.4c-1.6-0.1-2.5,0.5-4.3-0.1c0,0,0,0,0,0c0,0,0,0,0,0c-0.1,0-0.2-0.1-0.3-0.1c0,0,0,0.1,0,0.1c-3.5-0.4,0,0.9-4,0.3
			c-1.3-0.7-1.4,1.2-3.4,1l-2-1.4c-3.6-0.8-4.2,0.6-9.3,0.6c-2.5-0.5-3.7-1.7-2-2.8c-2.3,1.3-1,0.8-4,1.5c-0.5-0.5-0.1-0.6,0.5-1.1
			c-2.7-0.6-1.6,0.5-3.6,0.4c-0.6,1-1.3,2.6-1.9,2.7l0.8,0.3c-2.1,0.5-4.4,0.8-6.9,0.3l0.1-0.5l-2.6,0.3l-0.2-0.6l-3.7,0.2l0.5,0.2
			c-0.9,0.1-3.8,0.3-5.4,0l0.1-0.4c-4.7-1.1-8.5,0.3-13.9,0.5l0.7-0.7c-1.9-0.7-0.5,1.1-2.7,0.8l-0.1-0.9c-1.9,1.2-2.5-0.3-3.9-0.7
			l0.6,1.2l-2.5-0.2c-2.8-0.4-1.7-1.5-1.3-2.1l-1.9,0.9l-0.4-1c-1.4,1.2-1.4-0.2-3.8,0.5c-0.2-0.4,0.4-0.6-0.4-0.8l-4,1.5l2.4-0.6
			l-0.3,1.5c-2.5,1.2-3.4-0.2-5.2,0.3l1.2-0.5c-2.9,0.4-3.1-0.3-4.7-0.6c0.5,0.3,1.3,0.7,0.1,0.9c-0.9,0.1-0.5-0.5-1.3-0.7
			c-0.2,1-2.3,1.5-4.2,1.1c0-0.1,0.1-0.3,0.2-0.4c-0.5,0.2-0.7,0.4-1.6,0.2l0.5-1.1l-1.6,1.1c-1.1-0.3-2.7,0.5-2.5-0.3l0.6-0.2
			l-8.2-0.3l-0.1-0.9c-0.8,1.2-4.5-0.5-4.2,1.1c-1.6-0.8-6.1,0.6-5.2-1.1c-5.4-0.1-8.3,1.5-14.9,0.7c-2.3-1.5-8.8-1-13-1.2
			c-8.3,0.6-13.6,1.2-22,1.6c-5.1-2.1-12.7,0.7-18.1-0.5l-1.5,0.8c-3.6-1.3-9.2,0.3-14.3-1c-1.2,0.4-1.9,0.5-2.2,0.5
			c0.2,0,0.6,0.2,0.7,0.7c-1.5-0.4-4.4,0.1-4.2-0.9l0.4-0.1c0.2-1-4.4,0.5-6-0.4l0.9,1.1l-2.8-0.2l0.7-0.2
			c-12,2.5-17.4-1.1-28.6,1.2c1.5-1.2-2.2,0.6-2.4-0.7c-2.8-1.7-5.2,0.4-7.6,0.8c0,0.1,0,0.1-0.2,0.2l-4.1-0.2
			c2.4-1.7-2.9,1.4-0.7,0c-10.6-1.3-24.4,0-36.6-0.6l0.5,0.4c-3.1-0.1-7,0.4-9.3-0.2c-2.4-0.7-5.2,1.1-6.1,1.2
			c-2.3,0.7-4.4-0.4-4.1-0.6c-2.7,0.3-5.2,1.7-8.9,1c-1.3-1.4-10.5,1.4-10.6-0.2l0,0.1c-4.9-1.1-9.5,0.8-14.8-0.2
			c0,0,0.1-0.1,0.3-0.2L500-10.8l3.1,5.3l9.3,4.3l25.3-0.9l20.2,1.7L607-0.9l3.5-1.2c9.6,2.1,22-0.3,32.4,1.2l0.2-1
			c2.9-0.1,2.7,0.6,3.5,0.8c27.3-0.2,55.3-1.6,79.9-0.3c2.4,0.7,9.6,0.3,11.4,1c8-1.3,16.4-1.3,24.4-1.1l-0.3,0.1l3.8-0.2
			c0.2,0.1,0.2,0.2,0.1,0.3c4.2-0.9,10.9,0,16.1,0.4L781.5-1c30.3,0.2,58.4-1.7,88.4-0.3c14,1.7,30.2-0.6,46.2,0.8
			c2.9,1,35.3,0.3,38.2-0.2L950.6-2c12.1-0.6,17.7,0.7,28-0.3l-0.6,0.3c1.5,0.3,2.4-2.5,19,0.9V-1c0.6,0,0.6-0.3,1.7,0.1l-2.9-0.8
			c1.7-0.3,3.2-0.9,5.5-1c0.5,0.1,0.7,0.4,0.7,0.6l5.6-0.2l1.7,0.8c1.7-0.4,0.9-2.2,5.5-1.2c-1.7-1.2,2.3-0.7,1.7-1.3
			c0.2,0.1,0.8,0.4,1.2,0.6c2.7-0.1,7.9-0.5,9.2-1.1C1027-4.6,1016.3-7.1,1013.4-8.4z M902.8-17.2l0.4-0.2
			C903-17.4,902.9-17.3,902.8-17.2z M544.9-16.2c0.1,0,0.2,0,0.2,0C545-16.2,544.9-16.2,544.9-16.2z M1002.1-2.1l-0.1,0
			C1002-1.7,1002.1-1.9,1002.1-2.1z M935.1-14.1c0.1,0,0.1,0,0.2,0l-0.8-0.6L935.1-14.1z M978-14.4c-1.9-0.1-2,0-1.7,0.1
			C977-14.3,977.6-14.3,978-14.4z M1017.8-3.5c-1,0.1-1.8,0.1-1.8,0.1c0.6,0.1,1.1,0.3,1.7,0.4C1018.8-2.9,1018.4-3.2,1017.8-3.5z
			 M1013.7-8.9l0.3-0.4C1013.4-9.2,1013.4-9,1013.7-8.9z"/>
		<path d="M154.2-17.7C153.8-17.6,154-17.7,154.2-17.7L154.2-17.7z M327.1-19.2c0.1,0,0.1,0,0.2,0
			c0.1-0.2,0.2-0.4,0.3-0.5L327.1-19.2z M354.9-17.9c0.1,0,0.1,0,0.2,0.1C355-18,355.1-18.1,354.9-17.9z M262.5-17.2
			c0.1,0,0.3-0.1,0.5-0.1C262.8-17.3,262.6-17.2,262.5-17.2z M103.2-16.6c0,0,0.1,0,0.1,0c-0.1,0-0.2-0.1-0.3-0.1L103.2-16.6z
			 M104-16.8c0,0-0.1-0.1-0.2-0.1C103.8-16.9,103.9-16.9,104-16.8z M104-16.8c0.1,0.1-0.4,0.2-0.6,0.2c0.7,0.3,1.4,0.3,2,0.2
			C105.4-16.7,104.4-16.7,104-16.8z M265.7-1.5c-0.1,0-0.3,0-0.4,0.1C265.5-1.4,265.6-1.4,265.7-1.5z M25.4-15.4l0.2-0.5
			C25.4-15.7,25.3-15.5,25.4-15.4z M380.6-17.6c0,0.2,0.1,0.3,0.1,0.4c0,0,0.1,0,0.1,0L380.6-17.6z M510-9.7l-0.5,0.4
			c0.3,0,0.5-0.1,0.6-0.2C510.1-9.5,510.1-9.6,510-9.7z M415.8-15.4c0-0.1,0.1-0.1,0.1-0.2c-0.6-0.2-2.2-0.2-4.2-0.2l-0.1,0.6
			L415.8-15.4z M513.4-8.4c3.8,0.3,1-0.1,0.3-0.5l-0.3,0.3c-2.3-0.3-2.3-1-3.5-1.3c0,0.1,0,0.1,0.1,0.2l0.1-0.1
			c0.1,0.1,0,0.2-0.1,0.3c0,0.2-0.1,0.3-0.7,0.2l0.1-0.1c-1,0.1-2.6,0-3.3-0.1l0-0.6c-1.7,1.2-11.5-1.8-13.8-1.9
			c-2.3-0.8-5.2,0.2-8-0.2c-4.6-0.2-2.3-0.9-4.6-1.5c-2.9-0.4,0.6,0.7-0.6,0.8l-3.4-0.9c2-0.1,0.9-0.5,0.5-0.7c-3-0.1-7.7-1.3-8.6,0
			c-4-0.6-4-1.1-5.8-1.2c0.6,0.2,1.7,0.4,1.7,0.7c-1.6-0.6-0.8,0.1-0.1,0.3c-2.5,0.5-12.7-2.3-13.3-0.9v-0.3c-0.6,1,0.3,2-1.4,2.6
			l-1.1-0.5l-1.7,0.4c-1.2-0.3-0.6-0.6-0.6-0.7c-2.8,0.5-6.7-0.1-10.1-0.2l3.6,2.8c-2.9-0.6-8-2-8.6-1.1l-1.7-0.9
			c-5.7-1.8-4,0.8-6.3,0.2l-2.9-1l2.9,0c-2.9-0.5-4-0.9-6.3-1.5c0,0,0,0,0,0c0.2,0,0.3,0.1,0.3,0.2l-0.4,0c-0.3,0.5-1.8,0.9-3.9,0.8
			c-2.9-0.1-5.1,0.6-9.7-0.5l-1.1,1l-3.4-0.6v-0.8c3.4,0,9.7-0.3,14.1-0.3l0.1-0.4c-2.6,0-5.5,0.4-7.2,0.3c-0.7-0.1-2.5-0.9-1.8-1.4
			l-1.2,0.6c-8.6,0.1-8.6,0.1-17.6-0.8l0.8,0.4c-1.8,0.2-3.6,0.5-4-0.2c-5.4-0.1-11-0.7-14.5-1.7l-0.8,1c-1.1-0.1-2.8-1.5-3.4-0.2
			l-2.4,0.4c-1.6-0.1-2.5,0.5-4.3-0.1c0,0,0,0,0,0c0,0,0,0,0,0c-0.1,0-0.2-0.1-0.3-0.1c0,0,0,0.1,0,0.1c-3.5-0.4,0,0.9-4,0.3
			c-1.3-0.7-1.4,1.2-3.4,1l-2-1.4c-3.6-0.8-4.2,0.6-9.3,0.6c-2.5-0.5-3.7-1.7-2-2.8c-2.3,1.3-1,0.8-4,1.5c-0.5-0.5-0.1-0.6,0.5-1.1
			c-2.7-0.6-1.6,0.5-3.6,0.4c-0.6,1-1.3,2.6-1.9,2.7l0.8,0.3c-2.1,0.5-4.4,0.8-6.9,0.3l0.1-0.5l-2.6,0.3l-0.2-0.6l-3.7,0.2l0.5,0.2
			c-0.9,0.1-3.8,0.3-5.4,0l0.1-0.4c-4.7-1.1-8.5,0.3-13.9,0.5l0.7-0.7c-1.9-0.7-0.5,1.1-2.7,0.8l-0.1-0.9c-1.9,1.2-2.5-0.3-3.9-0.7
			l0.6,1.2l-2.5-0.2c-2.8-0.4-1.7-1.5-1.3-2.1l-1.9,0.9l-0.4-1c-1.4,1.2-1.4-0.2-3.8,0.5c-0.2-0.4,0.4-0.6-0.4-0.8l-4,1.5l2.4-0.6
			l-0.3,1.5c-2.5,1.2-3.4-0.2-5.2,0.3l1.2-0.5c-2.9,0.4-3.1-0.3-4.7-0.6c0.5,0.3,1.3,0.7,0.1,0.9c-0.9,0.1-0.5-0.5-1.3-0.7
			c-0.2,1-2.3,1.5-4.2,1.1c0-0.1,0.1-0.3,0.2-0.4c-0.5,0.2-0.7,0.4-1.6,0.2l0.5-1.1l-1.6,1.1c-1.1-0.3-2.7,0.5-2.5-0.3l0.6-0.2
			l-8.2-0.3l-0.1-0.9c-0.8,1.2-4.5-0.5-4.2,1.1c-1.6-0.8-6.1,0.6-5.2-1.1c-5.4-0.1-8.3,1.5-14.9,0.7c-2.3-1.5-8.8-1-13-1.2
			c-8.3,0.6-13.6,1.2-22,1.6c-5.1-2.1-12.7,0.7-18.1-0.5l-1.5,0.8c-3.6-1.3-9.2,0.3-14.3-1c-1.2,0.4-1.9,0.5-2.2,0.5
			c0.2,0,0.6,0.2,0.7,0.7c-1.5-0.4-4.4,0.1-4.2-0.9l0.4-0.1c0.2-1-4.4,0.5-6-0.4l0.9,1.1l-2.8-0.2l0.7-0.2
			c-12,2.5-17.4-1.1-28.6,1.2c1.5-1.2-2.2,0.6-2.4-0.7c-2.8-1.7-5.2,0.4-7.6,0.8c0,0.1,0,0.1-0.2,0.2l-4.1-0.2
			c2.4-1.7-2.9,1.4-0.7,0c-10.6-1.3-24.4,0-36.6-0.6l0.5,0.4c-3.1-0.1-7,0.4-9.3-0.2c-2.4-0.7-5.2,1.1-6.1,1.2
			c-2.3,0.7-4.4-0.4-4.1-0.6c-2.7,0.3-5.2,1.7-8.9,1c-1.3-1.4-10.5,1.4-10.6-0.2l0,0.1c-4.9-1.1-9.5,0.8-14.8-0.2
			c0,0,0.1-0.1,0.3-0.2L0-10.8l3.1,5.3l9.3,4.3l25.3-0.9l20.2,1.7L107-0.9l3.5-1.2c9.6,2.1,22-0.3,32.4,1.2l0.2-1
			c2.9-0.1,2.7,0.6,3.5,0.8c27.3-0.2,55.3-1.6,79.9-0.3c2.4,0.7,9.6,0.3,11.4,1c8-1.3,16.4-1.3,24.4-1.1l-0.3,0.1l3.8-0.2
			c0.2,0.1,0.2,0.2,0.1,0.3c4.2-0.9,10.9,0,16.1,0.4L281.5-1c30.3,0.2,58.4-1.7,88.4-0.3c14,1.7,30.2-0.6,46.2,0.8
			c2.9,1,35.3,0.3,38.2-0.2L450.6-2c12.1-0.6,17.7,0.7,28-0.3l-0.6,0.3c1.5,0.3,2.4-2.5,19,0.9V-1c0.6,0,0.6-0.3,1.7,0.1l-2.9-0.8
			c1.7-0.3,3.2-0.9,5.5-1c0.5,0.1,0.7,0.4,0.7,0.6l5.6-0.2l1.7,0.8c1.7-0.4,0.9-2.2,5.5-1.2c-1.7-1.2,2.3-0.7,1.7-1.3
			c0.2,0.1,0.8,0.4,1.2,0.6c2.7-0.1,7.9-0.5,9.2-1.1C527-4.6,516.3-7.1,513.4-8.4z M402.8-17.2l0.4-0.2
			C403-17.4,402.9-17.3,402.8-17.2z M44.9-16.2c0.1,0,0.2,0,0.2,0C45-16.2,44.9-16.2,44.9-16.2z M502.1-2.1l-0.1,0
			C502-1.7,502.1-1.9,502.1-2.1z M435.1-14.1c0.1,0,0.1,0,0.2,0l-0.8-0.6L435.1-14.1z M478-14.4c-1.9-0.1-2,0-1.7,0.1
			C477-14.3,477.6-14.3,478-14.4z M517.8-3.5c-1,0.1-1.8,0.1-1.8,0.1c0.6,0.1,1.1,0.3,1.7,0.4C518.8-2.9,518.4-3.2,517.8-3.5z
			 M513.7-8.9l0.3-0.4C513.4-9.2,513.4-9,513.7-8.9z"/>
		<path d="M1154.2-37.7C1153.8-37.6,1154-37.7,1154.2-37.7L1154.2-37.7z M1327.1-39.2
			c0.1,0,0.1,0,0.2,0c0.1-0.2,0.2-0.4,0.3-0.5L1327.1-39.2z M1354.9-37.9c0.1,0,0.1,0,0.2,0.1C1355-38,1355.1-38.1,1354.9-37.9z
			 M1262.5-37.2c0.1,0,0.3-0.1,0.5-0.1C1262.8-37.3,1262.6-37.2,1262.5-37.2z M1103.2-36.6c0,0,0.1,0,0.1,0c-0.1,0-0.2-0.1-0.3-0.1
			L1103.2-36.6z M1104-36.8c0,0-0.1-0.1-0.2-0.1C1103.8-36.9,1103.9-36.9,1104-36.8z M1104-36.8c0.1,0.1-0.4,0.2-0.6,0.2
			c0.7,0.3,1.4,0.3,2,0.2C1105.4-36.7,1104.4-36.7,1104-36.8z M1265.7-21.5c-0.1,0-0.3,0-0.4,0.1
			C1265.5-21.4,1265.6-21.4,1265.7-21.5z M1025.4-35.4l0.2-0.5C1025.4-35.7,1025.3-35.5,1025.4-35.4z M1380.6-37.6
			c0,0.2,0.1,0.3,0.1,0.4c0,0,0.1,0,0.1,0L1380.6-37.6z M1510-29.7l-0.5,0.4c0.3,0,0.5-0.1,0.6-0.2
			C1510.1-29.5,1510.1-29.6,1510-29.7z M1415.8-35.4c0-0.1,0.1-0.1,0.1-0.2c-0.6-0.2-2.2-0.2-4.2-0.2l-0.1,0.6L1415.8-35.4z
			 M1513.4-28.4c3.8,0.3,1-0.1,0.3-0.5l-0.3,0.3c-2.3-0.3-2.3-1-3.5-1.3c0,0.1,0,0.1,0.1,0.2l0.1-0.1c0.1,0.1,0,0.2-0.1,0.3
			c0,0.2-0.1,0.3-0.7,0.2l0.1-0.1c-1,0.1-2.6,0-3.3-0.1l0-0.6c-1.7,1.2-11.5-1.8-13.8-1.9c-2.3-0.8-5.2,0.2-8-0.2
			c-4.6-0.2-2.3-0.9-4.6-1.5c-2.9-0.4,0.6,0.7-0.6,0.8l-3.4-0.9c2-0.1,0.9-0.5,0.5-0.7c-3-0.1-7.7-1.3-8.6,0c-4-0.6-4-1.1-5.8-1.2
			c0.6,0.2,1.7,0.4,1.7,0.7c-1.6-0.6-0.8,0.1-0.1,0.3c-2.5,0.5-12.7-2.3-13.3-0.9v-0.3c-0.6,1,0.3,2-1.4,2.6l-1.1-0.5l-1.7,0.4
			c-1.2-0.3-0.6-0.6-0.6-0.7c-2.8,0.5-6.7-0.1-10.1-0.2l3.6,2.8c-2.9-0.6-8-2-8.6-1.1l-1.7-0.9c-5.7-1.8-4,0.8-6.3,0.2l-2.9-1l2.9,0
			c-2.9-0.5-4-0.9-6.3-1.5c0,0,0,0,0,0c0.2,0,0.3,0.1,0.3,0.2l-0.4,0c-0.3,0.5-1.8,0.9-3.9,0.8c-2.9-0.1-5.1,0.6-9.7-0.5l-1.1,1
			l-3.4-0.6v-0.8c3.4,0,9.7-0.3,14.1-0.3l0.1-0.4c-2.6,0-5.5,0.4-7.2,0.3c-0.7-0.1-2.5-0.9-1.8-1.4l-1.2,0.6
			c-8.6,0.1-8.6,0.1-17.6-0.8l0.8,0.4c-1.8,0.2-3.6,0.5-4-0.2c-5.4-0.1-11-0.7-14.5-1.7l-0.8,1c-1.1-0.1-2.8-1.5-3.4-0.2l-2.4,0.4
			c-1.6-0.1-2.5,0.5-4.3-0.1c0,0,0,0,0,0c0,0,0,0,0,0c-0.1,0-0.2-0.1-0.3-0.1c0,0,0,0.1,0,0.1c-3.5-0.4,0,0.9-4,0.3
			c-1.3-0.7-1.4,1.2-3.4,1l-2-1.4c-3.6-0.8-4.2,0.6-9.3,0.6c-2.5-0.5-3.7-1.7-2-2.8c-2.3,1.3-1,0.8-4,1.5c-0.5-0.5-0.1-0.6,0.5-1.1
			c-2.7-0.6-1.6,0.5-3.6,0.4c-0.6,1-1.3,2.6-1.9,2.7l0.8,0.3c-2.1,0.5-4.4,0.8-6.9,0.3l0.1-0.5l-2.6,0.3l-0.2-0.6l-3.7,0.2l0.5,0.2
			c-0.9,0.1-3.8,0.3-5.4,0l0.1-0.4c-4.7-1.1-8.5,0.3-13.9,0.5l0.7-0.7c-1.9-0.7-0.5,1.1-2.7,0.8l-0.1-0.9c-1.9,1.2-2.5-0.3-3.9-0.7
			l0.6,1.2l-2.5-0.2c-2.8-0.4-1.7-1.5-1.3-2.1l-1.9,0.9l-0.4-1c-1.4,1.2-1.4-0.2-3.8,0.5c-0.2-0.4,0.4-0.6-0.4-0.8l-4,1.5l2.4-0.6
			l-0.3,1.5c-2.5,1.2-3.4-0.2-5.2,0.3l1.2-0.5c-2.9,0.4-3.1-0.3-4.7-0.6c0.5,0.3,1.3,0.7,0.1,0.9c-0.9,0.1-0.5-0.5-1.3-0.7
			c-0.2,1-2.3,1.5-4.2,1.1c0-0.1,0.1-0.3,0.2-0.4c-0.5,0.2-0.7,0.4-1.6,0.2l0.5-1.1l-1.6,1.1c-1.1-0.3-2.7,0.5-2.5-0.3l0.6-0.2
			l-8.2-0.3l-0.1-0.9c-0.8,1.2-4.5-0.5-4.2,1.1c-1.6-0.8-6.1,0.6-5.2-1.1c-5.4-0.1-8.3,1.5-14.9,0.7c-2.3-1.5-8.8-1-13-1.2
			c-8.3,0.6-13.6,1.2-22,1.6c-5.1-2.1-12.7,0.7-18.1-0.5l-1.5,0.8c-3.6-1.3-9.2,0.3-14.3-1c-1.2,0.4-1.9,0.5-2.2,0.5
			c0.2,0,0.6,0.2,0.7,0.7c-1.5-0.4-4.4,0.1-4.2-0.9l0.4-0.1c0.2-1-4.4,0.5-6-0.4l0.9,1.1l-2.8-0.2l0.7-0.2
			c-12,2.5-17.4-1.1-28.6,1.2c1.5-1.2-2.2,0.6-2.4-0.7c-2.8-1.7-5.2,0.4-7.6,0.8c0,0.1,0,0.1-0.2,0.2l-4.1-0.2
			c2.4-1.7-2.9,1.4-0.7,0c-10.6-1.3-24.4,0-36.6-0.6l0.5,0.4c-3.1-0.1-7,0.4-9.3-0.2c-2.4-0.7-5.2,1.1-6.1,1.2
			c-2.3,0.7-4.4-0.4-4.1-0.6c-2.7,0.3-5.2,1.7-8.9,1c-1.3-1.4-10.5,1.4-10.6-0.2l0,0.1c-4.9-1.1-9.5,0.8-14.8-0.2
			c0,0,0.1-0.1,0.3-0.2l-10.8,4.9l3.1,5.3l9.3,4.3l25.3-0.9l20.2,1.7l49.1-0.6l3.5-1.2c9.6,2.1,22-0.3,32.4,1.2l0.2-1
			c2.9-0.1,2.7,0.6,3.5,0.8c27.3-0.2,55.3-1.6,79.9-0.3c2.4,0.7,9.6,0.3,11.4,1c8-1.3,16.4-1.3,24.4-1.1l-0.3,0.1l3.8-0.2
			c0.2,0.1,0.2,0.2,0.1,0.3c4.2-0.9,10.9,0,16.1,0.4l-0.3,0.1c30.3,0.2,58.4-1.7,88.4-0.3c14,1.7,30.2-0.6,46.2,0.8
			c2.9,1,35.3,0.3,38.2-0.2l-3.8-1.3c12.1-0.6,17.7,0.7,28-0.3l-0.6,0.3c1.5,0.3,2.4-2.5,19,0.9v0.1c0.6,0,0.6-0.3,1.7,0.1l-2.9-0.8
			c1.7-0.3,3.2-0.9,5.5-1c0.5,0.1,0.7,0.4,0.7,0.6l5.6-0.2l1.7,0.8c1.7-0.4,0.9-2.2,5.5-1.2c-1.7-1.2,2.3-0.7,1.7-1.3
			c0.2,0.1,0.8,0.4,1.2,0.6c2.7-0.1,7.9-0.5,9.2-1.1C1527-24.6,1516.3-27.1,1513.4-28.4z M1402.8-37.2l0.4-0.2
			C1403-37.4,1402.9-37.3,1402.8-37.2z M1044.9-36.2c0.1,0,0.2,0,0.2,0C1045-36.2,1044.9-36.2,1044.9-36.2z M1502.1-22.1l-0.1,0
			C1502-21.7,1502.1-21.9,1502.1-22.1z M1435.1-34.1c0.1,0,0.1,0,0.2,0l-0.8-0.6L1435.1-34.1z M1478-34.4c-1.9-0.1-2,0-1.7,0.1
			C1477-34.3,1477.6-34.3,1478-34.4z M1517.8-23.5c-1,0.1-1.8,0.1-1.8,0.1c0.6,0.1,1.1,0.3,1.7,0.4
			C1518.8-22.9,1518.4-23.2,1517.8-23.5z M1513.7-28.9l0.3-0.4C1513.4-29.2,1513.4-29,1513.7-28.9z"/>
		<path d="M654.2-37.7C653.8-37.6,654-37.7,654.2-37.7L654.2-37.7z M827.1-39.2c0.1,0,0.1,0,0.2,0
			c0.1-0.2,0.2-0.4,0.3-0.5L827.1-39.2z M854.9-37.9c0.1,0,0.1,0,0.2,0.1C855-38,855.1-38.1,854.9-37.9z M762.5-37.2
			c0.1,0,0.3-0.1,0.5-0.1C762.8-37.3,762.6-37.2,762.5-37.2z M603.2-36.6c0,0,0.1,0,0.1,0c-0.1,0-0.2-0.1-0.3-0.1L603.2-36.6z
			 M604-36.8c0,0-0.1-0.1-0.2-0.1C603.8-36.9,603.9-36.9,604-36.8z M604-36.8c0.1,0.1-0.4,0.2-0.6,0.2c0.7,0.3,1.4,0.3,2,0.2
			C605.4-36.7,604.4-36.7,604-36.8z M765.7-21.5c-0.1,0-0.3,0-0.4,0.1C765.5-21.4,765.6-21.4,765.7-21.5z M525.4-35.4l0.2-0.5
			C525.4-35.7,525.3-35.5,525.4-35.4z M880.6-37.6c0,0.2,0.1,0.3,0.1,0.4c0,0,0.1,0,0.1,0L880.6-37.6z M1010-29.7l-0.5,0.4
			c0.3,0,0.5-0.1,0.6-0.2C1010.1-29.5,1010.1-29.6,1010-29.7z M915.8-35.4c0-0.1,0.1-0.1,0.1-0.2c-0.6-0.2-2.2-0.2-4.2-0.2l-0.1,0.6
			L915.8-35.4z M1013.4-28.4c3.8,0.3,1-0.1,0.3-0.5l-0.3,0.3c-2.3-0.3-2.3-1-3.5-1.3c0,0.1,0,0.1,0.1,0.2l0.1-0.1
			c0.1,0.1,0,0.2-0.1,0.3c0,0.2-0.1,0.3-0.7,0.2l0.1-0.1c-1,0.1-2.6,0-3.3-0.1l0-0.6c-1.7,1.2-11.5-1.8-13.8-1.9
			c-2.3-0.8-5.2,0.2-8-0.2c-4.6-0.2-2.3-0.9-4.6-1.5c-2.9-0.4,0.6,0.7-0.6,0.8l-3.4-0.9c2-0.1,0.9-0.5,0.5-0.7c-3-0.1-7.7-1.3-8.6,0
			c-4-0.6-4-1.1-5.8-1.2c0.6,0.2,1.7,0.4,1.7,0.7c-1.6-0.6-0.8,0.1-0.1,0.3c-2.5,0.5-12.7-2.3-13.3-0.9v-0.3c-0.6,1,0.3,2-1.4,2.6
			l-1.1-0.5l-1.7,0.4c-1.2-0.3-0.6-0.6-0.6-0.7c-2.8,0.5-6.7-0.1-10.1-0.2l3.6,2.8c-2.9-0.6-8-2-8.6-1.1l-1.7-0.9
			c-5.7-1.8-4,0.8-6.3,0.2l-2.9-1l2.9,0c-2.9-0.5-4-0.9-6.3-1.5c0,0,0,0,0,0c0.2,0,0.3,0.1,0.3,0.2l-0.4,0c-0.3,0.5-1.8,0.9-3.9,0.8
			c-2.9-0.1-5.1,0.6-9.7-0.5l-1.1,1l-3.4-0.6v-0.8c3.4,0,9.7-0.3,14.1-0.3l0.1-0.4c-2.6,0-5.5,0.4-7.2,0.3c-0.7-0.1-2.5-0.9-1.8-1.4
			l-1.2,0.6c-8.6,0.1-8.6,0.1-17.6-0.8l0.8,0.4c-1.8,0.2-3.6,0.5-4-0.2c-5.4-0.1-11-0.7-14.5-1.7l-0.8,1c-1.1-0.1-2.8-1.5-3.4-0.2
			l-2.4,0.4c-1.6-0.1-2.5,0.5-4.3-0.1c0,0,0,0,0,0c0,0,0,0,0,0c-0.1,0-0.2-0.1-0.3-0.1c0,0,0,0.1,0,0.1c-3.5-0.4,0,0.9-4,0.3
			c-1.3-0.7-1.4,1.2-3.4,1l-2-1.4c-3.6-0.8-4.2,0.6-9.3,0.6c-2.5-0.5-3.7-1.7-2-2.8c-2.3,1.3-1,0.8-4,1.5c-0.5-0.5-0.1-0.6,0.5-1.1
			c-2.7-0.6-1.6,0.5-3.6,0.4c-0.6,1-1.3,2.6-1.9,2.7l0.8,0.3c-2.1,0.5-4.4,0.8-6.9,0.3l0.1-0.5l-2.6,0.3l-0.2-0.6l-3.7,0.2l0.5,0.2
			c-0.9,0.1-3.8,0.3-5.4,0l0.1-0.4c-4.7-1.1-8.5,0.3-13.9,0.5l0.7-0.7c-1.9-0.7-0.5,1.1-2.7,0.8l-0.1-0.9c-1.9,1.2-2.5-0.3-3.9-0.7
			l0.6,1.2l-2.5-0.2c-2.8-0.4-1.7-1.5-1.3-2.1l-1.9,0.9l-0.4-1c-1.4,1.2-1.4-0.2-3.8,0.5c-0.2-0.4,0.4-0.6-0.4-0.8l-4,1.5l2.4-0.6
			l-0.3,1.5c-2.5,1.2-3.4-0.2-5.2,0.3l1.2-0.5c-2.9,0.4-3.1-0.3-4.7-0.6c0.5,0.3,1.3,0.7,0.1,0.9c-0.9,0.1-0.5-0.5-1.3-0.7
			c-0.2,1-2.3,1.5-4.2,1.1c0-0.1,0.1-0.3,0.2-0.4c-0.5,0.2-0.7,0.4-1.6,0.2l0.5-1.1l-1.6,1.1c-1.1-0.3-2.7,0.5-2.5-0.3l0.6-0.2
			l-8.2-0.3l-0.1-0.9c-0.8,1.2-4.5-0.5-4.2,1.1c-1.6-0.8-6.1,0.6-5.2-1.1c-5.4-0.1-8.3,1.5-14.9,0.7c-2.3-1.5-8.8-1-13-1.2
			c-8.3,0.6-13.6,1.2-22,1.6c-5.1-2.1-12.7,0.7-18.1-0.5l-1.5,0.8c-3.6-1.3-9.2,0.3-14.3-1c-1.2,0.4-1.9,0.5-2.2,0.5
			c0.2,0,0.6,0.2,0.7,0.7c-1.5-0.4-4.4,0.1-4.2-0.9l0.4-0.1c0.2-1-4.4,0.5-6-0.4l0.9,1.1l-2.8-0.2l0.7-0.2
			c-12,2.5-17.4-1.1-28.6,1.2c1.5-1.2-2.2,0.6-2.4-0.7c-2.8-1.7-5.2,0.4-7.6,0.8c0,0.1,0,0.1-0.2,0.2l-4.1-0.2
			c2.4-1.7-2.9,1.4-0.7,0c-10.6-1.3-24.4,0-36.6-0.6l0.5,0.4c-3.1-0.1-7,0.4-9.3-0.2c-2.4-0.7-5.2,1.1-6.1,1.2
			c-2.3,0.7-4.4-0.4-4.1-0.6c-2.7,0.3-5.2,1.7-8.9,1c-1.3-1.4-10.5,1.4-10.6-0.2l0,0.1c-4.9-1.1-9.5,0.8-14.8-0.2
			c0,0,0.1-0.1,0.3-0.2L500-30.8l3.1,5.3l9.3,4.3l25.3-0.9l20.2,1.7l49.1-0.6l3.5-1.2c9.6,2.1,22-0.3,32.4,1.2l0.2-1
			c2.9-0.1,2.7,0.6,3.5,0.8c27.3-0.2,55.3-1.6,79.9-0.3c2.4,0.7,9.6,0.3,11.4,1c8-1.3,16.4-1.3,24.4-1.1l-0.3,0.1l3.8-0.2
			c0.2,0.1,0.2,0.2,0.1,0.3c4.2-0.9,10.9,0,16.1,0.4l-0.3,0.1c30.3,0.2,58.4-1.7,88.4-0.3c14,1.7,30.2-0.6,46.2,0.8
			c2.9,1,35.3,0.3,38.2-0.2l-3.8-1.3c12.1-0.6,17.7,0.7,28-0.3l-0.6,0.3c1.5,0.3,2.4-2.5,19,0.9v0.1c0.6,0,0.6-0.3,1.7,0.1l-2.9-0.8
			c1.7-0.3,3.2-0.9,5.5-1c0.5,0.1,0.7,0.4,0.7,0.6l5.6-0.2l1.7,0.8c1.7-0.4,0.9-2.2,5.5-1.2c-1.7-1.2,2.3-0.7,1.7-1.3
			c0.2,0.1,0.8,0.4,1.2,0.6c2.7-0.1,7.9-0.5,9.2-1.1C1027-24.6,1016.3-27.1,1013.4-28.4z M902.8-37.2l0.4-0.2
			C903-37.4,902.9-37.3,902.8-37.2z M544.9-36.2c0.1,0,0.2,0,0.2,0C545-36.2,544.9-36.2,544.9-36.2z M1002.1-22.1l-0.1,0
			C1002-21.7,1002.1-21.9,1002.1-22.1z M935.1-34.1c0.1,0,0.1,0,0.2,0l-0.8-0.6L935.1-34.1z M978-34.4c-1.9-0.1-2,0-1.7,0.1
			C977-34.3,977.6-34.3,978-34.4z M1017.8-23.5c-1,0.1-1.8,0.1-1.8,0.1c0.6,0.1,1.1,0.3,1.7,0.4
			C1018.8-22.9,1018.4-23.2,1017.8-23.5z M1013.7-28.9l0.3-0.4C1013.4-29.2,1013.4-29,1013.7-28.9z"/>
		<path d="M154.2-37.7C153.8-37.6,154-37.7,154.2-37.7L154.2-37.7z M327.1-39.2c0.1,0,0.1,0,0.2,0
			c0.1-0.2,0.2-0.4,0.3-0.5L327.1-39.2z M354.9-37.9c0.1,0,0.1,0,0.2,0.1C355-38,355.1-38.1,354.9-37.9z M262.5-37.2
			c0.1,0,0.3-0.1,0.5-0.1C262.8-37.3,262.6-37.2,262.5-37.2z M103.2-36.6c0,0,0.1,0,0.1,0c-0.1,0-0.2-0.1-0.3-0.1L103.2-36.6z
			 M104-36.8c0,0-0.1-0.1-0.2-0.1C103.8-36.9,103.9-36.9,104-36.8z M104-36.8c0.1,0.1-0.4,0.2-0.6,0.2c0.7,0.3,1.4,0.3,2,0.2
			C105.4-36.7,104.4-36.7,104-36.8z M265.7-21.5c-0.1,0-0.3,0-0.4,0.1C265.5-21.4,265.6-21.4,265.7-21.5z M25.4-35.4l0.2-0.5
			C25.4-35.7,25.3-35.5,25.4-35.4z M380.6-37.6c0,0.2,0.1,0.3,0.1,0.4c0,0,0.1,0,0.1,0L380.6-37.6z M510-29.7l-0.5,0.4
			c0.3,0,0.5-0.1,0.6-0.2C510.1-29.5,510.1-29.6,510-29.7z M415.8-35.4c0-0.1,0.1-0.1,0.1-0.2c-0.6-0.2-2.2-0.2-4.2-0.2l-0.1,0.6
			L415.8-35.4z M513.4-28.4c3.8,0.3,1-0.1,0.3-0.5l-0.3,0.3c-2.3-0.3-2.3-1-3.5-1.3c0,0.1,0,0.1,0.1,0.2l0.1-0.1
			c0.1,0.1,0,0.2-0.1,0.3c0,0.2-0.1,0.3-0.7,0.2l0.1-0.1c-1,0.1-2.6,0-3.3-0.1l0-0.6c-1.7,1.2-11.5-1.8-13.8-1.9
			c-2.3-0.8-5.2,0.2-8-0.2c-4.6-0.2-2.3-0.9-4.6-1.5c-2.9-0.4,0.6,0.7-0.6,0.8l-3.4-0.9c2-0.1,0.9-0.5,0.5-0.7c-3-0.1-7.7-1.3-8.6,0
			c-4-0.6-4-1.1-5.8-1.2c0.6,0.2,1.7,0.4,1.7,0.7c-1.6-0.6-0.8,0.1-0.1,0.3c-2.5,0.5-12.7-2.3-13.3-0.9v-0.3c-0.6,1,0.3,2-1.4,2.6
			l-1.1-0.5l-1.7,0.4c-1.2-0.3-0.6-0.6-0.6-0.7c-2.8,0.5-6.7-0.1-10.1-0.2l3.6,2.8c-2.9-0.6-8-2-8.6-1.1l-1.7-0.9
			c-5.7-1.8-4,0.8-6.3,0.2l-2.9-1l2.9,0c-2.9-0.5-4-0.9-6.3-1.5c0,0,0,0,0,0c0.2,0,0.3,0.1,0.3,0.2l-0.4,0c-0.3,0.5-1.8,0.9-3.9,0.8
			c-2.9-0.1-5.1,0.6-9.7-0.5l-1.1,1l-3.4-0.6v-0.8c3.4,0,9.7-0.3,14.1-0.3l0.1-0.4c-2.6,0-5.5,0.4-7.2,0.3c-0.7-0.1-2.5-0.9-1.8-1.4
			l-1.2,0.6c-8.6,0.1-8.6,0.1-17.6-0.8l0.8,0.4c-1.8,0.2-3.6,0.5-4-0.2c-5.4-0.1-11-0.7-14.5-1.7l-0.8,1c-1.1-0.1-2.8-1.5-3.4-0.2
			l-2.4,0.4c-1.6-0.1-2.5,0.5-4.3-0.1c0,0,0,0,0,0c0,0,0,0,0,0c-0.1,0-0.2-0.1-0.3-0.1c0,0,0,0.1,0,0.1c-3.5-0.4,0,0.9-4,0.3
			c-1.3-0.7-1.4,1.2-3.4,1l-2-1.4c-3.6-0.8-4.2,0.6-9.3,0.6c-2.5-0.5-3.7-1.7-2-2.8c-2.3,1.3-1,0.8-4,1.5c-0.5-0.5-0.1-0.6,0.5-1.1
			c-2.7-0.6-1.6,0.5-3.6,0.4c-0.6,1-1.3,2.6-1.9,2.7l0.8,0.3c-2.1,0.5-4.4,0.8-6.9,0.3l0.1-0.5l-2.6,0.3l-0.2-0.6l-3.7,0.2l0.5,0.2
			c-0.9,0.1-3.8,0.3-5.4,0l0.1-0.4c-4.7-1.1-8.5,0.3-13.9,0.5l0.7-0.7c-1.9-0.7-0.5,1.1-2.7,0.8l-0.1-0.9c-1.9,1.2-2.5-0.3-3.9-0.7
			l0.6,1.2l-2.5-0.2c-2.8-0.4-1.7-1.5-1.3-2.1l-1.9,0.9l-0.4-1c-1.4,1.2-1.4-0.2-3.8,0.5c-0.2-0.4,0.4-0.6-0.4-0.8l-4,1.5l2.4-0.6
			l-0.3,1.5c-2.5,1.2-3.4-0.2-5.2,0.3l1.2-0.5c-2.9,0.4-3.1-0.3-4.7-0.6c0.5,0.3,1.3,0.7,0.1,0.9c-0.9,0.1-0.5-0.5-1.3-0.7
			c-0.2,1-2.3,1.5-4.2,1.1c0-0.1,0.1-0.3,0.2-0.4c-0.5,0.2-0.7,0.4-1.6,0.2l0.5-1.1l-1.6,1.1c-1.1-0.3-2.7,0.5-2.5-0.3l0.6-0.2
			l-8.2-0.3l-0.1-0.9c-0.8,1.2-4.5-0.5-4.2,1.1c-1.6-0.8-6.1,0.6-5.2-1.1c-5.4-0.1-8.3,1.5-14.9,0.7c-2.3-1.5-8.8-1-13-1.2
			c-8.3,0.6-13.6,1.2-22,1.6c-5.1-2.1-12.7,0.7-18.1-0.5l-1.5,0.8c-3.6-1.3-9.2,0.3-14.3-1c-1.2,0.4-1.9,0.5-2.2,0.5
			c0.2,0,0.6,0.2,0.7,0.7c-1.5-0.4-4.4,0.1-4.2-0.9l0.4-0.1c0.2-1-4.4,0.5-6-0.4l0.9,1.1l-2.8-0.2l0.7-0.2
			c-12,2.5-17.4-1.1-28.6,1.2c1.5-1.2-2.2,0.6-2.4-0.7c-2.8-1.7-5.2,0.4-7.6,0.8c0,0.1,0,0.1-0.2,0.2l-4.1-0.2
			c2.4-1.7-2.9,1.4-0.7,0c-10.6-1.3-24.4,0-36.6-0.6l0.5,0.4c-3.1-0.1-7,0.4-9.3-0.2c-2.4-0.7-5.2,1.1-6.1,1.2
			c-2.3,0.7-4.4-0.4-4.1-0.6c-2.7,0.3-5.2,1.7-8.9,1c-1.3-1.4-10.5,1.4-10.6-0.2l0,0.1c-4.9-1.1-9.5,0.8-14.8-0.2
			c0,0,0.1-0.1,0.3-0.2L0-30.8l3.1,5.3l9.3,4.3l25.3-0.9l20.2,1.7l49.1-0.6l3.5-1.2c9.6,2.1,22-0.3,32.4,1.2l0.2-1
			c2.9-0.1,2.7,0.6,3.5,0.8c27.3-0.2,55.3-1.6,79.9-0.3c2.4,0.7,9.6,0.3,11.4,1c8-1.3,16.4-1.3,24.4-1.1l-0.3,0.1l3.8-0.2
			c0.2,0.1,0.2,0.2,0.1,0.3c4.2-0.9,10.9,0,16.1,0.4l-0.3,0.1c30.3,0.2,58.4-1.7,88.4-0.3c14,1.7,30.2-0.6,46.2,0.8
			c2.9,1,35.3,0.3,38.2-0.2l-3.8-1.3c12.1-0.6,17.7,0.7,28-0.3l-0.6,0.3c1.5,0.3,2.4-2.5,19,0.9v0.1c0.6,0,0.6-0.3,1.7,0.1l-2.9-0.8
			c1.7-0.3,3.2-0.9,5.5-1c0.5,0.1,0.7,0.4,0.7,0.6l5.6-0.2l1.7,0.8c1.7-0.4,0.9-2.2,5.5-1.2c-1.7-1.2,2.3-0.7,1.7-1.3
			c0.2,0.1,0.8,0.4,1.2,0.6c2.7-0.1,7.9-0.5,9.2-1.1C527-24.6,516.3-27.1,513.4-28.4z M402.8-37.2l0.4-0.2
			C403-37.4,402.9-37.3,402.8-37.2z M44.9-36.2c0.1,0,0.2,0,0.2,0C45-36.2,44.9-36.2,44.9-36.2z M502.1-22.1l-0.1,0
			C502-21.7,502.1-21.9,502.1-22.1z M435.1-34.1c0.1,0,0.1,0,0.2,0l-0.8-0.6L435.1-34.1z M478-34.4c-1.9-0.1-2,0-1.7,0.1
			C477-34.3,477.6-34.3,478-34.4z M517.8-23.5c-1,0.1-1.8,0.1-1.8,0.1c0.6,0.1,1.1,0.3,1.7,0.4C518.8-22.9,518.4-23.2,517.8-23.5z
			 M513.7-28.9l0.3-0.4C513.4-29.2,513.4-29,513.7-28.9z"/>
		<path d="M1154.2-57.7C1153.8-57.6,1154-57.7,1154.2-57.7L1154.2-57.7z M1327.1-59.2
			c0.1,0,0.1,0,0.2,0c0.1-0.2,0.2-0.4,0.3-0.5L1327.1-59.2z M1354.9-57.9c0.1,0,0.1,0,0.2,0.1C1355-58,1355.1-58.1,1354.9-57.9z
			 M1262.5-57.2c0.1,0,0.3-0.1,0.5-0.1C1262.8-57.3,1262.6-57.2,1262.5-57.2z M1103.2-56.6c0,0,0.1,0,0.1,0c-0.1,0-0.2-0.1-0.3-0.1
			L1103.2-56.6z M1104-56.8c0,0-0.1-0.1-0.2-0.1C1103.8-56.9,1103.9-56.9,1104-56.8z M1104-56.8c0.1,0.1-0.4,0.2-0.6,0.2
			c0.7,0.3,1.4,0.3,2,0.2C1105.4-56.7,1104.4-56.7,1104-56.8z M1265.7-41.5c-0.1,0-0.3,0-0.4,0.1
			C1265.5-41.4,1265.6-41.4,1265.7-41.5z M1025.4-55.4l0.2-0.5C1025.4-55.7,1025.3-55.5,1025.4-55.4z M1380.6-57.6
			c0,0.2,0.1,0.3,0.1,0.4c0,0,0.1,0,0.1,0L1380.6-57.6z M1510-49.7l-0.5,0.4c0.3,0,0.5-0.1,0.6-0.2
			C1510.1-49.5,1510.1-49.6,1510-49.7z M1415.8-55.4c0-0.1,0.1-0.1,0.1-0.2c-0.6-0.2-2.2-0.2-4.2-0.2l-0.1,0.6L1415.8-55.4z
			 M1513.4-48.4c3.8,0.3,1-0.1,0.3-0.5l-0.3,0.3c-2.3-0.3-2.3-1-3.5-1.3c0,0.1,0,0.1,0.1,0.2l0.1-0.1c0.1,0.1,0,0.2-0.1,0.3
			c0,0.2-0.1,0.3-0.7,0.2l0.1-0.1c-1,0.1-2.6,0-3.3-0.1l0-0.6c-1.7,1.2-11.5-1.8-13.8-1.9c-2.3-0.8-5.2,0.2-8-0.2
			c-4.6-0.2-2.3-0.9-4.6-1.5c-2.9-0.4,0.6,0.7-0.6,0.8l-3.4-0.9c2-0.1,0.9-0.5,0.5-0.7c-3-0.1-7.7-1.3-8.6,0c-4-0.6-4-1.1-5.8-1.2
			c0.6,0.2,1.7,0.4,1.7,0.7c-1.6-0.6-0.8,0.1-0.1,0.3c-2.5,0.5-12.7-2.3-13.3-0.9v-0.3c-0.6,1,0.3,2-1.4,2.6l-1.1-0.5l-1.7,0.4
			c-1.2-0.3-0.6-0.6-0.6-0.7c-2.8,0.5-6.7-0.1-10.1-0.2l3.6,2.8c-2.9-0.6-8-2-8.6-1.1l-1.7-0.9c-5.7-1.8-4,0.8-6.3,0.2l-2.9-1l2.9,0
			c-2.9-0.5-4-0.9-6.3-1.5c0,0,0,0,0,0c0.2,0,0.3,0.1,0.3,0.2l-0.4,0c-0.3,0.5-1.8,0.9-3.9,0.8c-2.9-0.1-5.1,0.6-9.7-0.5l-1.1,1
			l-3.4-0.6v-0.8c3.4,0,9.7-0.3,14.1-0.3l0.1-0.4c-2.6,0-5.5,0.4-7.2,0.3c-0.7-0.1-2.5-0.9-1.8-1.4l-1.2,0.6
			c-8.6,0.1-8.6,0.1-17.6-0.8l0.8,0.4c-1.8,0.2-3.6,0.5-4-0.2c-5.4-0.1-11-0.7-14.5-1.7l-0.8,1c-1.1-0.1-2.8-1.5-3.4-0.2l-2.4,0.4
			c-1.6-0.1-2.5,0.5-4.3-0.1c0,0,0,0,0,0c0,0,0,0,0,0c-0.1,0-0.2-0.1-0.3-0.1c0,0,0,0.1,0,0.1c-3.5-0.4,0,0.9-4,0.3
			c-1.3-0.7-1.4,1.2-3.4,1l-2-1.4c-3.6-0.8-4.2,0.6-9.3,0.6c-2.5-0.5-3.7-1.7-2-2.8c-2.3,1.3-1,0.8-4,1.5c-0.5-0.5-0.1-0.6,0.5-1.1
			c-2.7-0.6-1.6,0.5-3.6,0.4c-0.6,1-1.3,2.6-1.9,2.7l0.8,0.3c-2.1,0.5-4.4,0.8-6.9,0.3l0.1-0.5l-2.6,0.3l-0.2-0.6l-3.7,0.2l0.5,0.2
			c-0.9,0.1-3.8,0.3-5.4,0l0.1-0.4c-4.7-1.1-8.5,0.3-13.9,0.5l0.7-0.7c-1.9-0.7-0.5,1.1-2.7,0.8l-0.1-0.9c-1.9,1.2-2.5-0.3-3.9-0.7
			l0.6,1.2l-2.5-0.2c-2.8-0.4-1.7-1.5-1.3-2.1l-1.9,0.9l-0.4-1c-1.4,1.2-1.4-0.2-3.8,0.5c-0.2-0.4,0.4-0.6-0.4-0.8l-4,1.5l2.4-0.6
			l-0.3,1.5c-2.5,1.2-3.4-0.2-5.2,0.3l1.2-0.5c-2.9,0.4-3.1-0.3-4.7-0.6c0.5,0.3,1.3,0.7,0.1,0.9c-0.9,0.1-0.5-0.5-1.3-0.7
			c-0.2,1-2.3,1.5-4.2,1.1c0-0.1,0.1-0.3,0.2-0.4c-0.5,0.2-0.7,0.4-1.6,0.2l0.5-1.1l-1.6,1.1c-1.1-0.3-2.7,0.5-2.5-0.3l0.6-0.2
			l-8.2-0.3l-0.1-0.9c-0.8,1.2-4.5-0.5-4.2,1.1c-1.6-0.8-6.1,0.6-5.2-1.1c-5.4-0.1-8.3,1.5-14.9,0.7c-2.3-1.5-8.8-1-13-1.2
			c-8.3,0.6-13.6,1.2-22,1.6c-5.1-2.1-12.7,0.7-18.1-0.5l-1.5,0.8c-3.6-1.3-9.2,0.3-14.3-1c-1.2,0.4-1.9,0.5-2.2,0.5
			c0.2,0,0.6,0.2,0.7,0.7c-1.5-0.4-4.4,0.1-4.2-0.9l0.4-0.1c0.2-1-4.4,0.5-6-0.4l0.9,1.1l-2.8-0.2l0.7-0.2
			c-12,2.5-17.4-1.1-28.6,1.2c1.5-1.2-2.2,0.6-2.4-0.7c-2.8-1.7-5.2,0.4-7.6,0.8c0,0.1,0,0.1-0.2,0.2l-4.1-0.2
			c2.4-1.7-2.9,1.4-0.7,0c-10.6-1.3-24.4,0-36.6-0.6l0.5,0.4c-3.1-0.1-7,0.4-9.3-0.2c-2.4-0.7-5.2,1.1-6.1,1.2
			c-2.3,0.7-4.4-0.4-4.1-0.6c-2.7,0.3-5.2,1.7-8.9,1c-1.3-1.4-10.5,1.4-10.6-0.2l0,0.1c-4.9-1.1-9.5,0.8-14.8-0.2
			c0,0,0.1-0.1,0.3-0.2l-10.8,4.9l3.1,5.3l9.3,4.3l25.3-0.9l20.2,1.7l49.1-0.6l3.5-1.2c9.6,2.1,22-0.3,32.4,1.2l0.2-1
			c2.9-0.1,2.7,0.6,3.5,0.8c27.3-0.2,55.3-1.6,79.9-0.3c2.4,0.7,9.6,0.3,11.4,1c8-1.3,16.4-1.3,24.4-1.1l-0.3,0.1l3.8-0.2
			c0.2,0.1,0.2,0.2,0.1,0.3c4.2-0.9,10.9,0,16.1,0.4l-0.3,0.1c30.3,0.2,58.4-1.7,88.4-0.3c14,1.7,30.2-0.6,46.2,0.8
			c2.9,1,35.3,0.3,38.2-0.2l-3.8-1.3c12.1-0.6,17.7,0.7,28-0.3l-0.6,0.3c1.5,0.3,2.4-2.5,19,0.9v0.1c0.6,0,0.6-0.3,1.7,0.1l-2.9-0.8
			c1.7-0.3,3.2-0.9,5.5-1c0.5,0.1,0.7,0.4,0.7,0.6l5.6-0.2l1.7,0.8c1.7-0.4,0.9-2.2,5.5-1.2c-1.7-1.2,2.3-0.7,1.7-1.3
			c0.2,0.1,0.8,0.4,1.2,0.6c2.7-0.1,7.9-0.5,9.2-1.1C1527-44.6,1516.3-47.1,1513.4-48.4z M1402.8-57.2l0.4-0.2
			C1403-57.4,1402.9-57.3,1402.8-57.2z M1044.9-56.2c0.1,0,0.2,0,0.2,0C1045-56.2,1044.9-56.2,1044.9-56.2z M1502.1-42.1l-0.1,0
			C1502-41.7,1502.1-41.9,1502.1-42.1z M1435.1-54.1c0.1,0,0.1,0,0.2,0l-0.8-0.6L1435.1-54.1z M1478-54.4c-1.9-0.1-2,0-1.7,0.1
			C1477-54.3,1477.6-54.3,1478-54.4z M1517.8-43.5c-1,0.1-1.8,0.1-1.8,0.1c0.6,0.1,1.1,0.3,1.7,0.4
			C1518.8-42.9,1518.4-43.2,1517.8-43.5z M1513.7-48.9l0.3-0.4C1513.4-49.2,1513.4-49,1513.7-48.9z"/>
		<path d="M654.2-57.7C653.8-57.6,654-57.7,654.2-57.7L654.2-57.7z M827.1-59.2c0.1,0,0.1,0,0.2,0
			c0.1-0.2,0.2-0.4,0.3-0.5L827.1-59.2z M854.9-57.9c0.1,0,0.1,0,0.2,0.1C855-58,855.1-58.1,854.9-57.9z M762.5-57.2
			c0.1,0,0.3-0.1,0.5-0.1C762.8-57.3,762.6-57.2,762.5-57.2z M603.2-56.6c0,0,0.1,0,0.1,0c-0.1,0-0.2-0.1-0.3-0.1L603.2-56.6z
			 M604-56.8c0,0-0.1-0.1-0.2-0.1C603.8-56.9,603.9-56.9,604-56.8z M604-56.8c0.1,0.1-0.4,0.2-0.6,0.2c0.7,0.3,1.4,0.3,2,0.2
			C605.4-56.7,604.4-56.7,604-56.8z M765.7-41.5c-0.1,0-0.3,0-0.4,0.1C765.5-41.4,765.6-41.4,765.7-41.5z M525.4-55.4l0.2-0.5
			C525.4-55.7,525.3-55.5,525.4-55.4z M880.6-57.6c0,0.2,0.1,0.3,0.1,0.4c0,0,0.1,0,0.1,0L880.6-57.6z M1010-49.7l-0.5,0.4
			c0.3,0,0.5-0.1,0.6-0.2C1010.1-49.5,1010.1-49.6,1010-49.7z M915.8-55.4c0-0.1,0.1-0.1,0.1-0.2c-0.6-0.2-2.2-0.2-4.2-0.2l-0.1,0.6
			L915.8-55.4z M1013.4-48.4c3.8,0.3,1-0.1,0.3-0.5l-0.3,0.3c-2.3-0.3-2.3-1-3.5-1.3c0,0.1,0,0.1,0.1,0.2l0.1-0.1
			c0.1,0.1,0,0.2-0.1,0.3c0,0.2-0.1,0.3-0.7,0.2l0.1-0.1c-1,0.1-2.6,0-3.3-0.1l0-0.6c-1.7,1.2-11.5-1.8-13.8-1.9
			c-2.3-0.8-5.2,0.2-8-0.2c-4.6-0.2-2.3-0.9-4.6-1.5c-2.9-0.4,0.6,0.7-0.6,0.8l-3.4-0.9c2-0.1,0.9-0.5,0.5-0.7c-3-0.1-7.7-1.3-8.6,0
			c-4-0.6-4-1.1-5.8-1.2c0.6,0.2,1.7,0.4,1.7,0.7c-1.6-0.6-0.8,0.1-0.1,0.3c-2.5,0.5-12.7-2.3-13.3-0.9v-0.3c-0.6,1,0.3,2-1.4,2.6
			l-1.1-0.5l-1.7,0.4c-1.2-0.3-0.6-0.6-0.6-0.7c-2.8,0.5-6.7-0.1-10.1-0.2l3.6,2.8c-2.9-0.6-8-2-8.6-1.1l-1.7-0.9
			c-5.7-1.8-4,0.8-6.3,0.2l-2.9-1l2.9,0c-2.9-0.5-4-0.9-6.3-1.5c0,0,0,0,0,0c0.2,0,0.3,0.1,0.3,0.2l-0.4,0c-0.3,0.5-1.8,0.9-3.9,0.8
			c-2.9-0.1-5.1,0.6-9.7-0.5l-1.1,1l-3.4-0.6v-0.8c3.4,0,9.7-0.3,14.1-0.3l0.1-0.4c-2.6,0-5.5,0.4-7.2,0.3c-0.7-0.1-2.5-0.9-1.8-1.4
			l-1.2,0.6c-8.6,0.1-8.6,0.1-17.6-0.8l0.8,0.4c-1.8,0.2-3.6,0.5-4-0.2c-5.4-0.1-11-0.7-14.5-1.7l-0.8,1c-1.1-0.1-2.8-1.5-3.4-0.2
			l-2.4,0.4c-1.6-0.1-2.5,0.5-4.3-0.1c0,0,0,0,0,0c0,0,0,0,0,0c-0.1,0-0.2-0.1-0.3-0.1c0,0,0,0.1,0,0.1c-3.5-0.4,0,0.9-4,0.3
			c-1.3-0.7-1.4,1.2-3.4,1l-2-1.4c-3.6-0.8-4.2,0.6-9.3,0.6c-2.5-0.5-3.7-1.7-2-2.8c-2.3,1.3-1,0.8-4,1.5c-0.5-0.5-0.1-0.6,0.5-1.1
			c-2.7-0.6-1.6,0.5-3.6,0.4c-0.6,1-1.3,2.6-1.9,2.7l0.8,0.3c-2.1,0.5-4.4,0.8-6.9,0.3l0.1-0.5l-2.6,0.3l-0.2-0.6l-3.7,0.2l0.5,0.2
			c-0.9,0.1-3.8,0.3-5.4,0l0.1-0.4c-4.7-1.1-8.5,0.3-13.9,0.5l0.7-0.7c-1.9-0.7-0.5,1.1-2.7,0.8l-0.1-0.9c-1.9,1.2-2.5-0.3-3.9-0.7
			l0.6,1.2l-2.5-0.2c-2.8-0.4-1.7-1.5-1.3-2.1l-1.9,0.9l-0.4-1c-1.4,1.2-1.4-0.2-3.8,0.5c-0.2-0.4,0.4-0.6-0.4-0.8l-4,1.5l2.4-0.6
			l-0.3,1.5c-2.5,1.2-3.4-0.2-5.2,0.3l1.2-0.5c-2.9,0.4-3.1-0.3-4.7-0.6c0.5,0.3,1.3,0.7,0.1,0.9c-0.9,0.1-0.5-0.5-1.3-0.7
			c-0.2,1-2.3,1.5-4.2,1.1c0-0.1,0.1-0.3,0.2-0.4c-0.5,0.2-0.7,0.4-1.6,0.2l0.5-1.1l-1.6,1.1c-1.1-0.3-2.7,0.5-2.5-0.3l0.6-0.2
			l-8.2-0.3l-0.1-0.9c-0.8,1.2-4.5-0.5-4.2,1.1c-1.6-0.8-6.1,0.6-5.2-1.1c-5.4-0.1-8.3,1.5-14.9,0.7c-2.3-1.5-8.8-1-13-1.2
			c-8.3,0.6-13.6,1.2-22,1.6c-5.1-2.1-12.7,0.7-18.1-0.5l-1.5,0.8c-3.6-1.3-9.2,0.3-14.3-1c-1.2,0.4-1.9,0.5-2.2,0.5
			c0.2,0,0.6,0.2,0.7,0.7c-1.5-0.4-4.4,0.1-4.2-0.9l0.4-0.1c0.2-1-4.4,0.5-6-0.4l0.9,1.1l-2.8-0.2l0.7-0.2
			c-12,2.5-17.4-1.1-28.6,1.2c1.5-1.2-2.2,0.6-2.4-0.7c-2.8-1.7-5.2,0.4-7.6,0.8c0,0.1,0,0.1-0.2,0.2l-4.1-0.2
			c2.4-1.7-2.9,1.4-0.7,0c-10.6-1.3-24.4,0-36.6-0.6l0.5,0.4c-3.1-0.1-7,0.4-9.3-0.2c-2.4-0.7-5.2,1.1-6.1,1.2
			c-2.3,0.7-4.4-0.4-4.1-0.6c-2.7,0.3-5.2,1.7-8.9,1c-1.3-1.4-10.5,1.4-10.6-0.2l0,0.1c-4.9-1.1-9.5,0.8-14.8-0.2
			c0,0,0.1-0.1,0.3-0.2L500-50.8l3.1,5.3l9.3,4.3l25.3-0.9l20.2,1.7l49.1-0.6l3.5-1.2c9.6,2.1,22-0.3,32.4,1.2l0.2-1
			c2.9-0.1,2.7,0.6,3.5,0.8c27.3-0.2,55.3-1.6,79.9-0.3c2.4,0.7,9.6,0.3,11.4,1c8-1.3,16.4-1.3,24.4-1.1l-0.3,0.1l3.8-0.2
			c0.2,0.1,0.2,0.2,0.1,0.3c4.2-0.9,10.9,0,16.1,0.4l-0.3,0.1c30.3,0.2,58.4-1.7,88.4-0.3c14,1.7,30.2-0.6,46.2,0.8
			c2.9,1,35.3,0.3,38.2-0.2l-3.8-1.3c12.1-0.6,17.7,0.7,28-0.3l-0.6,0.3c1.5,0.3,2.4-2.5,19,0.9v0.1c0.6,0,0.6-0.3,1.7,0.1l-2.9-0.8
			c1.7-0.3,3.2-0.9,5.5-1c0.5,0.1,0.7,0.4,0.7,0.6l5.6-0.2l1.7,0.8c1.7-0.4,0.9-2.2,5.5-1.2c-1.7-1.2,2.3-0.7,1.7-1.3
			c0.2,0.1,0.8,0.4,1.2,0.6c2.7-0.1,7.9-0.5,9.2-1.1C1027-44.6,1016.3-47.1,1013.4-48.4z M902.8-57.2l0.4-0.2
			C903-57.4,902.9-57.3,902.8-57.2z M544.9-56.2c0.1,0,0.2,0,0.2,0C545-56.2,544.9-56.2,544.9-56.2z M1002.1-42.1l-0.1,0
			C1002-41.7,1002.1-41.9,1002.1-42.1z M935.1-54.1c0.1,0,0.1,0,0.2,0l-0.8-0.6L935.1-54.1z M978-54.4c-1.9-0.1-2,0-1.7,0.1
			C977-54.3,977.6-54.3,978-54.4z M1017.8-43.5c-1,0.1-1.8,0.1-1.8,0.1c0.6,0.1,1.1,0.3,1.7,0.4
			C1018.8-42.9,1018.4-43.2,1017.8-43.5z M1013.7-48.9l0.3-0.4C1013.4-49.2,1013.4-49,1013.7-48.9z"/>
		<path d="M154.2-57.7C153.8-57.6,154-57.7,154.2-57.7L154.2-57.7z M327.1-59.2c0.1,0,0.1,0,0.2,0
			c0.1-0.2,0.2-0.4,0.3-0.5L327.1-59.2z M354.9-57.9c0.1,0,0.1,0,0.2,0.1C355-58,355.1-58.1,354.9-57.9z M262.5-57.2
			c0.1,0,0.3-0.1,0.5-0.1C262.8-57.3,262.6-57.2,262.5-57.2z M103.2-56.6c0,0,0.1,0,0.1,0c-0.1,0-0.2-0.1-0.3-0.1L103.2-56.6z
			 M104-56.8c0,0-0.1-0.1-0.2-0.1C103.8-56.9,103.9-56.9,104-56.8z M104-56.8c0.1,0.1-0.4,0.2-0.6,0.2c0.7,0.3,1.4,0.3,2,0.2
			C105.4-56.7,104.4-56.7,104-56.8z M265.7-41.5c-0.1,0-0.3,0-0.4,0.1C265.5-41.4,265.6-41.4,265.7-41.5z M25.4-55.4l0.2-0.5
			C25.4-55.7,25.3-55.5,25.4-55.4z M380.6-57.6c0,0.2,0.1,0.3,0.1,0.4c0,0,0.1,0,0.1,0L380.6-57.6z M510-49.7l-0.5,0.4
			c0.3,0,0.5-0.1,0.6-0.2C510.1-49.5,510.1-49.6,510-49.7z M415.8-55.4c0-0.1,0.1-0.1,0.1-0.2c-0.6-0.2-2.2-0.2-4.2-0.2l-0.1,0.6
			L415.8-55.4z M513.4-48.4c3.8,0.3,1-0.1,0.3-0.5l-0.3,0.3c-2.3-0.3-2.3-1-3.5-1.3c0,0.1,0,0.1,0.1,0.2l0.1-0.1
			c0.1,0.1,0,0.2-0.1,0.3c0,0.2-0.1,0.3-0.7,0.2l0.1-0.1c-1,0.1-2.6,0-3.3-0.1l0-0.6c-1.7,1.2-11.5-1.8-13.8-1.9
			c-2.3-0.8-5.2,0.2-8-0.2c-4.6-0.2-2.3-0.9-4.6-1.5c-2.9-0.4,0.6,0.7-0.6,0.8l-3.4-0.9c2-0.1,0.9-0.5,0.5-0.7c-3-0.1-7.7-1.3-8.6,0
			c-4-0.6-4-1.1-5.8-1.2c0.6,0.2,1.7,0.4,1.7,0.7c-1.6-0.6-0.8,0.1-0.1,0.3c-2.5,0.5-12.7-2.3-13.3-0.9v-0.3c-0.6,1,0.3,2-1.4,2.6
			l-1.1-0.5l-1.7,0.4c-1.2-0.3-0.6-0.6-0.6-0.7c-2.8,0.5-6.7-0.1-10.1-0.2l3.6,2.8c-2.9-0.6-8-2-8.6-1.1l-1.7-0.9
			c-5.7-1.8-4,0.8-6.3,0.2l-2.9-1l2.9,0c-2.9-0.5-4-0.9-6.3-1.5c0,0,0,0,0,0c0.2,0,0.3,0.1,0.3,0.2l-0.4,0c-0.3,0.5-1.8,0.9-3.9,0.8
			c-2.9-0.1-5.1,0.6-9.7-0.5l-1.1,1l-3.4-0.6v-0.8c3.4,0,9.7-0.3,14.1-0.3l0.1-0.4c-2.6,0-5.5,0.4-7.2,0.3c-0.7-0.1-2.5-0.9-1.8-1.4
			l-1.2,0.6c-8.6,0.1-8.6,0.1-17.6-0.8l0.8,0.4c-1.8,0.2-3.6,0.5-4-0.2c-5.4-0.1-11-0.7-14.5-1.7l-0.8,1c-1.1-0.1-2.8-1.5-3.4-0.2
			l-2.4,0.4c-1.6-0.1-2.5,0.5-4.3-0.1c0,0,0,0,0,0c0,0,0,0,0,0c-0.1,0-0.2-0.1-0.3-0.1c0,0,0,0.1,0,0.1c-3.5-0.4,0,0.9-4,0.3
			c-1.3-0.7-1.4,1.2-3.4,1l-2-1.4c-3.6-0.8-4.2,0.6-9.3,0.6c-2.5-0.5-3.7-1.7-2-2.8c-2.3,1.3-1,0.8-4,1.5c-0.5-0.5-0.1-0.6,0.5-1.1
			c-2.7-0.6-1.6,0.5-3.6,0.4c-0.6,1-1.3,2.6-1.9,2.7l0.8,0.3c-2.1,0.5-4.4,0.8-6.9,0.3l0.1-0.5l-2.6,0.3l-0.2-0.6l-3.7,0.2l0.5,0.2
			c-0.9,0.1-3.8,0.3-5.4,0l0.1-0.4c-4.7-1.1-8.5,0.3-13.9,0.5l0.7-0.7c-1.9-0.7-0.5,1.1-2.7,0.8l-0.1-0.9c-1.9,1.2-2.5-0.3-3.9-0.7
			l0.6,1.2l-2.5-0.2c-2.8-0.4-1.7-1.5-1.3-2.1l-1.9,0.9l-0.4-1c-1.4,1.2-1.4-0.2-3.8,0.5c-0.2-0.4,0.4-0.6-0.4-0.8l-4,1.5l2.4-0.6
			l-0.3,1.5c-2.5,1.2-3.4-0.2-5.2,0.3l1.2-0.5c-2.9,0.4-3.1-0.3-4.7-0.6c0.5,0.3,1.3,0.7,0.1,0.9c-0.9,0.1-0.5-0.5-1.3-0.7
			c-0.2,1-2.3,1.5-4.2,1.1c0-0.1,0.1-0.3,0.2-0.4c-0.5,0.2-0.7,0.4-1.6,0.2l0.5-1.1l-1.6,1.1c-1.1-0.3-2.7,0.5-2.5-0.3l0.6-0.2
			l-8.2-0.3l-0.1-0.9c-0.8,1.2-4.5-0.5-4.2,1.1c-1.6-0.8-6.1,0.6-5.2-1.1c-5.4-0.1-8.3,1.5-14.9,0.7c-2.3-1.5-8.8-1-13-1.2
			c-8.3,0.6-13.6,1.2-22,1.6c-5.1-2.1-12.7,0.7-18.1-0.5l-1.5,0.8c-3.6-1.3-9.2,0.3-14.3-1c-1.2,0.4-1.9,0.5-2.2,0.5
			c0.2,0,0.6,0.2,0.7,0.7c-1.5-0.4-4.4,0.1-4.2-0.9l0.4-0.1c0.2-1-4.4,0.5-6-0.4l0.9,1.1l-2.8-0.2l0.7-0.2
			c-12,2.5-17.4-1.1-28.6,1.2c1.5-1.2-2.2,0.6-2.4-0.7c-2.8-1.7-5.2,0.4-7.6,0.8c0,0.1,0,0.1-0.2,0.2l-4.1-0.2
			c2.4-1.7-2.9,1.4-0.7,0c-10.6-1.3-24.4,0-36.6-0.6l0.5,0.4c-3.1-0.1-7,0.4-9.3-0.2c-2.4-0.7-5.2,1.1-6.1,1.2
			c-2.3,0.7-4.4-0.4-4.1-0.6c-2.7,0.3-5.2,1.7-8.9,1c-1.3-1.4-10.5,1.4-10.6-0.2l0,0.1c-4.9-1.1-9.5,0.8-14.8-0.2
			c0,0,0.1-0.1,0.3-0.2L0-50.8l3.1,5.3l9.3,4.3l25.3-0.9l20.2,1.7l49.1-0.6l3.5-1.2c9.6,2.1,22-0.3,32.4,1.2l0.2-1
			c2.9-0.1,2.7,0.6,3.5,0.8c27.3-0.2,55.3-1.6,79.9-0.3c2.4,0.7,9.6,0.3,11.4,1c8-1.3,16.4-1.3,24.4-1.1l-0.3,0.1l3.8-0.2
			c0.2,0.1,0.2,0.2,0.1,0.3c4.2-0.9,10.9,0,16.1,0.4l-0.3,0.1c30.3,0.2,58.4-1.7,88.4-0.3c14,1.7,30.2-0.6,46.2,0.8
			c2.9,1,35.3,0.3,38.2-0.2l-3.8-1.3c12.1-0.6,17.7,0.7,28-0.3l-0.6,0.3c1.5,0.3,2.4-2.5,19,0.9v0.1c0.6,0,0.6-0.3,1.7,0.1l-2.9-0.8
			c1.7-0.3,3.2-0.9,5.5-1c0.5,0.1,0.7,0.4,0.7,0.6l5.6-0.2l1.7,0.8c1.7-0.4,0.9-2.2,5.5-1.2c-1.7-1.2,2.3-0.7,1.7-1.3
			c0.2,0.1,0.8,0.4,1.2,0.6c2.7-0.1,7.9-0.5,9.2-1.1C527-44.6,516.3-47.1,513.4-48.4z M402.8-57.2l0.4-0.2
			C403-57.4,402.9-57.3,402.8-57.2z M44.9-56.2c0.1,0,0.2,0,0.2,0C45-56.2,44.9-56.2,44.9-56.2z M502.1-42.1l-0.1,0
			C502-41.7,502.1-41.9,502.1-42.1z M435.1-54.1c0.1,0,0.1,0,0.2,0l-0.8-0.6L435.1-54.1z M478-54.4c-1.9-0.1-2,0-1.7,0.1
			C477-54.3,477.6-54.3,478-54.4z M517.8-43.5c-1,0.1-1.8,0.1-1.8,0.1c0.6,0.1,1.1,0.3,1.7,0.4C518.8-42.9,518.4-43.2,517.8-43.5z
			 M513.7-48.9l0.3-0.4C513.4-49.2,513.4-49,513.7-48.9z"/>
		<path d="M1154.2-77.7C1153.8-77.6,1154-77.7,1154.2-77.7L1154.2-77.7z M1327.1-79.2
			c0.1,0,0.1,0,0.2,0c0.1-0.2,0.2-0.4,0.3-0.5L1327.1-79.2z M1354.9-77.9c0.1,0,0.1,0,0.2,0.1C1355-78,1355.1-78.1,1354.9-77.9z
			 M1262.5-77.2c0.1,0,0.3-0.1,0.5-0.1C1262.8-77.3,1262.6-77.2,1262.5-77.2z M1103.2-76.6c0,0,0.1,0,0.1,0c-0.1,0-0.2-0.1-0.3-0.1
			L1103.2-76.6z M1104-76.8c0,0-0.1-0.1-0.2-0.1C1103.8-76.9,1103.9-76.9,1104-76.8z M1104-76.8c0.1,0.1-0.4,0.2-0.6,0.2
			c0.7,0.3,1.4,0.3,2,0.2C1105.4-76.7,1104.4-76.7,1104-76.8z M1265.7-61.5c-0.1,0-0.3,0-0.4,0.1
			C1265.5-61.4,1265.6-61.4,1265.7-61.5z M1025.4-75.4l0.2-0.5C1025.4-75.7,1025.3-75.5,1025.4-75.4z M1380.6-77.6
			c0,0.2,0.1,0.3,0.1,0.4c0,0,0.1,0,0.1,0L1380.6-77.6z M1510-69.7l-0.5,0.4c0.3,0,0.5-0.1,0.6-0.2
			C1510.1-69.5,1510.1-69.6,1510-69.7z M1415.8-75.4c0-0.1,0.1-0.1,0.1-0.2c-0.6-0.2-2.2-0.2-4.2-0.2l-0.1,0.6L1415.8-75.4z
			 M1513.4-68.4c3.8,0.3,1-0.1,0.3-0.5l-0.3,0.3c-2.3-0.3-2.3-1-3.5-1.3c0,0.1,0,0.1,0.1,0.2l0.1-0.1c0.1,0.1,0,0.2-0.1,0.3
			c0,0.2-0.1,0.3-0.7,0.2l0.1-0.1c-1,0.1-2.6,0-3.3-0.1l0-0.6c-1.7,1.2-11.5-1.8-13.8-1.9c-2.3-0.8-5.2,0.2-8-0.2
			c-4.6-0.2-2.3-0.9-4.6-1.5c-2.9-0.4,0.6,0.7-0.6,0.8l-3.4-0.9c2-0.1,0.9-0.5,0.5-0.7c-3-0.1-7.7-1.3-8.6,0c-4-0.6-4-1.1-5.8-1.2
			c0.6,0.2,1.7,0.4,1.7,0.7c-1.6-0.6-0.8,0.1-0.1,0.3c-2.5,0.5-12.7-2.3-13.3-0.9v-0.3c-0.6,1,0.3,2-1.4,2.6l-1.1-0.5l-1.7,0.4
			c-1.2-0.3-0.6-0.6-0.6-0.7c-2.8,0.5-6.7-0.1-10.1-0.2l3.6,2.8c-2.9-0.6-8-2-8.6-1.1l-1.7-0.9c-5.7-1.8-4,0.8-6.3,0.2l-2.9-1l2.9,0
			c-2.9-0.5-4-0.9-6.3-1.5c0,0,0,0,0,0c0.2,0,0.3,0.1,0.3,0.2l-0.4,0c-0.3,0.5-1.8,0.9-3.9,0.8c-2.9-0.1-5.1,0.6-9.7-0.5l-1.1,1
			l-3.4-0.6v-0.8c3.4,0,9.7-0.3,14.1-0.3l0.1-0.4c-2.6,0-5.5,0.4-7.2,0.3c-0.7-0.1-2.5-0.9-1.8-1.4l-1.2,0.6
			c-8.6,0.1-8.6,0.1-17.6-0.8l0.8,0.4c-1.8,0.2-3.6,0.5-4-0.2c-5.4-0.1-11-0.7-14.5-1.7l-0.8,1c-1.1-0.1-2.8-1.5-3.4-0.2l-2.4,0.4
			c-1.6-0.1-2.5,0.5-4.3-0.1c0,0,0,0,0,0c0,0,0,0,0,0c-0.1,0-0.2-0.1-0.3-0.1c0,0,0,0.1,0,0.1c-3.5-0.4,0,0.9-4,0.3
			c-1.3-0.7-1.4,1.2-3.4,1l-2-1.4c-3.6-0.8-4.2,0.6-9.3,0.6c-2.5-0.5-3.7-1.7-2-2.8c-2.3,1.3-1,0.8-4,1.5c-0.5-0.5-0.1-0.6,0.5-1.1
			c-2.7-0.6-1.6,0.5-3.6,0.4c-0.6,1-1.3,2.6-1.9,2.7l0.8,0.3c-2.1,0.5-4.4,0.8-6.9,0.3l0.1-0.5l-2.6,0.3l-0.2-0.6l-3.7,0.2l0.5,0.2
			c-0.9,0.1-3.8,0.3-5.4,0l0.1-0.4c-4.7-1.1-8.5,0.3-13.9,0.5l0.7-0.7c-1.9-0.7-0.5,1.1-2.7,0.8l-0.1-0.9c-1.9,1.2-2.5-0.3-3.9-0.7
			l0.6,1.2l-2.5-0.2c-2.8-0.4-1.7-1.5-1.3-2.1l-1.9,0.9l-0.4-1c-1.4,1.2-1.4-0.2-3.8,0.5c-0.2-0.4,0.4-0.6-0.4-0.8l-4,1.5l2.4-0.6
			l-0.3,1.5c-2.5,1.2-3.4-0.2-5.2,0.3l1.2-0.5c-2.9,0.4-3.1-0.3-4.7-0.6c0.5,0.3,1.3,0.7,0.1,0.9c-0.9,0.1-0.5-0.5-1.3-0.7
			c-0.2,1-2.3,1.5-4.2,1.1c0-0.1,0.1-0.3,0.2-0.4c-0.5,0.2-0.7,0.4-1.6,0.2l0.5-1.1l-1.6,1.1c-1.1-0.3-2.7,0.5-2.5-0.3l0.6-0.2
			l-8.2-0.3l-0.1-0.9c-0.8,1.2-4.5-0.5-4.2,1.1c-1.6-0.8-6.1,0.6-5.2-1.1c-5.4-0.1-8.3,1.5-14.9,0.7c-2.3-1.5-8.8-1-13-1.2
			c-8.3,0.6-13.6,1.2-22,1.6c-5.1-2.1-12.7,0.7-18.1-0.5l-1.5,0.8c-3.6-1.3-9.2,0.3-14.3-1c-1.2,0.4-1.9,0.5-2.2,0.5
			c0.2,0,0.6,0.2,0.7,0.7c-1.5-0.4-4.4,0.1-4.2-0.9l0.4-0.1c0.2-1-4.4,0.5-6-0.4l0.9,1.1l-2.8-0.2l0.7-0.2
			c-12,2.5-17.4-1.1-28.6,1.2c1.5-1.2-2.2,0.6-2.4-0.7c-2.8-1.7-5.2,0.4-7.6,0.8c0,0.1,0,0.1-0.2,0.2l-4.1-0.2
			c2.4-1.7-2.9,1.4-0.7,0c-10.6-1.3-24.4,0-36.6-0.6l0.5,0.4c-3.1-0.1-7,0.4-9.3-0.2c-2.4-0.7-5.2,1.1-6.1,1.2
			c-2.3,0.7-4.4-0.4-4.1-0.6c-2.7,0.3-5.2,1.7-8.9,1c-1.3-1.4-10.5,1.4-10.6-0.2l0,0.1c-4.9-1.1-9.5,0.8-14.8-0.2
			c0,0,0.1-0.1,0.3-0.2l-10.8,4.9l3.1,5.3l9.3,4.3l25.3-0.9l20.2,1.7l49.1-0.6l3.5-1.2c9.6,2.1,22-0.3,32.4,1.2l0.2-1
			c2.9-0.1,2.7,0.6,3.5,0.8c27.3-0.2,55.3-1.6,79.9-0.3c2.4,0.7,9.6,0.3,11.4,1c8-1.3,16.4-1.3,24.4-1.1l-0.3,0.1l3.8-0.2
			c0.2,0.1,0.2,0.2,0.1,0.3c4.2-0.9,10.9,0,16.1,0.4l-0.3,0.1c30.3,0.2,58.4-1.7,88.4-0.3c14,1.7,30.2-0.6,46.2,0.8
			c2.9,1,35.3,0.3,38.2-0.2l-3.8-1.3c12.1-0.6,17.7,0.7,28-0.3l-0.6,0.3c1.5,0.3,2.4-2.5,19,0.9v0.1c0.6,0,0.6-0.3,1.7,0.1l-2.9-0.8
			c1.7-0.3,3.2-0.9,5.5-1c0.5,0.1,0.7,0.4,0.7,0.6l5.6-0.2l1.7,0.8c1.7-0.4,0.9-2.2,5.5-1.2c-1.7-1.2,2.3-0.7,1.7-1.3
			c0.2,0.1,0.8,0.4,1.2,0.6c2.7-0.1,7.9-0.5,9.2-1.1C1527-64.6,1516.3-67.1,1513.4-68.4z M1402.8-77.2l0.4-0.2
			C1403-77.4,1402.9-77.3,1402.8-77.2z M1044.9-76.2c0.1,0,0.2,0,0.2,0C1045-76.2,1044.9-76.2,1044.9-76.2z M1502.1-62.1l-0.1,0
			C1502-61.7,1502.1-61.9,1502.1-62.1z M1435.1-74.1c0.1,0,0.1,0,0.2,0l-0.8-0.6L1435.1-74.1z M1478-74.4c-1.9-0.1-2,0-1.7,0.1
			C1477-74.3,1477.6-74.3,1478-74.4z M1517.8-63.5c-1,0.1-1.8,0.1-1.8,0.1c0.6,0.1,1.1,0.3,1.7,0.4
			C1518.8-62.9,1518.4-63.2,1517.8-63.5z M1513.7-68.9l0.3-0.4C1513.4-69.2,1513.4-69,1513.7-68.9z"/>
		<path d="M654.2-77.7C653.8-77.6,654-77.7,654.2-77.7L654.2-77.7z M827.1-79.2c0.1,0,0.1,0,0.2,0
			c0.1-0.2,0.2-0.4,0.3-0.5L827.1-79.2z M854.9-77.9c0.1,0,0.1,0,0.2,0.1C855-78,855.1-78.1,854.9-77.9z M762.5-77.2
			c0.1,0,0.3-0.1,0.5-0.1C762.8-77.3,762.6-77.2,762.5-77.2z M603.2-76.6c0,0,0.1,0,0.1,0c-0.1,0-0.2-0.1-0.3-0.1L603.2-76.6z
			 M604-76.8c0,0-0.1-0.1-0.2-0.1C603.8-76.9,603.9-76.9,604-76.8z M604-76.8c0.1,0.1-0.4,0.2-0.6,0.2c0.7,0.3,1.4,0.3,2,0.2
			C605.4-76.7,604.4-76.7,604-76.8z M765.7-61.5c-0.1,0-0.3,0-0.4,0.1C765.5-61.4,765.6-61.4,765.7-61.5z M525.4-75.4l0.2-0.5
			C525.4-75.7,525.3-75.5,525.4-75.4z M880.6-77.6c0,0.2,0.1,0.3,0.1,0.4c0,0,0.1,0,0.1,0L880.6-77.6z M1010-69.7l-0.5,0.4
			c0.3,0,0.5-0.1,0.6-0.2C1010.1-69.5,1010.1-69.6,1010-69.7z M915.8-75.4c0-0.1,0.1-0.1,0.1-0.2c-0.6-0.2-2.2-0.2-4.2-0.2l-0.1,0.6
			L915.8-75.4z M1013.4-68.4c3.8,0.3,1-0.1,0.3-0.5l-0.3,0.3c-2.3-0.3-2.3-1-3.5-1.3c0,0.1,0,0.1,0.1,0.2l0.1-0.1
			c0.1,0.1,0,0.2-0.1,0.3c0,0.2-0.1,0.3-0.7,0.2l0.1-0.1c-1,0.1-2.6,0-3.3-0.1l0-0.6c-1.7,1.2-11.5-1.8-13.8-1.9
			c-2.3-0.8-5.2,0.2-8-0.2c-4.6-0.2-2.3-0.9-4.6-1.5c-2.9-0.4,0.6,0.7-0.6,0.8l-3.4-0.9c2-0.1,0.9-0.5,0.5-0.7c-3-0.1-7.7-1.3-8.6,0
			c-4-0.6-4-1.1-5.8-1.2c0.6,0.2,1.7,0.4,1.7,0.7c-1.6-0.6-0.8,0.1-0.1,0.3c-2.5,0.5-12.7-2.3-13.3-0.9v-0.3c-0.6,1,0.3,2-1.4,2.6
			l-1.1-0.5l-1.7,0.4c-1.2-0.3-0.6-0.6-0.6-0.7c-2.8,0.5-6.7-0.1-10.1-0.2l3.6,2.8c-2.9-0.6-8-2-8.6-1.1l-1.7-0.9
			c-5.7-1.8-4,0.8-6.3,0.2l-2.9-1l2.9,0c-2.9-0.5-4-0.9-6.3-1.5c0,0,0,0,0,0c0.2,0,0.3,0.1,0.3,0.2l-0.4,0c-0.3,0.5-1.8,0.9-3.9,0.8
			c-2.9-0.1-5.1,0.6-9.7-0.5l-1.1,1l-3.4-0.6v-0.8c3.4,0,9.7-0.3,14.1-0.3l0.1-0.4c-2.6,0-5.5,0.4-7.2,0.3c-0.7-0.1-2.5-0.9-1.8-1.4
			l-1.2,0.6c-8.6,0.1-8.6,0.1-17.6-0.8l0.8,0.4c-1.8,0.2-3.6,0.5-4-0.2c-5.4-0.1-11-0.7-14.5-1.7l-0.8,1c-1.1-0.1-2.8-1.5-3.4-0.2
			l-2.4,0.4c-1.6-0.1-2.5,0.5-4.3-0.1c0,0,0,0,0,0c0,0,0,0,0,0c-0.1,0-0.2-0.1-0.3-0.1c0,0,0,0.1,0,0.1c-3.5-0.4,0,0.9-4,0.3
			c-1.3-0.7-1.4,1.2-3.4,1l-2-1.4c-3.6-0.8-4.2,0.6-9.3,0.6c-2.5-0.5-3.7-1.7-2-2.8c-2.3,1.3-1,0.8-4,1.5c-0.5-0.5-0.1-0.6,0.5-1.1
			c-2.7-0.6-1.6,0.5-3.6,0.4c-0.6,1-1.3,2.6-1.9,2.7l0.8,0.3c-2.1,0.5-4.4,0.8-6.9,0.3l0.1-0.5l-2.6,0.3l-0.2-0.6l-3.7,0.2l0.5,0.2
			c-0.9,0.1-3.8,0.3-5.4,0l0.1-0.4c-4.7-1.1-8.5,0.3-13.9,0.5l0.7-0.7c-1.9-0.7-0.5,1.1-2.7,0.8l-0.1-0.9c-1.9,1.2-2.5-0.3-3.9-0.7
			l0.6,1.2l-2.5-0.2c-2.8-0.4-1.7-1.5-1.3-2.1l-1.9,0.9l-0.4-1c-1.4,1.2-1.4-0.2-3.8,0.5c-0.2-0.4,0.4-0.6-0.4-0.8l-4,1.5l2.4-0.6
			l-0.3,1.5c-2.5,1.2-3.4-0.2-5.2,0.3l1.2-0.5c-2.9,0.4-3.1-0.3-4.7-0.6c0.5,0.3,1.3,0.7,0.1,0.9c-0.9,0.1-0.5-0.5-1.3-0.7
			c-0.2,1-2.3,1.5-4.2,1.1c0-0.1,0.1-0.3,0.2-0.4c-0.5,0.2-0.7,0.4-1.6,0.2l0.5-1.1l-1.6,1.1c-1.1-0.3-2.7,0.5-2.5-0.3l0.6-0.2
			l-8.2-0.3l-0.1-0.9c-0.8,1.2-4.5-0.5-4.2,1.1c-1.6-0.8-6.1,0.6-5.2-1.1c-5.4-0.1-8.3,1.5-14.9,0.7c-2.3-1.5-8.8-1-13-1.2
			c-8.3,0.6-13.6,1.2-22,1.6c-5.1-2.1-12.7,0.7-18.1-0.5l-1.5,0.8c-3.6-1.3-9.2,0.3-14.3-1c-1.2,0.4-1.9,0.5-2.2,0.5
			c0.2,0,0.6,0.2,0.7,0.7c-1.5-0.4-4.4,0.1-4.2-0.9l0.4-0.1c0.2-1-4.4,0.5-6-0.4l0.9,1.1l-2.8-0.2l0.7-0.2
			c-12,2.5-17.4-1.1-28.6,1.2c1.5-1.2-2.2,0.6-2.4-0.7c-2.8-1.7-5.2,0.4-7.6,0.8c0,0.1,0,0.1-0.2,0.2l-4.1-0.2
			c2.4-1.7-2.9,1.4-0.7,0c-10.6-1.3-24.4,0-36.6-0.6l0.5,0.4c-3.1-0.1-7,0.4-9.3-0.2c-2.4-0.7-5.2,1.1-6.1,1.2
			c-2.3,0.7-4.4-0.4-4.1-0.6c-2.7,0.3-5.2,1.7-8.9,1c-1.3-1.4-10.5,1.4-10.6-0.2l0,0.1c-4.9-1.1-9.5,0.8-14.8-0.2
			c0,0,0.1-0.1,0.3-0.2L500-70.8l3.1,5.3l9.3,4.3l25.3-0.9l20.2,1.7l49.1-0.6l3.5-1.2c9.6,2.1,22-0.3,32.4,1.2l0.2-1
			c2.9-0.1,2.7,0.6,3.5,0.8c27.3-0.2,55.3-1.6,79.9-0.3c2.4,0.7,9.6,0.3,11.4,1c8-1.3,16.4-1.3,24.4-1.1l-0.3,0.1l3.8-0.2
			c0.2,0.1,0.2,0.2,0.1,0.3c4.2-0.9,10.9,0,16.1,0.4l-0.3,0.1c30.3,0.2,58.4-1.7,88.4-0.3c14,1.7,30.2-0.6,46.2,0.8
			c2.9,1,35.3,0.3,38.2-0.2l-3.8-1.3c12.1-0.6,17.7,0.7,28-0.3l-0.6,0.3c1.5,0.3,2.4-2.5,19,0.9v0.1c0.6,0,0.6-0.3,1.7,0.1l-2.9-0.8
			c1.7-0.3,3.2-0.9,5.5-1c0.5,0.1,0.7,0.4,0.7,0.6l5.6-0.2l1.7,0.8c1.7-0.4,0.9-2.2,5.5-1.2c-1.7-1.2,2.3-0.7,1.7-1.3
			c0.2,0.1,0.8,0.4,1.2,0.6c2.7-0.1,7.9-0.5,9.2-1.1C1027-64.6,1016.3-67.1,1013.4-68.4z M902.8-77.2l0.4-0.2
			C903-77.4,902.9-77.3,902.8-77.2z M544.9-76.2c0.1,0,0.2,0,0.2,0C545-76.2,544.9-76.2,544.9-76.2z M1002.1-62.1l-0.1,0
			C1002-61.7,1002.1-61.9,1002.1-62.1z M935.1-74.1c0.1,0,0.1,0,0.2,0l-0.8-0.6L935.1-74.1z M978-74.4c-1.9-0.1-2,0-1.7,0.1
			C977-74.3,977.6-74.3,978-74.4z M1017.8-63.5c-1,0.1-1.8,0.1-1.8,0.1c0.6,0.1,1.1,0.3,1.7,0.4
			C1018.8-62.9,1018.4-63.2,1017.8-63.5z M1013.7-68.9l0.3-0.4C1013.4-69.2,1013.4-69,1013.7-68.9z"/>
		<path d="M154.2-77.7C153.8-77.6,154-77.7,154.2-77.7L154.2-77.7z M327.1-79.2c0.1,0,0.1,0,0.2,0
			c0.1-0.2,0.2-0.4,0.3-0.5L327.1-79.2z M354.9-77.9c0.1,0,0.1,0,0.2,0.1C355-78,355.1-78.1,354.9-77.9z M262.5-77.2
			c0.1,0,0.3-0.1,0.5-0.1C262.8-77.3,262.6-77.2,262.5-77.2z M103.2-76.6c0,0,0.1,0,0.1,0c-0.1,0-0.2-0.1-0.3-0.1L103.2-76.6z
			 M104-76.8c0,0-0.1-0.1-0.2-0.1C103.8-76.9,103.9-76.9,104-76.8z M104-76.8c0.1,0.1-0.4,0.2-0.6,0.2c0.7,0.3,1.4,0.3,2,0.2
			C105.4-76.7,104.4-76.7,104-76.8z M265.7-61.5c-0.1,0-0.3,0-0.4,0.1C265.5-61.4,265.6-61.4,265.7-61.5z M25.4-75.4l0.2-0.5
			C25.4-75.7,25.3-75.5,25.4-75.4z M380.6-77.6c0,0.2,0.1,0.3,0.1,0.4c0,0,0.1,0,0.1,0L380.6-77.6z M510-69.7l-0.5,0.4
			c0.3,0,0.5-0.1,0.6-0.2C510.1-69.5,510.1-69.6,510-69.7z M415.8-75.4c0-0.1,0.1-0.1,0.1-0.2c-0.6-0.2-2.2-0.2-4.2-0.2l-0.1,0.6
			L415.8-75.4z M513.4-68.4c3.8,0.3,1-0.1,0.3-0.5l-0.3,0.3c-2.3-0.3-2.3-1-3.5-1.3c0,0.1,0,0.1,0.1,0.2l0.1-0.1
			c0.1,0.1,0,0.2-0.1,0.3c0,0.2-0.1,0.3-0.7,0.2l0.1-0.1c-1,0.1-2.6,0-3.3-0.1l0-0.6c-1.7,1.2-11.5-1.8-13.8-1.9
			c-2.3-0.8-5.2,0.2-8-0.2c-4.6-0.2-2.3-0.9-4.6-1.5c-2.9-0.4,0.6,0.7-0.6,0.8l-3.4-0.9c2-0.1,0.9-0.5,0.5-0.7c-3-0.1-7.7-1.3-8.6,0
			c-4-0.6-4-1.1-5.8-1.2c0.6,0.2,1.7,0.4,1.7,0.7c-1.6-0.6-0.8,0.1-0.1,0.3c-2.5,0.5-12.7-2.3-13.3-0.9v-0.3c-0.6,1,0.3,2-1.4,2.6
			l-1.1-0.5l-1.7,0.4c-1.2-0.3-0.6-0.6-0.6-0.7c-2.8,0.5-6.7-0.1-10.1-0.2l3.6,2.8c-2.9-0.6-8-2-8.6-1.1l-1.7-0.9
			c-5.7-1.8-4,0.8-6.3,0.2l-2.9-1l2.9,0c-2.9-0.5-4-0.9-6.3-1.5c0,0,0,0,0,0c0.2,0,0.3,0.1,0.3,0.2l-0.4,0c-0.3,0.5-1.8,0.9-3.9,0.8
			c-2.9-0.1-5.1,0.6-9.7-0.5l-1.1,1l-3.4-0.6v-0.8c3.4,0,9.7-0.3,14.1-0.3l0.1-0.4c-2.6,0-5.5,0.4-7.2,0.3c-0.7-0.1-2.5-0.9-1.8-1.4
			l-1.2,0.6c-8.6,0.1-8.6,0.1-17.6-0.8l0.8,0.4c-1.8,0.2-3.6,0.5-4-0.2c-5.4-0.1-11-0.7-14.5-1.7l-0.8,1c-1.1-0.1-2.8-1.5-3.4-0.2
			l-2.4,0.4c-1.6-0.1-2.5,0.5-4.3-0.1c0,0,0,0,0,0c0,0,0,0,0,0c-0.1,0-0.2-0.1-0.3-0.1c0,0,0,0.1,0,0.1c-3.5-0.4,0,0.9-4,0.3
			c-1.3-0.7-1.4,1.2-3.4,1l-2-1.4c-3.6-0.8-4.2,0.6-9.3,0.6c-2.5-0.5-3.7-1.7-2-2.8c-2.3,1.3-1,0.8-4,1.5c-0.5-0.5-0.1-0.6,0.5-1.1
			c-2.7-0.6-1.6,0.5-3.6,0.4c-0.6,1-1.3,2.6-1.9,2.7l0.8,0.3c-2.1,0.5-4.4,0.8-6.9,0.3l0.1-0.5l-2.6,0.3l-0.2-0.6l-3.7,0.2l0.5,0.2
			c-0.9,0.1-3.8,0.3-5.4,0l0.1-0.4c-4.7-1.1-8.5,0.3-13.9,0.5l0.7-0.7c-1.9-0.7-0.5,1.1-2.7,0.8l-0.1-0.9c-1.9,1.2-2.5-0.3-3.9-0.7
			l0.6,1.2l-2.5-0.2c-2.8-0.4-1.7-1.5-1.3-2.1l-1.9,0.9l-0.4-1c-1.4,1.2-1.4-0.2-3.8,0.5c-0.2-0.4,0.4-0.6-0.4-0.8l-4,1.5l2.4-0.6
			l-0.3,1.5c-2.5,1.2-3.4-0.2-5.2,0.3l1.2-0.5c-2.9,0.4-3.1-0.3-4.7-0.6c0.5,0.3,1.3,0.7,0.1,0.9c-0.9,0.1-0.5-0.5-1.3-0.7
			c-0.2,1-2.3,1.5-4.2,1.1c0-0.1,0.1-0.3,0.2-0.4c-0.5,0.2-0.7,0.4-1.6,0.2l0.5-1.1l-1.6,1.1c-1.1-0.3-2.7,0.5-2.5-0.3l0.6-0.2
			l-8.2-0.3l-0.1-0.9c-0.8,1.2-4.5-0.5-4.2,1.1c-1.6-0.8-6.1,0.6-5.2-1.1c-5.4-0.1-8.3,1.5-14.9,0.7c-2.3-1.5-8.8-1-13-1.2
			c-8.3,0.6-13.6,1.2-22,1.6c-5.1-2.1-12.7,0.7-18.1-0.5l-1.5,0.8c-3.6-1.3-9.2,0.3-14.3-1c-1.2,0.4-1.9,0.5-2.2,0.5
			c0.2,0,0.6,0.2,0.7,0.7c-1.5-0.4-4.4,0.1-4.2-0.9l0.4-0.1c0.2-1-4.4,0.5-6-0.4l0.9,1.1l-2.8-0.2l0.7-0.2
			c-12,2.5-17.4-1.1-28.6,1.2c1.5-1.2-2.2,0.6-2.4-0.7c-2.8-1.7-5.2,0.4-7.6,0.8c0,0.1,0,0.1-0.2,0.2l-4.1-0.2
			c2.4-1.7-2.9,1.4-0.7,0c-10.6-1.3-24.4,0-36.6-0.6l0.5,0.4c-3.1-0.1-7,0.4-9.3-0.2c-2.4-0.7-5.2,1.1-6.1,1.2
			c-2.3,0.7-4.4-0.4-4.1-0.6c-2.7,0.3-5.2,1.7-8.9,1c-1.3-1.4-10.5,1.4-10.6-0.2l0,0.1c-4.9-1.1-9.5,0.8-14.8-0.2
			c0,0,0.1-0.1,0.3-0.2L0-70.8l3.1,5.3l9.3,4.3l25.3-0.9l20.2,1.7l49.1-0.6l3.5-1.2c9.6,2.1,22-0.3,32.4,1.2l0.2-1
			c2.9-0.1,2.7,0.6,3.5,0.8c27.3-0.2,55.3-1.6,79.9-0.3c2.4,0.7,9.6,0.3,11.4,1c8-1.3,16.4-1.3,24.4-1.1l-0.3,0.1l3.8-0.2
			c0.2,0.1,0.2,0.2,0.1,0.3c4.2-0.9,10.9,0,16.1,0.4l-0.3,0.1c30.3,0.2,58.4-1.7,88.4-0.3c14,1.7,30.2-0.6,46.2,0.8
			c2.9,1,35.3,0.3,38.2-0.2l-3.8-1.3c12.1-0.6,17.7,0.7,28-0.3l-0.6,0.3c1.5,0.3,2.4-2.5,19,0.9v0.1c0.6,0,0.6-0.3,1.7,0.1l-2.9-0.8
			c1.7-0.3,3.2-0.9,5.5-1c0.5,0.1,0.7,0.4,0.7,0.6l5.6-0.2l1.7,0.8c1.7-0.4,0.9-2.2,5.5-1.2c-1.7-1.2,2.3-0.7,1.7-1.3
			c0.2,0.1,0.8,0.4,1.2,0.6c2.7-0.1,7.9-0.5,9.2-1.1C527-64.6,516.3-67.1,513.4-68.4z M402.8-77.2l0.4-0.2
			C403-77.4,402.9-77.3,402.8-77.2z M44.9-76.2c0.1,0,0.2,0,0.2,0C45-76.2,44.9-76.2,44.9-76.2z M502.1-62.1l-0.1,0
			C502-61.7,502.1-61.9,502.1-62.1z M435.1-74.1c0.1,0,0.1,0,0.2,0l-0.8-0.6L435.1-74.1z M478-74.4c-1.9-0.1-2,0-1.7,0.1
			C477-74.3,477.6-74.3,478-74.4z M517.8-63.5c-1,0.1-1.8,0.1-1.8,0.1c0.6,0.1,1.1,0.3,1.7,0.4C518.8-62.9,518.4-63.2,517.8-63.5z
			 M513.7-68.9l0.3-0.4C513.4-69.2,513.4-69,513.7-68.9z"/>
		<path d="M1154.2-97.7C1153.8-97.6,1154-97.7,1154.2-97.7L1154.2-97.7z M1327.1-99.2
			c0.1,0,0.1,0,0.2,0c0.1-0.2,0.2-0.4,0.3-0.5L1327.1-99.2z M1354.9-97.9c0.1,0,0.1,0,0.2,0.1C1355-98,1355.1-98.1,1354.9-97.9z
			 M1262.5-97.2c0.1,0,0.3-0.1,0.5-0.1C1262.8-97.3,1262.6-97.2,1262.5-97.2z M1103.2-96.6c0,0,0.1,0,0.1,0c-0.1,0-0.2-0.1-0.3-0.1
			L1103.2-96.6z M1104-96.8c0,0-0.1-0.1-0.2-0.1C1103.8-96.9,1103.9-96.9,1104-96.8z M1104-96.8c0.1,0.1-0.4,0.2-0.6,0.2
			c0.7,0.3,1.4,0.3,2,0.2C1105.4-96.7,1104.4-96.7,1104-96.8z M1265.7-81.5c-0.1,0-0.3,0-0.4,0.1
			C1265.5-81.4,1265.6-81.4,1265.7-81.5z M1025.4-95.4l0.2-0.5C1025.4-95.7,1025.3-95.5,1025.4-95.4z M1380.6-97.6
			c0,0.2,0.1,0.3,0.1,0.4c0,0,0.1,0,0.1,0L1380.6-97.6z M1510-89.7l-0.5,0.4c0.3,0,0.5-0.1,0.6-0.2
			C1510.1-89.5,1510.1-89.6,1510-89.7z M1415.8-95.4c0-0.1,0.1-0.1,0.1-0.2c-0.6-0.2-2.2-0.2-4.2-0.2l-0.1,0.6L1415.8-95.4z
			 M1513.4-88.4c3.8,0.3,1-0.1,0.3-0.5l-0.3,0.3c-2.3-0.3-2.3-1-3.5-1.3c0,0.1,0,0.1,0.1,0.2l0.1-0.1c0.1,0.1,0,0.2-0.1,0.3
			c0,0.2-0.1,0.3-0.7,0.2l0.1-0.1c-1,0.1-2.6,0-3.3-0.1l0-0.6c-1.7,1.2-11.5-1.8-13.8-1.9c-2.3-0.8-5.2,0.2-8-0.2
			c-4.6-0.2-2.3-0.9-4.6-1.5c-2.9-0.4,0.6,0.7-0.6,0.8l-3.4-0.9c2-0.1,0.9-0.5,0.5-0.7c-3-0.1-7.7-1.3-8.6,0c-4-0.6-4-1.1-5.8-1.2
			c0.6,0.2,1.7,0.4,1.7,0.7c-1.6-0.6-0.8,0.1-0.1,0.3c-2.5,0.5-12.7-2.3-13.3-0.9v-0.3c-0.6,1,0.3,2-1.4,2.6l-1.1-0.5l-1.7,0.4
			c-1.2-0.3-0.6-0.6-0.6-0.7c-2.8,0.5-6.7-0.1-10.1-0.2l3.6,2.8c-2.9-0.6-8-2-8.6-1.1l-1.7-0.9c-5.7-1.8-4,0.8-6.3,0.2l-2.9-1l2.9,0
			c-2.9-0.5-4-0.9-6.3-1.5c0,0,0,0,0,0c0.2,0,0.3,0.1,0.3,0.2l-0.4,0c-0.3,0.5-1.8,0.9-3.9,0.8c-2.9-0.1-5.1,0.6-9.7-0.5l-1.1,1
			l-3.4-0.6v-0.8c3.4,0,9.7-0.3,14.1-0.3l0.1-0.4c-2.6,0-5.5,0.4-7.2,0.3c-0.7-0.1-2.5-0.9-1.8-1.4l-1.2,0.6
			c-8.6,0.1-8.6,0.1-17.6-0.8l0.8,0.4c-1.8,0.2-3.6,0.5-4-0.2c-5.4-0.1-11-0.7-14.5-1.7l-0.8,1c-1.1-0.1-2.8-1.5-3.4-0.2l-2.4,0.4
			c-1.6-0.1-2.5,0.5-4.3-0.1c0,0,0,0,0,0c0,0,0,0,0,0c-0.1,0-0.2-0.1-0.3-0.1c0,0,0,0.1,0,0.1c-3.5-0.4,0,0.9-4,0.3
			c-1.3-0.7-1.4,1.2-3.4,1l-2-1.4c-3.6-0.8-4.2,0.6-9.3,0.6c-2.5-0.5-3.7-1.7-2-2.8c-2.3,1.3-1,0.8-4,1.5c-0.5-0.5-0.1-0.6,0.5-1.1
			c-2.7-0.6-1.6,0.5-3.6,0.4c-0.6,1-1.3,2.6-1.9,2.7l0.8,0.3c-2.1,0.5-4.4,0.8-6.9,0.3l0.1-0.5l-2.6,0.3l-0.2-0.6l-3.7,0.2l0.5,0.2
			c-0.9,0.1-3.8,0.3-5.4,0l0.1-0.4c-4.7-1.1-8.5,0.3-13.9,0.5l0.7-0.7c-1.9-0.7-0.5,1.1-2.7,0.8l-0.1-0.9c-1.9,1.2-2.5-0.3-3.9-0.7
			l0.6,1.2l-2.5-0.2c-2.8-0.4-1.7-1.5-1.3-2.1l-1.9,0.9l-0.4-1c-1.4,1.2-1.4-0.2-3.8,0.5c-0.2-0.4,0.4-0.6-0.4-0.8l-4,1.5l2.4-0.6
			l-0.3,1.5c-2.5,1.2-3.4-0.2-5.2,0.3l1.2-0.5c-2.9,0.4-3.1-0.3-4.7-0.6c0.5,0.3,1.3,0.7,0.1,0.9c-0.9,0.1-0.5-0.5-1.3-0.7
			c-0.2,1-2.3,1.5-4.2,1.1c0-0.1,0.1-0.3,0.2-0.4c-0.5,0.2-0.7,0.4-1.6,0.2l0.5-1.1l-1.6,1.1c-1.1-0.3-2.7,0.5-2.5-0.3l0.6-0.2
			l-8.2-0.3l-0.1-0.9c-0.8,1.2-4.5-0.5-4.2,1.1c-1.6-0.8-6.1,0.6-5.2-1.1c-5.4-0.1-8.3,1.5-14.9,0.7c-2.3-1.5-8.8-1-13-1.2
			c-8.3,0.6-13.6,1.2-22,1.6c-5.1-2.1-12.7,0.7-18.1-0.5l-1.5,0.8c-3.6-1.3-9.2,0.3-14.3-1c-1.2,0.4-1.9,0.5-2.2,0.5
			c0.2,0,0.6,0.2,0.7,0.7c-1.5-0.4-4.4,0.1-4.2-0.9l0.4-0.1c0.2-1-4.4,0.5-6-0.4l0.9,1.1l-2.8-0.2l0.7-0.2
			c-12,2.5-17.4-1.1-28.6,1.2c1.5-1.2-2.2,0.6-2.4-0.7c-2.8-1.7-5.2,0.4-7.6,0.8c0,0.1,0,0.1-0.2,0.2l-4.1-0.2
			c2.4-1.7-2.9,1.4-0.7,0c-10.6-1.3-24.4,0-36.6-0.6l0.5,0.4c-3.1-0.1-7,0.4-9.3-0.2c-2.4-0.7-5.2,1.1-6.1,1.2
			c-2.3,0.7-4.4-0.4-4.1-0.6c-2.7,0.3-5.2,1.7-8.9,1c-1.3-1.4-10.5,1.4-10.6-0.2l0,0.1c-4.9-1.1-9.5,0.8-14.8-0.2
			c0,0,0.1-0.1,0.3-0.2l-10.8,4.9l3.1,5.3l9.3,4.3l25.3-0.9l20.2,1.7l49.1-0.6l3.5-1.2c9.6,2.1,22-0.3,32.4,1.2l0.2-1
			c2.9-0.1,2.7,0.6,3.5,0.8c27.3-0.2,55.3-1.6,79.9-0.3c2.4,0.7,9.6,0.3,11.4,1c8-1.3,16.4-1.3,24.4-1.1l-0.3,0.1l3.8-0.2
			c0.2,0.1,0.2,0.2,0.1,0.3c4.2-0.9,10.9,0,16.1,0.4l-0.3,0.1c30.3,0.2,58.4-1.7,88.4-0.3c14,1.7,30.2-0.6,46.2,0.8
			c2.9,1,35.3,0.3,38.2-0.2l-3.8-1.3c12.1-0.6,17.7,0.7,28-0.3l-0.6,0.3c1.5,0.3,2.4-2.5,19,0.9v0.1c0.6,0,0.6-0.3,1.7,0.1l-2.9-0.8
			c1.7-0.3,3.2-0.9,5.5-1c0.5,0.1,0.7,0.4,0.7,0.6l5.6-0.2l1.7,0.8c1.7-0.4,0.9-2.2,5.5-1.2c-1.7-1.2,2.3-0.7,1.7-1.3
			c0.2,0.1,0.8,0.4,1.2,0.6c2.7-0.1,7.9-0.5,9.2-1.1C1527-84.6,1516.3-87.1,1513.4-88.4z M1402.8-97.2l0.4-0.2
			C1403-97.4,1402.9-97.3,1402.8-97.2z M1044.9-96.2c0.1,0,0.2,0,0.2,0C1045-96.2,1044.9-96.2,1044.9-96.2z M1502.1-82.1l-0.1,0
			C1502-81.7,1502.1-81.9,1502.1-82.1z M1435.1-94.1c0.1,0,0.1,0,0.2,0l-0.8-0.6L1435.1-94.1z M1478-94.4c-1.9-0.1-2,0-1.7,0.1
			C1477-94.3,1477.6-94.3,1478-94.4z M1517.8-83.5c-1,0.1-1.8,0.1-1.8,0.1c0.6,0.1,1.1,0.3,1.7,0.4
			C1518.8-82.9,1518.4-83.2,1517.8-83.5z M1513.7-88.9l0.3-0.4C1513.4-89.2,1513.4-89,1513.7-88.9z"/>
		<path d="M654.2-97.7C653.8-97.6,654-97.7,654.2-97.7L654.2-97.7z M827.1-99.2c0.1,0,0.1,0,0.2,0
			c0.1-0.2,0.2-0.4,0.3-0.5L827.1-99.2z M854.9-97.9c0.1,0,0.1,0,0.2,0.1C855-98,855.1-98.1,854.9-97.9z M762.5-97.2
			c0.1,0,0.3-0.1,0.5-0.1C762.8-97.3,762.6-97.2,762.5-97.2z M603.2-96.6c0,0,0.1,0,0.1,0c-0.1,0-0.2-0.1-0.3-0.1L603.2-96.6z
			 M604-96.8c0,0-0.1-0.1-0.2-0.1C603.8-96.9,603.9-96.9,604-96.8z M604-96.8c0.1,0.1-0.4,0.2-0.6,0.2c0.7,0.3,1.4,0.3,2,0.2
			C605.4-96.7,604.4-96.7,604-96.8z M765.7-81.5c-0.1,0-0.3,0-0.4,0.1C765.5-81.4,765.6-81.4,765.7-81.5z M525.4-95.4l0.2-0.5
			C525.4-95.7,525.3-95.5,525.4-95.4z M880.6-97.6c0,0.2,0.1,0.3,0.1,0.4c0,0,0.1,0,0.1,0L880.6-97.6z M1010-89.7l-0.5,0.4
			c0.3,0,0.5-0.1,0.6-0.2C1010.1-89.5,1010.1-89.6,1010-89.7z M915.8-95.4c0-0.1,0.1-0.1,0.1-0.2c-0.6-0.2-2.2-0.2-4.2-0.2l-0.1,0.6
			L915.8-95.4z M1013.4-88.4c3.8,0.3,1-0.1,0.3-0.5l-0.3,0.3c-2.3-0.3-2.3-1-3.5-1.3c0,0.1,0,0.1,0.1,0.2l0.1-0.1
			c0.1,0.1,0,0.2-0.1,0.3c0,0.2-0.1,0.3-0.7,0.2l0.1-0.1c-1,0.1-2.6,0-3.3-0.1l0-0.6c-1.7,1.2-11.5-1.8-13.8-1.9
			c-2.3-0.8-5.2,0.2-8-0.2c-4.6-0.2-2.3-0.9-4.6-1.5c-2.9-0.4,0.6,0.7-0.6,0.8l-3.4-0.9c2-0.1,0.9-0.5,0.5-0.7c-3-0.1-7.7-1.3-8.6,0
			c-4-0.6-4-1.1-5.8-1.2c0.6,0.2,1.7,0.4,1.7,0.7c-1.6-0.6-0.8,0.1-0.1,0.3c-2.5,0.5-12.7-2.3-13.3-0.9v-0.3c-0.6,1,0.3,2-1.4,2.6
			l-1.1-0.5l-1.7,0.4c-1.2-0.3-0.6-0.6-0.6-0.7c-2.8,0.5-6.7-0.1-10.1-0.2l3.6,2.8c-2.9-0.6-8-2-8.6-1.1l-1.7-0.9
			c-5.7-1.8-4,0.8-6.3,0.2l-2.9-1l2.9,0c-2.9-0.5-4-0.9-6.3-1.5c0,0,0,0,0,0c0.2,0,0.3,0.1,0.3,0.2l-0.4,0c-0.3,0.5-1.8,0.9-3.9,0.8
			c-2.9-0.1-5.1,0.6-9.7-0.5l-1.1,1l-3.4-0.6v-0.8c3.4,0,9.7-0.3,14.1-0.3l0.1-0.4c-2.6,0-5.5,0.4-7.2,0.3c-0.7-0.1-2.5-0.9-1.8-1.4
			l-1.2,0.6c-8.6,0.1-8.6,0.1-17.6-0.8l0.8,0.4c-1.8,0.2-3.6,0.5-4-0.2c-5.4-0.1-11-0.7-14.5-1.7l-0.8,1c-1.1-0.1-2.8-1.5-3.4-0.2
			l-2.4,0.4c-1.6-0.1-2.5,0.5-4.3-0.1c0,0,0,0,0,0c0,0,0,0,0,0c-0.1,0-0.2-0.1-0.3-0.1c0,0,0,0.1,0,0.1c-3.5-0.4,0,0.9-4,0.3
			c-1.3-0.7-1.4,1.2-3.4,1l-2-1.4c-3.6-0.8-4.2,0.6-9.3,0.6c-2.5-0.5-3.7-1.7-2-2.8c-2.3,1.3-1,0.8-4,1.5c-0.5-0.5-0.1-0.6,0.5-1.1
			c-2.7-0.6-1.6,0.5-3.6,0.4c-0.6,1-1.3,2.6-1.9,2.7l0.8,0.3c-2.1,0.5-4.4,0.8-6.9,0.3l0.1-0.5l-2.6,0.3l-0.2-0.6l-3.7,0.2l0.5,0.2
			c-0.9,0.1-3.8,0.3-5.4,0l0.1-0.4c-4.7-1.1-8.5,0.3-13.9,0.5l0.7-0.7c-1.9-0.7-0.5,1.1-2.7,0.8l-0.1-0.9c-1.9,1.2-2.5-0.3-3.9-0.7
			l0.6,1.2l-2.5-0.2c-2.8-0.4-1.7-1.5-1.3-2.1l-1.9,0.9l-0.4-1c-1.4,1.2-1.4-0.2-3.8,0.5c-0.2-0.4,0.4-0.6-0.4-0.8l-4,1.5l2.4-0.6
			l-0.3,1.5c-2.5,1.2-3.4-0.2-5.2,0.3l1.2-0.5c-2.9,0.4-3.1-0.3-4.7-0.6c0.5,0.3,1.3,0.7,0.1,0.9c-0.9,0.1-0.5-0.5-1.3-0.7
			c-0.2,1-2.3,1.5-4.2,1.1c0-0.1,0.1-0.3,0.2-0.4c-0.5,0.2-0.7,0.4-1.6,0.2l0.5-1.1l-1.6,1.1c-1.1-0.3-2.7,0.5-2.5-0.3l0.6-0.2
			l-8.2-0.3l-0.1-0.9c-0.8,1.2-4.5-0.5-4.2,1.1c-1.6-0.8-6.1,0.6-5.2-1.1c-5.4-0.1-8.3,1.5-14.9,0.7c-2.3-1.5-8.8-1-13-1.2
			c-8.3,0.6-13.6,1.2-22,1.6c-5.1-2.1-12.7,0.7-18.1-0.5l-1.5,0.8c-3.6-1.3-9.2,0.3-14.3-1c-1.2,0.4-1.9,0.5-2.2,0.5
			c0.2,0,0.6,0.2,0.7,0.7c-1.5-0.4-4.4,0.1-4.2-0.9l0.4-0.1c0.2-1-4.4,0.5-6-0.4l0.9,1.1l-2.8-0.2l0.7-0.2
			c-12,2.5-17.4-1.1-28.6,1.2c1.5-1.2-2.2,0.6-2.4-0.7c-2.8-1.7-5.2,0.4-7.6,0.8c0,0.1,0,0.1-0.2,0.2l-4.1-0.2
			c2.4-1.7-2.9,1.4-0.7,0c-10.6-1.3-24.4,0-36.6-0.6l0.5,0.4c-3.1-0.1-7,0.4-9.3-0.2c-2.4-0.7-5.2,1.1-6.1,1.2
			c-2.3,0.7-4.4-0.4-4.1-0.6c-2.7,0.3-5.2,1.7-8.9,1c-1.3-1.4-10.5,1.4-10.6-0.2l0,0.1c-4.9-1.1-9.5,0.8-14.8-0.2
			c0,0,0.1-0.1,0.3-0.2L500-90.8l3.1,5.3l9.3,4.3l25.3-0.9l20.2,1.7l49.1-0.6l3.5-1.2c9.6,2.1,22-0.3,32.4,1.2l0.2-1
			c2.9-0.1,2.7,0.6,3.5,0.8c27.3-0.2,55.3-1.6,79.9-0.3c2.4,0.7,9.6,0.3,11.4,1c8-1.3,16.4-1.3,24.4-1.1l-0.3,0.1l3.8-0.2
			c0.2,0.1,0.2,0.2,0.1,0.3c4.2-0.9,10.9,0,16.1,0.4l-0.3,0.1c30.3,0.2,58.4-1.7,88.4-0.3c14,1.7,30.2-0.6,46.2,0.8
			c2.9,1,35.3,0.3,38.2-0.2l-3.8-1.3c12.1-0.6,17.7,0.7,28-0.3l-0.6,0.3c1.5,0.3,2.4-2.5,19,0.9v0.1c0.6,0,0.6-0.3,1.7,0.1l-2.9-0.8
			c1.7-0.3,3.2-0.9,5.5-1c0.5,0.1,0.7,0.4,0.7,0.6l5.6-0.2l1.7,0.8c1.7-0.4,0.9-2.2,5.5-1.2c-1.7-1.2,2.3-0.7,1.7-1.3
			c0.2,0.1,0.8,0.4,1.2,0.6c2.7-0.1,7.9-0.5,9.2-1.1C1027-84.6,1016.3-87.1,1013.4-88.4z M902.8-97.2l0.4-0.2
			C903-97.4,902.9-97.3,902.8-97.2z M544.9-96.2c0.1,0,0.2,0,0.2,0C545-96.2,544.9-96.2,544.9-96.2z M1002.1-82.1l-0.1,0
			C1002-81.7,1002.1-81.9,1002.1-82.1z M935.1-94.1c0.1,0,0.1,0,0.2,0l-0.8-0.6L935.1-94.1z M978-94.4c-1.9-0.1-2,0-1.7,0.1
			C977-94.3,977.6-94.3,978-94.4z M1017.8-83.5c-1,0.1-1.8,0.1-1.8,0.1c0.6,0.1,1.1,0.3,1.7,0.4
			C1018.8-82.9,1018.4-83.2,1017.8-83.5z M1013.7-88.9l0.3-0.4C1013.4-89.2,1013.4-89,1013.7-88.9z"/>
		<path d="M154.2-97.7C153.8-97.6,154-97.7,154.2-97.7L154.2-97.7z M327.1-99.2c0.1,0,0.1,0,0.2,0
			c0.1-0.2,0.2-0.4,0.3-0.5L327.1-99.2z M354.9-97.9c0.1,0,0.1,0,0.2,0.1C355-98,355.1-98.1,354.9-97.9z M262.5-97.2
			c0.1,0,0.3-0.1,0.5-0.1C262.8-97.3,262.6-97.2,262.5-97.2z M103.2-96.6c0,0,0.1,0,0.1,0c-0.1,0-0.2-0.1-0.3-0.1L103.2-96.6z
			 M104-96.8c0,0-0.1-0.1-0.2-0.1C103.8-96.9,103.9-96.9,104-96.8z M104-96.8c0.1,0.1-0.4,0.2-0.6,0.2c0.7,0.3,1.4,0.3,2,0.2
			C105.4-96.7,104.4-96.7,104-96.8z M265.7-81.5c-0.1,0-0.3,0-0.4,0.1C265.5-81.4,265.6-81.4,265.7-81.5z M25.4-95.4l0.2-0.5
			C25.4-95.7,25.3-95.5,25.4-95.4z M380.6-97.6c0,0.2,0.1,0.3,0.1,0.4c0,0,0.1,0,0.1,0L380.6-97.6z M510-89.7l-0.5,0.4
			c0.3,0,0.5-0.1,0.6-0.2C510.1-89.5,510.1-89.6,510-89.7z M415.8-95.4c0-0.1,0.1-0.1,0.1-0.2c-0.6-0.2-2.2-0.2-4.2-0.2l-0.1,0.6
			L415.8-95.4z M513.4-88.4c3.8,0.3,1-0.1,0.3-0.5l-0.3,0.3c-2.3-0.3-2.3-1-3.5-1.3c0,0.1,0,0.1,0.1,0.2l0.1-0.1
			c0.1,0.1,0,0.2-0.1,0.3c0,0.2-0.1,0.3-0.7,0.2l0.1-0.1c-1,0.1-2.6,0-3.3-0.1l0-0.6c-1.7,1.2-11.5-1.8-13.8-1.9
			c-2.3-0.8-5.2,0.2-8-0.2c-4.6-0.2-2.3-0.9-4.6-1.5c-2.9-0.4,0.6,0.7-0.6,0.8l-3.4-0.9c2-0.1,0.9-0.5,0.5-0.7c-3-0.1-7.7-1.3-8.6,0
			c-4-0.6-4-1.1-5.8-1.2c0.6,0.2,1.7,0.4,1.7,0.7c-1.6-0.6-0.8,0.1-0.1,0.3c-2.5,0.5-12.7-2.3-13.3-0.9v-0.3c-0.6,1,0.3,2-1.4,2.6
			l-1.1-0.5l-1.7,0.4c-1.2-0.3-0.6-0.6-0.6-0.7c-2.8,0.5-6.7-0.1-10.1-0.2l3.6,2.8c-2.9-0.6-8-2-8.6-1.1l-1.7-0.9
			c-5.7-1.8-4,0.8-6.3,0.2l-2.9-1l2.9,0c-2.9-0.5-4-0.9-6.3-1.5c0,0,0,0,0,0c0.2,0,0.3,0.1,0.3,0.2l-0.4,0c-0.3,0.5-1.8,0.9-3.9,0.8
			c-2.9-0.1-5.1,0.6-9.7-0.5l-1.1,1l-3.4-0.6v-0.8c3.4,0,9.7-0.3,14.1-0.3l0.1-0.4c-2.6,0-5.5,0.4-7.2,0.3c-0.7-0.1-2.5-0.9-1.8-1.4
			l-1.2,0.6c-8.6,0.1-8.6,0.1-17.6-0.8l0.8,0.4c-1.8,0.2-3.6,0.5-4-0.2c-5.4-0.1-11-0.7-14.5-1.7l-0.8,1c-1.1-0.1-2.8-1.5-3.4-0.2
			l-2.4,0.4c-1.6-0.1-2.5,0.5-4.3-0.1c0,0,0,0,0,0c0,0,0,0,0,0c-0.1,0-0.2-0.1-0.3-0.1c0,0,0,0.1,0,0.1c-3.5-0.4,0,0.9-4,0.3
			c-1.3-0.7-1.4,1.2-3.4,1l-2-1.4c-3.6-0.8-4.2,0.6-9.3,0.6c-2.5-0.5-3.7-1.7-2-2.8c-2.3,1.3-1,0.8-4,1.5c-0.5-0.5-0.1-0.6,0.5-1.1
			c-2.7-0.6-1.6,0.5-3.6,0.4c-0.6,1-1.3,2.6-1.9,2.7l0.8,0.3c-2.1,0.5-4.4,0.8-6.9,0.3l0.1-0.5l-2.6,0.3l-0.2-0.6l-3.7,0.2l0.5,0.2
			c-0.9,0.1-3.8,0.3-5.4,0l0.1-0.4c-4.7-1.1-8.5,0.3-13.9,0.5l0.7-0.7c-1.9-0.7-0.5,1.1-2.7,0.8l-0.1-0.9c-1.9,1.2-2.5-0.3-3.9-0.7
			l0.6,1.2l-2.5-0.2c-2.8-0.4-1.7-1.5-1.3-2.1l-1.9,0.9l-0.4-1c-1.4,1.2-1.4-0.2-3.8,0.5c-0.2-0.4,0.4-0.6-0.4-0.8l-4,1.5l2.4-0.6
			l-0.3,1.5c-2.5,1.2-3.4-0.2-5.2,0.3l1.2-0.5c-2.9,0.4-3.1-0.3-4.7-0.6c0.5,0.3,1.3,0.7,0.1,0.9c-0.9,0.1-0.5-0.5-1.3-0.7
			c-0.2,1-2.3,1.5-4.2,1.1c0-0.1,0.1-0.3,0.2-0.4c-0.5,0.2-0.7,0.4-1.6,0.2l0.5-1.1l-1.6,1.1c-1.1-0.3-2.7,0.5-2.5-0.3l0.6-0.2
			l-8.2-0.3l-0.1-0.9c-0.8,1.2-4.5-0.5-4.2,1.1c-1.6-0.8-6.1,0.6-5.2-1.1c-5.4-0.1-8.3,1.5-14.9,0.7c-2.3-1.5-8.8-1-13-1.2
			c-8.3,0.6-13.6,1.2-22,1.6c-5.1-2.1-12.7,0.7-18.1-0.5l-1.5,0.8c-3.6-1.3-9.2,0.3-14.3-1c-1.2,0.4-1.9,0.5-2.2,0.5
			c0.2,0,0.6,0.2,0.7,0.7c-1.5-0.4-4.4,0.1-4.2-0.9l0.4-0.1c0.2-1-4.4,0.5-6-0.4l0.9,1.1l-2.8-0.2l0.7-0.2
			c-12,2.5-17.4-1.1-28.6,1.2c1.5-1.2-2.2,0.6-2.4-0.7c-2.8-1.7-5.2,0.4-7.6,0.8c0,0.1,0,0.1-0.2,0.2l-4.1-0.2
			c2.4-1.7-2.9,1.4-0.7,0c-10.6-1.3-24.4,0-36.6-0.6l0.5,0.4c-3.1-0.1-7,0.4-9.3-0.2c-2.4-0.7-5.2,1.1-6.1,1.2
			c-2.3,0.7-4.4-0.4-4.1-0.6c-2.7,0.3-5.2,1.7-8.9,1c-1.3-1.4-10.5,1.4-10.6-0.2l0,0.1c-4.9-1.1-9.5,0.8-14.8-0.2
			c0,0,0.1-0.1,0.3-0.2L0-90.8l3.1,5.3l9.3,4.3l25.3-0.9l20.2,1.7l49.1-0.6l3.5-1.2c9.6,2.1,22-0.3,32.4,1.2l0.2-1
			c2.9-0.1,2.7,0.6,3.5,0.8c27.3-0.2,55.3-1.6,79.9-0.3c2.4,0.7,9.6,0.3,11.4,1c8-1.3,16.4-1.3,24.4-1.1l-0.3,0.1l3.8-0.2
			c0.2,0.1,0.2,0.2,0.1,0.3c4.2-0.9,10.9,0,16.1,0.4l-0.3,0.1c30.3,0.2,58.4-1.7,88.4-0.3c14,1.7,30.2-0.6,46.2,0.8
			c2.9,1,35.3,0.3,38.2-0.2l-3.8-1.3c12.1-0.6,17.7,0.7,28-0.3l-0.6,0.3c1.5,0.3,2.4-2.5,19,0.9v0.1c0.6,0,0.6-0.3,1.7,0.1l-2.9-0.8
			c1.7-0.3,3.2-0.9,5.5-1c0.5,0.1,0.7,0.4,0.7,0.6l5.6-0.2l1.7,0.8c1.7-0.4,0.9-2.2,5.5-1.2c-1.7-1.2,2.3-0.7,1.7-1.3
			c0.2,0.1,0.8,0.4,1.2,0.6c2.7-0.1,7.9-0.5,9.2-1.1C527-84.6,516.3-87.1,513.4-88.4z M402.8-97.2l0.4-0.2
			C403-97.4,402.9-97.3,402.8-97.2z M44.9-96.2c0.1,0,0.2,0,0.2,0C45-96.2,44.9-96.2,44.9-96.2z M502.1-82.1l-0.1,0
			C502-81.7,502.1-81.9,502.1-82.1z M435.1-94.1c0.1,0,0.1,0,0.2,0l-0.8-0.6L435.1-94.1z M478-94.4c-1.9-0.1-2,0-1.7,0.1
			C477-94.3,477.6-94.3,478-94.4z M517.8-83.5c-1,0.1-1.8,0.1-1.8,0.1c0.6,0.1,1.1,0.3,1.7,0.4C518.8-82.9,518.4-83.2,517.8-83.5z
			 M513.7-88.9l0.3-0.4C513.4-89.2,513.4-89,513.7-88.9z"/>
	</pattern>
	<rect fill="url(#dryBrushPattern)" width="100%" height="100%"/>
</svg>