<?xml version="1.0" encoding="utf-8"?>
<svg version="1.1" xmlns="http://www.w3.org/2000/svg" xmlns:xlink="http://www.w3.org/1999/xlink" x="0px" y="0px" viewBox="0 0 400 50%" enable-background="new 0 0 400 50%" xml:space="preserve">
	<style>
		path {
			fill: #80a997;
		}
	</style>
	<pattern  width="400" height="30" patternUnits="userSpaceOnUse" id="dryBrushPattern" viewBox="405.226 -30 400 30" overflow="visible">
		<polygon fill="none" points="405.226,-160 805.226,-160 805.226,-10 405.226,-10 		"/>
		<path fill="#202020" d="M1208.255-22.83v-1.324 M905.429-25.85c-2.36-1.762-2.46-2.497-0.3-2.205
			c-0.628-1.231-12.983,1.636-14.007,1.837c0.858-1.171,2.629-1.77,3.726-2.465c-0.837-0.012-2.844,0.116-3.28,0.896
			c0.337-0.152,0.762-0.539,1.095-0.296c-1.796,2.171-23.095-3.587-20.853,0.851l0.164,0.1c-2.302-1.473-4.739-6.55-4.005-2.294
			c-1.53,0.813-4.319-0.245-3.805-1.533c-4.525,1.622-15.133,3.362-18.714,1.693l0.64-0.673c-3.859-1.023-31.948,0.847-31.931,0.615
			l0.266,0.031c-0.875-2.466-10.83,3.416-13.395-0.717C801.157-23.141,796.797,0,805.117,0c13.642,0,27.284,0,40.925,0
			c54.352,0,108.705,0,163.057,0c53.341,0,106.681,0,160.022,0c12.377,0,24.754,0,37.131,0c7.724,0-1.53-27.108,0.756-28.14
			c0.514,0.509,0.824,0.303,0.931-0.619c-0.245,1.153-0.993,0.907-2.245-0.737c-6.623,2.962-5.106,0.169-11.898-1.072l0.848-0.383
			c-1.453-0.202-1.74,0.188-0.861,1.168c1.175,0.392-6.166,0.825-3.298-0.701c0.417,0.235-5.373,0.905-3.805,0.2
			c0.188,1.764-0.647,2.456-2.503,2.075l0.793,0.26c-0.269,0.71-0.932,0.617-1.857,0.841c-0.144-1.008-12.145-5.08-5.158-1.968
			l-1.78,1.388c4.899,0.079-4.525-0.236-7.767-0.982l0.831,0.41c0.597-1.617-10.398,1.476-10.903,1.408
			c0.604-0.858-0.307-1.418,1.036-2.032c-1.428-0.017-4.18,1.878-4.882,1.817c-0.082-0.16,0.003-0.39,0.003-0.39
			c-0.01,1.282-10.458-0.05-12.633,0.044c0.085-0.236,0.004-0.394,0.255-0.312c-1.83-0.734-1.125,2.268-3.208,1.447
			c-0.586-0.704-2.661-1.457-3.473-2.336l0.339-0.153c-3.954-3.258-7.356,6.462-9.057,0.967c-1.517,0.294-3.101,2.65-1.586-0.257
			c-0.628-1.231-12.983,1.636-14.007,1.837c0.858-1.171,2.629-1.77,3.726-2.465c-0.837-0.012-2.844,0.116-3.28,0.896
			c0.337-0.152,0.762-0.539,1.095-0.296c-1.796,2.171-23.095-3.587-20.853,0.851l0.164,0.1c-2.302-1.473-4.739-6.55-4.005-2.294
			c-1.53,0.813-4.318-0.245-3.805-1.533c-4.525,1.622-15.133,3.362-18.714,1.693l0.64-0.673c-3.859-1.023-31.948,0.847-31.931,0.615
			l0.266,0.031c0.123,0.345-19.69-1.401-20.989-1.77c-0.418-0.021-10.575,0.891-10.7,0.912c-3.052-0.112-6.055,0.947-7.985,0.58
			c-3.435,4.216-7.629,0.018-6.81,0.814c-0.245,1.153-0.993,0.907-2.245-0.737c-1.131,0.506-6.109-0.125-8.335,0.106
			c-7.965-2.566,59.557,10.357-3.564-1.179l0.848-0.383c-0.599,0.269-1.783,1.149-1.77,0.604c-3.045,3.693-1.941-0.375-2.388-0.137
			c0.832,0.469-5.234,0.842-3.805,0.2c1.109,0.019-1.634,2.156-2.503,2.075c0.334,0.463-0.435,0.948-1.064,1.1
			c-0.218-1.522-1.07,0.583,0.152-1.359c-1.448,0.642-12.441,0.353-14.857-0.202l0.831,0.41c0.262-0.709-13.536,1.052-9.867-0.624
			c-1.626-0.019-4.407,1.247-4.879,1.428c0.007-0.869-15.108,0.792-15.852,0.758c-0.77-2.132-1.38,0.063-3.207-1.914l0.339-0.153
			C913.928-30.285,906.907-26.665,905.429-25.85z M994.602-28.49C994.49-28.436,994.514-28.57,994.602-28.49
			C994.58-28.48,994.584-28.507,994.602-28.49z M1207.418-24.215c0.098-0.11,0.32-0.129,0.837,0H1207.418z"/>
		<path fill="#202020" d="M808.255-22.83v-1.324 M505.429-25.85c-2.36-1.762-2.46-2.497-0.3-2.205
			c-0.628-1.231-12.983,1.636-14.007,1.837c0.858-1.171,2.629-1.77,3.726-2.465c-0.837-0.012-2.844,0.116-3.28,0.896
			c0.337-0.152,0.762-0.539,1.095-0.296c-1.796,2.171-23.095-3.587-20.853,0.851l0.164,0.1c-2.302-1.473-4.739-6.55-4.005-2.294
			c-1.53,0.813-4.319-0.245-3.805-1.533c-4.525,1.622-15.133,3.362-18.714,1.693l0.64-0.673c-3.859-1.023-31.948,0.847-31.931,0.615
			l0.266,0.031c-0.875-2.466-10.83,3.416-13.395-0.717C401.157-23.141,396.797,0,405.117,0c13.642,0,27.284,0,40.925,0
			c54.352,0,108.705,0,163.057,0C662.44,0,715.78,0,769.121,0c12.377,0,24.754,0,37.131,0c7.724,0-1.53-27.108,0.756-28.14
			c0.514,0.509,0.824,0.303,0.931-0.619c-0.245,1.153-0.993,0.907-2.245-0.737c-6.623,2.962-5.106,0.169-11.898-1.072l0.848-0.383
			c-1.453-0.202-1.74,0.188-0.861,1.168c1.175,0.392-6.166,0.825-3.298-0.701c0.417,0.235-5.373,0.905-3.805,0.2
			c0.188,1.764-0.647,2.456-2.503,2.075l0.793,0.26c-0.269,0.71-0.932,0.617-1.857,0.841c-0.144-1.008-12.145-5.08-5.158-1.968
			l-1.78,1.388c4.899,0.079-4.525-0.236-7.768-0.982l0.831,0.41c0.597-1.617-10.398,1.476-10.903,1.408
			c0.604-0.858-0.307-1.418,1.036-2.032c-1.428-0.017-4.18,1.878-4.882,1.817c-0.082-0.16,0.003-0.39,0.003-0.39
			c-0.01,1.282-10.458-0.05-12.633,0.044c0.085-0.236,0.004-0.394,0.255-0.312c-1.83-0.734-1.125,2.268-3.208,1.447
			c-0.586-0.704-2.661-1.457-3.473-2.336l0.339-0.153c-3.954-3.258-7.356,6.462-9.057,0.967c-1.517,0.294-3.101,2.65-1.586-0.257
			c-0.628-1.231-12.983,1.636-14.007,1.837c0.858-1.171,2.629-1.77,3.726-2.465c-0.837-0.012-2.844,0.116-3.28,0.896
			c0.337-0.152,0.762-0.539,1.095-0.296c-1.796,2.171-23.095-3.587-20.853,0.851l0.164,0.1c-2.302-1.473-4.739-6.55-4.005-2.294
			c-1.53,0.813-4.319-0.245-3.805-1.533c-4.525,1.622-15.133,3.362-18.714,1.693l0.64-0.673c-3.859-1.023-31.948,0.847-31.931,0.615
			l0.266,0.031c0.122,0.345-19.69-1.401-20.989-1.77c-0.418-0.021-10.575,0.891-10.7,0.912c-3.052-0.112-6.055,0.947-7.985,0.58
			c-3.435,4.216-7.629,0.018-6.81,0.814c-0.245,1.153-0.993,0.907-2.245-0.737c-1.131,0.506-6.109-0.125-8.335,0.106
			c-7.965-2.566,59.557,10.357-3.564-1.179l0.848-0.383c-0.599,0.269-1.783,1.149-1.77,0.604c-3.045,3.693-1.941-0.375-2.388-0.137
			c0.832,0.469-5.234,0.842-3.805,0.2c1.109,0.019-1.634,2.156-2.503,2.075c0.334,0.463-0.435,0.948-1.064,1.1
			c-0.218-1.522-1.07,0.583,0.152-1.359c-1.448,0.642-12.441,0.353-14.857-0.202l0.831,0.41c0.262-0.709-13.536,1.052-9.867-0.624
			c-1.626-0.019-4.407,1.247-4.879,1.428c0.007-0.869-15.108,0.792-15.852,0.758c-0.77-2.132-1.38,0.063-3.207-1.914l0.339-0.153
			C513.928-30.285,506.907-26.665,505.429-25.85z M594.602-28.49C594.49-28.436,594.514-28.57,594.602-28.49
			C594.58-28.48,594.584-28.507,594.602-28.49z M807.418-24.215c0.098-0.11,0.32-0.129,0.837,0H807.418z"/>
		<path fill="#202020" d="M408.255-22.83v-1.324 M105.429-25.85c-2.36-1.762-2.46-2.497-0.3-2.205
			c-0.628-1.231-12.983,1.636-14.007,1.837c0.858-1.171,2.629-1.77,3.726-2.465c-0.837-0.012-2.844,0.116-3.28,0.896
			c0.337-0.152,0.762-0.539,1.095-0.296c-1.796,2.171-23.095-3.587-20.853,0.851l0.164,0.1c-2.302-1.473-4.739-6.55-4.005-2.294
			c-1.53,0.813-4.319-0.245-3.805-1.533c-4.525,1.622-15.133,3.362-18.714,1.693l0.64-0.673c-3.859-1.023-31.948,0.847-31.931,0.615
			l0.266,0.031c-0.875-2.466-10.83,3.416-13.395-0.717C1.157-23.141-3.203,0,5.117,0C18.758,0,32.4,0,46.042,0
			c54.352,0,108.705,0,163.057,0C262.44,0,315.78,0,369.121,0c12.377,0,24.754,0,37.131,0c7.724,0-1.53-27.108,0.756-28.14
			c0.514,0.509,0.824,0.303,0.931-0.619c-0.245,1.153-0.993,0.907-2.245-0.737c-6.623,2.962-5.106,0.169-11.898-1.072l0.848-0.383
			c-1.453-0.202-1.74,0.188-0.861,1.168c1.175,0.392-6.166,0.825-3.298-0.701c0.417,0.235-5.373,0.905-3.805,0.2
			c0.188,1.764-0.647,2.456-2.503,2.075l0.793,0.26c-0.269,0.71-0.932,0.617-1.857,0.841c-0.144-1.008-12.145-5.08-5.158-1.968
			l-1.78,1.388c4.899,0.079-4.525-0.236-7.768-0.982l0.831,0.41c0.597-1.617-10.398,1.476-10.903,1.408
			c0.604-0.858-0.307-1.418,1.036-2.032c-1.428-0.017-4.18,1.878-4.882,1.817c-0.082-0.16,0.003-0.39,0.003-0.39
			c-0.01,1.282-10.458-0.05-12.633,0.044c0.085-0.236,0.004-0.394,0.255-0.312c-1.83-0.734-1.125,2.268-3.208,1.447
			c-0.586-0.704-2.661-1.457-3.473-2.336l0.339-0.153c-3.954-3.258-7.356,6.462-9.057,0.967c-1.517,0.294-3.101,2.65-1.586-0.257
			c-0.628-1.231-12.983,1.636-14.007,1.837c0.858-1.171,2.629-1.77,3.726-2.465c-0.837-0.012-2.844,0.116-3.28,0.896
			c0.337-0.152,0.762-0.539,1.095-0.296c-1.796,2.171-23.095-3.587-20.853,0.851l0.164,0.1c-2.302-1.473-4.739-6.55-4.005-2.294
			c-1.53,0.813-4.319-0.245-3.805-1.533c-4.525,1.622-15.133,3.362-18.714,1.693l0.64-0.673c-3.859-1.023-31.948,0.847-31.931,0.615
			l0.266,0.031c0.122,0.345-19.69-1.401-20.989-1.77c-0.418-0.021-10.575,0.891-10.7,0.912c-3.052-0.112-6.055,0.947-7.985,0.58
			c-3.435,4.216-7.629,0.018-6.81,0.814c-0.245,1.153-0.993,0.907-2.245-0.737c-1.131,0.506-6.109-0.125-8.335,0.106
			c-7.965-2.566,59.558,10.357-3.564-1.179l0.848-0.383c-0.599,0.269-1.783,1.149-1.77,0.604c-3.045,3.693-1.941-0.375-2.388-0.137
			c0.832,0.469-5.234,0.842-3.805,0.2c1.109,0.019-1.634,2.156-2.503,2.075c0.334,0.463-0.435,0.948-1.064,1.1
			c-0.218-1.522-1.07,0.583,0.152-1.359c-1.448,0.642-12.441,0.353-14.857-0.202l0.831,0.41c0.262-0.709-13.536,1.052-9.867-0.624
			c-1.626-0.019-4.407,1.247-4.879,1.428c0.007-0.869-15.108,0.792-15.852,0.758c-0.77-2.132-1.38,0.063-3.207-1.914l0.339-0.153
			C113.928-30.285,106.907-26.665,105.429-25.85z M194.602-28.49C194.49-28.436,194.514-28.57,194.602-28.49
			C194.58-28.48,194.584-28.507,194.602-28.49z M407.418-24.215c0.098-0.11,0.32-0.129,0.837,0H407.418z"/>
		<path fill="#202020" d="M1208.255-52.83v-1.324 M905.429-55.85c-2.36-1.762-2.46-2.497-0.3-2.205
			c-0.628-1.231-12.983,1.636-14.007,1.837c0.858-1.171,2.629-1.77,3.726-2.465c-0.837-0.012-2.844,0.116-3.28,0.896
			c0.337-0.152,0.762-0.539,1.095-0.296c-1.796,2.171-23.095-3.587-20.853,0.851l0.164,0.1c-2.302-1.473-4.739-6.55-4.005-2.294
			c-1.53,0.813-4.319-0.245-3.805-1.533c-4.525,1.622-15.133,3.362-18.714,1.693l0.64-0.673c-3.859-1.023-31.948,0.847-31.931,0.615
			l0.266,0.031c-0.875-2.466-10.83,3.416-13.395-0.717C801.157-53.141,796.797-30,805.117-30c13.642,0,27.284,0,40.925,0
			c54.352,0,108.705,0,163.057,0c53.341,0,106.681,0,160.022,0c12.377,0,24.754,0,37.131,0c7.724,0-1.53-27.108,0.756-28.14
			c0.514,0.509,0.824,0.303,0.931-0.619c-0.245,1.153-0.993,0.907-2.245-0.737c-6.623,2.962-5.106,0.169-11.898-1.072l0.848-0.383
			c-1.453-0.202-1.74,0.188-0.861,1.168c1.175,0.392-6.166,0.825-3.298-0.701c0.417,0.235-5.373,0.905-3.805,0.2
			c0.188,1.764-0.647,2.456-2.503,2.075l0.793,0.26c-0.269,0.71-0.932,0.617-1.857,0.841c-0.144-1.008-12.145-5.08-5.158-1.968
			l-1.78,1.388c4.899,0.079-4.525-0.236-7.767-0.982l0.831,0.41c0.597-1.617-10.398,1.476-10.903,1.408
			c0.604-0.858-0.307-1.418,1.036-2.032c-1.428-0.017-4.18,1.878-4.882,1.817c-0.082-0.16,0.003-0.39,0.003-0.39
			c-0.01,1.282-10.458-0.05-12.633,0.044c0.085-0.236,0.004-0.394,0.255-0.312c-1.83-0.734-1.125,2.268-3.208,1.447
			c-0.586-0.704-2.661-1.457-3.473-2.336l0.339-0.153c-3.954-3.258-7.356,6.462-9.057,0.967c-1.517,0.294-3.101,2.65-1.586-0.257
			c-0.628-1.231-12.983,1.636-14.007,1.837c0.858-1.171,2.629-1.77,3.726-2.465c-0.837-0.012-2.844,0.116-3.28,0.896
			c0.337-0.152,0.762-0.539,1.095-0.296c-1.796,2.171-23.095-3.587-20.853,0.851l0.164,0.1c-2.302-1.473-4.739-6.55-4.005-2.294
			c-1.53,0.813-4.318-0.245-3.805-1.533c-4.525,1.622-15.133,3.362-18.714,1.693l0.64-0.673c-3.859-1.023-31.948,0.847-31.931,0.615
			l0.266,0.031c0.123,0.345-19.69-1.401-20.989-1.77c-0.418-0.021-10.575,0.891-10.7,0.912c-3.052-0.112-6.055,0.947-7.985,0.58
			c-3.435,4.216-7.629,0.018-6.81,0.814c-0.245,1.153-0.993,0.907-2.245-0.737c-1.131,0.506-6.109-0.125-8.335,0.106
			c-7.965-2.566,59.557,10.357-3.564-1.179l0.848-0.383c-0.599,0.269-1.783,1.149-1.77,0.604c-3.045,3.693-1.941-0.375-2.388-0.137
			c0.832,0.469-5.234,0.842-3.805,0.2c1.109,0.019-1.634,2.156-2.503,2.075c0.334,0.463-0.435,0.948-1.064,1.1
			c-0.218-1.522-1.07,0.583,0.152-1.359c-1.448,0.642-12.441,0.353-14.857-0.202l0.831,0.41c0.262-0.709-13.536,1.052-9.867-0.624
			c-1.626-0.019-4.407,1.247-4.879,1.428c0.007-0.869-15.108,0.792-15.852,0.758c-0.77-2.132-1.38,0.063-3.207-1.914l0.339-0.153
			C913.928-60.285,906.907-56.665,905.429-55.85z M994.602-58.49C994.49-58.436,994.514-58.57,994.602-58.49
			C994.58-58.48,994.584-58.507,994.602-58.49z M1207.418-54.215c0.098-0.11,0.32-0.129,0.837,0H1207.418z"/>
		<path fill="#202020" d="M808.255-52.83v-1.324 M505.429-55.85c-2.36-1.762-2.46-2.497-0.3-2.205
			c-0.628-1.231-12.983,1.636-14.007,1.837c0.858-1.171,2.629-1.77,3.726-2.465c-0.837-0.012-2.844,0.116-3.28,0.896
			c0.337-0.152,0.762-0.539,1.095-0.296c-1.796,2.171-23.095-3.587-20.853,0.851l0.164,0.1c-2.302-1.473-4.739-6.55-4.005-2.294
			c-1.53,0.813-4.319-0.245-3.805-1.533c-4.525,1.622-15.133,3.362-18.714,1.693l0.64-0.673c-3.859-1.023-31.948,0.847-31.931,0.615
			l0.266,0.031c-0.875-2.466-10.83,3.416-13.395-0.717C401.157-53.141,396.797-30,405.117-30c13.642,0,27.284,0,40.925,0
			c54.352,0,108.705,0,163.057,0c53.341,0,106.681,0,160.022,0c12.377,0,24.754,0,37.131,0c7.724,0-1.53-27.108,0.756-28.14
			c0.514,0.509,0.824,0.303,0.931-0.619c-0.245,1.153-0.993,0.907-2.245-0.737c-6.623,2.962-5.106,0.169-11.898-1.072l0.848-0.383
			c-1.453-0.202-1.74,0.188-0.861,1.168c1.175,0.392-6.166,0.825-3.298-0.701c0.417,0.235-5.373,0.905-3.805,0.2
			c0.188,1.764-0.647,2.456-2.503,2.075l0.793,0.26c-0.269,0.71-0.932,0.617-1.857,0.841c-0.144-1.008-12.145-5.08-5.158-1.968
			l-1.78,1.388c4.899,0.079-4.525-0.236-7.768-0.982l0.831,0.41c0.597-1.617-10.398,1.476-10.903,1.408
			c0.604-0.858-0.307-1.418,1.036-2.032c-1.428-0.017-4.18,1.878-4.882,1.817c-0.082-0.16,0.003-0.39,0.003-0.39
			c-0.01,1.282-10.458-0.05-12.633,0.044c0.085-0.236,0.004-0.394,0.255-0.312c-1.83-0.734-1.125,2.268-3.208,1.447
			c-0.586-0.704-2.661-1.457-3.473-2.336l0.339-0.153c-3.954-3.258-7.356,6.462-9.057,0.967c-1.517,0.294-3.101,2.65-1.586-0.257
			c-0.628-1.231-12.983,1.636-14.007,1.837c0.858-1.171,2.629-1.77,3.726-2.465c-0.837-0.012-2.844,0.116-3.28,0.896
			c0.337-0.152,0.762-0.539,1.095-0.296c-1.796,2.171-23.095-3.587-20.853,0.851l0.164,0.1c-2.302-1.473-4.739-6.55-4.005-2.294
			c-1.53,0.813-4.319-0.245-3.805-1.533c-4.525,1.622-15.133,3.362-18.714,1.693l0.64-0.673c-3.859-1.023-31.948,0.847-31.931,0.615
			l0.266,0.031c0.122,0.345-19.69-1.401-20.989-1.77c-0.418-0.021-10.575,0.891-10.7,0.912c-3.052-0.112-6.055,0.947-7.985,0.58
			c-3.435,4.216-7.629,0.018-6.81,0.814c-0.245,1.153-0.993,0.907-2.245-0.737c-1.131,0.506-6.109-0.125-8.335,0.106
			c-7.965-2.566,59.557,10.357-3.564-1.179l0.848-0.383c-0.599,0.269-1.783,1.149-1.77,0.604c-3.045,3.693-1.941-0.375-2.388-0.137
			c0.832,0.469-5.234,0.842-3.805,0.2c1.109,0.019-1.634,2.156-2.503,2.075c0.334,0.463-0.435,0.948-1.064,1.1
			c-0.218-1.522-1.07,0.583,0.152-1.359c-1.448,0.642-12.441,0.353-14.857-0.202l0.831,0.41c0.262-0.709-13.536,1.052-9.867-0.624
			c-1.626-0.019-4.407,1.247-4.879,1.428c0.007-0.869-15.108,0.792-15.852,0.758c-0.77-2.132-1.38,0.063-3.207-1.914l0.339-0.153
			C513.928-60.285,506.907-56.665,505.429-55.85z M594.602-58.49C594.49-58.436,594.514-58.57,594.602-58.49
			C594.58-58.48,594.584-58.507,594.602-58.49z M807.418-54.215c0.098-0.11,0.32-0.129,0.837,0H807.418z"/>
		<path fill="#202020" d="M408.255-52.83v-1.324 M105.429-55.85c-2.36-1.762-2.46-2.497-0.3-2.205
			c-0.628-1.231-12.983,1.636-14.007,1.837c0.858-1.171,2.629-1.77,3.726-2.465c-0.837-0.012-2.844,0.116-3.28,0.896
			c0.337-0.152,0.762-0.539,1.095-0.296c-1.796,2.171-23.095-3.587-20.853,0.851l0.164,0.1c-2.302-1.473-4.739-6.55-4.005-2.294
			c-1.53,0.813-4.319-0.245-3.805-1.533c-4.525,1.622-15.133,3.362-18.714,1.693l0.64-0.673c-3.859-1.023-31.948,0.847-31.931,0.615
			l0.266,0.031c-0.875-2.466-10.83,3.416-13.395-0.717C1.157-53.141-3.203-30,5.117-30c13.642,0,27.284,0,40.925,0
			c54.352,0,108.705,0,163.057,0c53.341,0,106.681,0,160.022,0c12.377,0,24.754,0,37.131,0c7.724,0-1.53-27.108,0.756-28.14
			c0.514,0.509,0.824,0.303,0.931-0.619c-0.245,1.153-0.993,0.907-2.245-0.737c-6.623,2.962-5.106,0.169-11.898-1.072l0.848-0.383
			c-1.453-0.202-1.74,0.188-0.861,1.168c1.175,0.392-6.166,0.825-3.298-0.701c0.417,0.235-5.373,0.905-3.805,0.2
			c0.188,1.764-0.647,2.456-2.503,2.075l0.793,0.26c-0.269,0.71-0.932,0.617-1.857,0.841c-0.144-1.008-12.145-5.08-5.158-1.968
			l-1.78,1.388c4.899,0.079-4.525-0.236-7.768-0.982l0.831,0.41c0.597-1.617-10.398,1.476-10.903,1.408
			c0.604-0.858-0.307-1.418,1.036-2.032c-1.428-0.017-4.18,1.878-4.882,1.817c-0.082-0.16,0.003-0.39,0.003-0.39
			c-0.01,1.282-10.458-0.05-12.633,0.044c0.085-0.236,0.004-0.394,0.255-0.312c-1.83-0.734-1.125,2.268-3.208,1.447
			c-0.586-0.704-2.661-1.457-3.473-2.336l0.339-0.153c-3.954-3.258-7.356,6.462-9.057,0.967c-1.517,0.294-3.101,2.65-1.586-0.257
			c-0.628-1.231-12.983,1.636-14.007,1.837c0.858-1.171,2.629-1.77,3.726-2.465c-0.837-0.012-2.844,0.116-3.28,0.896
			c0.337-0.152,0.762-0.539,1.095-0.296c-1.796,2.171-23.095-3.587-20.853,0.851l0.164,0.1c-2.302-1.473-4.739-6.55-4.005-2.294
			c-1.53,0.813-4.319-0.245-3.805-1.533c-4.525,1.622-15.133,3.362-18.714,1.693l0.64-0.673c-3.859-1.023-31.948,0.847-31.931,0.615
			l0.266,0.031c0.122,0.345-19.69-1.401-20.989-1.77c-0.418-0.021-10.575,0.891-10.7,0.912c-3.052-0.112-6.055,0.947-7.985,0.58
			c-3.435,4.216-7.629,0.018-6.81,0.814c-0.245,1.153-0.993,0.907-2.245-0.737c-1.131,0.506-6.109-0.125-8.335,0.106
			c-7.965-2.566,59.558,10.357-3.564-1.179l0.848-0.383c-0.599,0.269-1.783,1.149-1.77,0.604c-3.045,3.693-1.941-0.375-2.388-0.137
			c0.832,0.469-5.234,0.842-3.805,0.2c1.109,0.019-1.634,2.156-2.503,2.075c0.334,0.463-0.435,0.948-1.064,1.1
			c-0.218-1.522-1.07,0.583,0.152-1.359c-1.448,0.642-12.441,0.353-14.857-0.202l0.831,0.41c0.262-0.709-13.536,1.052-9.867-0.624
			c-1.626-0.019-4.407,1.247-4.879,1.428c0.007-0.869-15.108,0.792-15.852,0.758c-0.77-2.132-1.38,0.063-3.207-1.914l0.339-0.153
			C113.928-60.285,106.907-56.665,105.429-55.85z M194.602-58.49C194.49-58.436,194.514-58.57,194.602-58.49
			C194.58-58.48,194.584-58.507,194.602-58.49z M407.418-54.215c0.098-0.11,0.32-0.129,0.837,0H407.418z"/>
		<path fill="#202020" d="M1208.255-82.83v-1.324 M905.429-85.85c-2.36-1.762-2.46-2.497-0.3-2.205
			c-0.628-1.231-12.983,1.636-14.007,1.837c0.858-1.171,2.629-1.77,3.726-2.465c-0.837-0.012-2.844,0.116-3.28,0.896
			c0.337-0.152,0.762-0.539,1.095-0.296c-1.796,2.171-23.095-3.587-20.853,0.851l0.164,0.1c-2.302-1.473-4.739-6.55-4.005-2.294
			c-1.53,0.813-4.319-0.245-3.805-1.533c-4.525,1.622-15.133,3.362-18.714,1.693l0.64-0.673c-3.859-1.023-31.948,0.847-31.931,0.615
			l0.266,0.031c-0.875-2.466-10.83,3.416-13.395-0.717C801.157-83.141,796.797-60,805.117-60c13.642,0,27.284,0,40.925,0
			c54.352,0,108.705,0,163.057,0c53.341,0,106.681,0,160.022,0c12.377,0,24.754,0,37.131,0c7.724,0-1.53-27.108,0.756-28.14
			c0.514,0.509,0.824,0.303,0.931-0.619c-0.245,1.153-0.993,0.907-2.245-0.737c-6.623,2.962-5.106,0.169-11.898-1.072l0.848-0.383
			c-1.453-0.202-1.74,0.188-0.861,1.168c1.175,0.392-6.166,0.825-3.298-0.701c0.417,0.235-5.373,0.905-3.805,0.2
			c0.188,1.764-0.647,2.456-2.503,2.075l0.793,0.26c-0.269,0.71-0.932,0.617-1.857,0.841c-0.144-1.008-12.145-5.08-5.158-1.968
			l-1.78,1.388c4.899,0.079-4.525-0.236-7.767-0.982l0.831,0.41c0.597-1.617-10.398,1.476-10.903,1.408
			c0.604-0.858-0.307-1.418,1.036-2.032c-1.428-0.017-4.18,1.878-4.882,1.817c-0.082-0.16,0.003-0.39,0.003-0.39
			c-0.01,1.282-10.458-0.05-12.633,0.044c0.085-0.236,0.004-0.394,0.255-0.312c-1.83-0.734-1.125,2.268-3.208,1.447
			c-0.586-0.704-2.661-1.457-3.473-2.336l0.339-0.153c-3.954-3.258-7.356,6.462-9.057,0.967c-1.517,0.294-3.101,2.65-1.586-0.257
			c-0.628-1.231-12.983,1.636-14.007,1.837c0.858-1.171,2.629-1.77,3.726-2.465c-0.837-0.012-2.844,0.116-3.28,0.896
			c0.337-0.152,0.762-0.539,1.095-0.296c-1.796,2.171-23.095-3.587-20.853,0.851l0.164,0.1c-2.302-1.473-4.739-6.55-4.005-2.294
			c-1.53,0.813-4.318-0.245-3.805-1.533c-4.525,1.622-15.133,3.362-18.714,1.693l0.64-0.673c-3.859-1.023-31.948,0.847-31.931,0.615
			l0.266,0.031c0.123,0.345-19.69-1.401-20.989-1.77c-0.418-0.021-10.575,0.891-10.7,0.912c-3.052-0.112-6.055,0.947-7.985,0.58
			c-3.435,4.216-7.629,0.018-6.81,0.814c-0.245,1.153-0.993,0.907-2.245-0.737c-1.131,0.506-6.109-0.125-8.335,0.106
			c-7.965-2.566,59.557,10.357-3.564-1.179l0.848-0.383c-0.599,0.269-1.783,1.149-1.77,0.604c-3.045,3.693-1.941-0.375-2.388-0.137
			c0.832,0.469-5.234,0.842-3.805,0.2c1.109,0.019-1.634,2.156-2.503,2.075c0.334,0.463-0.435,0.948-1.064,1.1
			c-0.218-1.522-1.07,0.583,0.152-1.359c-1.448,0.642-12.441,0.353-14.857-0.202l0.831,0.41c0.262-0.709-13.536,1.052-9.867-0.624
			c-1.626-0.019-4.407,1.247-4.879,1.428c0.007-0.869-15.108,0.792-15.852,0.758c-0.77-2.132-1.38,0.063-3.207-1.914l0.339-0.153
			C913.928-90.285,906.907-86.665,905.429-85.85z M994.602-88.49C994.49-88.436,994.514-88.57,994.602-88.49
			C994.58-88.48,994.584-88.507,994.602-88.49z M1207.418-84.215c0.098-0.11,0.32-0.129,0.837,0H1207.418z"/>
		<path fill="#202020" d="M808.255-82.83v-1.324 M505.429-85.85c-2.36-1.762-2.46-2.497-0.3-2.205
			c-0.628-1.231-12.983,1.636-14.007,1.837c0.858-1.171,2.629-1.77,3.726-2.465c-0.837-0.012-2.844,0.116-3.28,0.896
			c0.337-0.152,0.762-0.539,1.095-0.296c-1.796,2.171-23.095-3.587-20.853,0.851l0.164,0.1c-2.302-1.473-4.739-6.55-4.005-2.294
			c-1.53,0.813-4.319-0.245-3.805-1.533c-4.525,1.622-15.133,3.362-18.714,1.693l0.64-0.673c-3.859-1.023-31.948,0.847-31.931,0.615
			l0.266,0.031c-0.875-2.466-10.83,3.416-13.395-0.717C401.157-83.141,396.797-60,405.117-60c13.642,0,27.284,0,40.925,0
			c54.352,0,108.705,0,163.057,0c53.341,0,106.681,0,160.022,0c12.377,0,24.754,0,37.131,0c7.724,0-1.53-27.108,0.756-28.14
			c0.514,0.509,0.824,0.303,0.931-0.619c-0.245,1.153-0.993,0.907-2.245-0.737c-6.623,2.962-5.106,0.169-11.898-1.072l0.848-0.383
			c-1.453-0.202-1.74,0.188-0.861,1.168c1.175,0.392-6.166,0.825-3.298-0.701c0.417,0.235-5.373,0.905-3.805,0.2
			c0.188,1.764-0.647,2.456-2.503,2.075l0.793,0.26c-0.269,0.71-0.932,0.617-1.857,0.841c-0.144-1.008-12.145-5.08-5.158-1.968
			l-1.78,1.388c4.899,0.079-4.525-0.236-7.768-0.982l0.831,0.41c0.597-1.617-10.398,1.476-10.903,1.408
			c0.604-0.858-0.307-1.418,1.036-2.032c-1.428-0.017-4.18,1.878-4.882,1.817c-0.082-0.16,0.003-0.39,0.003-0.39
			c-0.01,1.282-10.458-0.05-12.633,0.044c0.085-0.236,0.004-0.394,0.255-0.312c-1.83-0.734-1.125,2.268-3.208,1.447
			c-0.586-0.704-2.661-1.457-3.473-2.336l0.339-0.153c-3.954-3.258-7.356,6.462-9.057,0.967c-1.517,0.294-3.101,2.65-1.586-0.257
			c-0.628-1.231-12.983,1.636-14.007,1.837c0.858-1.171,2.629-1.77,3.726-2.465c-0.837-0.012-2.844,0.116-3.28,0.896
			c0.337-0.152,0.762-0.539,1.095-0.296c-1.796,2.171-23.095-3.587-20.853,0.851l0.164,0.1c-2.302-1.473-4.739-6.55-4.005-2.294
			c-1.53,0.813-4.319-0.245-3.805-1.533c-4.525,1.622-15.133,3.362-18.714,1.693l0.64-0.673c-3.859-1.023-31.948,0.847-31.931,0.615
			l0.266,0.031c0.122,0.345-19.69-1.401-20.989-1.77c-0.418-0.021-10.575,0.891-10.7,0.912c-3.052-0.112-6.055,0.947-7.985,0.58
			c-3.435,4.216-7.629,0.018-6.81,0.814c-0.245,1.153-0.993,0.907-2.245-0.737c-1.131,0.506-6.109-0.125-8.335,0.106
			c-7.965-2.566,59.557,10.357-3.564-1.179l0.848-0.383c-0.599,0.269-1.783,1.149-1.77,0.604c-3.045,3.693-1.941-0.375-2.388-0.137
			c0.832,0.469-5.234,0.842-3.805,0.2c1.109,0.019-1.634,2.156-2.503,2.075c0.334,0.463-0.435,0.948-1.064,1.1
			c-0.218-1.522-1.07,0.583,0.152-1.359c-1.448,0.642-12.441,0.353-14.857-0.202l0.831,0.41c0.262-0.709-13.536,1.052-9.867-0.624
			c-1.626-0.019-4.407,1.247-4.879,1.428c0.007-0.869-15.108,0.792-15.852,0.758c-0.77-2.132-1.38,0.063-3.207-1.914l0.339-0.153
			C513.928-90.285,506.907-86.665,505.429-85.85z M594.602-88.49C594.49-88.436,594.514-88.57,594.602-88.49
			C594.58-88.48,594.584-88.507,594.602-88.49z M807.418-84.215c0.098-0.11,0.32-0.129,0.837,0H807.418z"/>
		<path fill="#202020" d="M408.255-82.83v-1.324 M105.429-85.85c-2.36-1.762-2.46-2.497-0.3-2.205
			c-0.628-1.231-12.983,1.636-14.007,1.837c0.858-1.171,2.629-1.77,3.726-2.465c-0.837-0.012-2.844,0.116-3.28,0.896
			c0.337-0.152,0.762-0.539,1.095-0.296c-1.796,2.171-23.095-3.587-20.853,0.851l0.164,0.1c-2.302-1.473-4.739-6.55-4.005-2.294
			c-1.53,0.813-4.319-0.245-3.805-1.533c-4.525,1.622-15.133,3.362-18.714,1.693l0.64-0.673c-3.859-1.023-31.948,0.847-31.931,0.615
			l0.266,0.031c-0.875-2.466-10.83,3.416-13.395-0.717C1.157-83.141-3.203-60,5.117-60c13.642,0,27.284,0,40.925,0
			c54.352,0,108.705,0,163.057,0c53.341,0,106.681,0,160.022,0c12.377,0,24.754,0,37.131,0c7.724,0-1.53-27.108,0.756-28.14
			c0.514,0.509,0.824,0.303,0.931-0.619c-0.245,1.153-0.993,0.907-2.245-0.737c-6.623,2.962-5.106,0.169-11.898-1.072l0.848-0.383
			c-1.453-0.202-1.74,0.188-0.861,1.168c1.175,0.392-6.166,0.825-3.298-0.701c0.417,0.235-5.373,0.905-3.805,0.2
			c0.188,1.764-0.647,2.456-2.503,2.075l0.793,0.26c-0.269,0.71-0.932,0.617-1.857,0.841c-0.144-1.008-12.145-5.08-5.158-1.968
			l-1.78,1.388c4.899,0.079-4.525-0.236-7.768-0.982l0.831,0.41c0.597-1.617-10.398,1.476-10.903,1.408
			c0.604-0.858-0.307-1.418,1.036-2.032c-1.428-0.017-4.18,1.878-4.882,1.817c-0.082-0.16,0.003-0.39,0.003-0.39
			c-0.01,1.282-10.458-0.05-12.633,0.044c0.085-0.236,0.004-0.394,0.255-0.312c-1.83-0.734-1.125,2.268-3.208,1.447
			c-0.586-0.704-2.661-1.457-3.473-2.336l0.339-0.153c-3.954-3.258-7.356,6.462-9.057,0.967c-1.517,0.294-3.101,2.65-1.586-0.257
			c-0.628-1.231-12.983,1.636-14.007,1.837c0.858-1.171,2.629-1.77,3.726-2.465c-0.837-0.012-2.844,0.116-3.28,0.896
			c0.337-0.152,0.762-0.539,1.095-0.296c-1.796,2.171-23.095-3.587-20.853,0.851l0.164,0.1c-2.302-1.473-4.739-6.55-4.005-2.294
			c-1.53,0.813-4.319-0.245-3.805-1.533c-4.525,1.622-15.133,3.362-18.714,1.693l0.64-0.673c-3.859-1.023-31.948,0.847-31.931,0.615
			l0.266,0.031c0.122,0.345-19.69-1.401-20.989-1.77c-0.418-0.021-10.575,0.891-10.7,0.912c-3.052-0.112-6.055,0.947-7.985,0.58
			c-3.435,4.216-7.629,0.018-6.81,0.814c-0.245,1.153-0.993,0.907-2.245-0.737c-1.131,0.506-6.109-0.125-8.335,0.106
			c-7.965-2.566,59.558,10.357-3.564-1.179l0.848-0.383c-0.599,0.269-1.783,1.149-1.77,0.604c-3.045,3.693-1.941-0.375-2.388-0.137
			c0.832,0.469-5.234,0.842-3.805,0.2c1.109,0.019-1.634,2.156-2.503,2.075c0.334,0.463-0.435,0.948-1.064,1.1
			c-0.218-1.522-1.07,0.583,0.152-1.359c-1.448,0.642-12.441,0.353-14.857-0.202l0.831,0.41c0.262-0.709-13.536,1.052-9.867-0.624
			c-1.626-0.019-4.407,1.247-4.879,1.428c0.007-0.869-15.108,0.792-15.852,0.758c-0.77-2.132-1.38,0.063-3.207-1.914l0.339-0.153
			C113.928-90.285,106.907-86.665,105.429-85.85z M194.602-88.49C194.49-88.436,194.514-88.57,194.602-88.49
			C194.58-88.48,194.584-88.507,194.602-88.49z M407.418-84.215c0.098-0.11,0.32-0.129,0.837,0H407.418z"/>
		<path fill="#202020" d="M1208.255-112.83v-1.324 M905.429-115.85c-2.36-1.762-2.46-2.497-0.3-2.205
			c-0.628-1.231-12.983,1.636-14.007,1.837c0.858-1.171,2.629-1.77,3.726-2.465c-0.837-0.012-2.844,0.116-3.28,0.896
			c0.337-0.152,0.762-0.539,1.095-0.296c-1.796,2.171-23.095-3.587-20.853,0.851l0.164,0.1c-2.302-1.473-4.739-6.55-4.005-2.294
			c-1.53,0.813-4.319-0.245-3.805-1.533c-4.525,1.622-15.133,3.362-18.714,1.693l0.64-0.673c-3.859-1.023-31.948,0.847-31.931,0.615
			l0.266,0.031c-0.875-2.466-10.83,3.416-13.395-0.717c0.128,6.869-4.232,30.011,4.088,30.011c13.642,0,27.284,0,40.925,0
			c54.352,0,108.705,0,163.057,0c53.341,0,106.681,0,160.022,0c12.377,0,24.754,0,37.131,0c7.724,0-1.53-27.108,0.756-28.14
			c0.514,0.509,0.824,0.303,0.931-0.619c-0.245,1.153-0.993,0.907-2.245-0.737c-6.623,2.962-5.106,0.169-11.898-1.072l0.848-0.383
			c-1.453-0.202-1.74,0.188-0.861,1.168c1.175,0.392-6.166,0.825-3.298-0.701c0.417,0.235-5.373,0.905-3.805,0.2
			c0.188,1.764-0.647,2.456-2.503,2.075l0.793,0.26c-0.269,0.71-0.932,0.617-1.857,0.841c-0.144-1.008-12.145-5.08-5.158-1.968
			l-1.78,1.388c4.899,0.079-4.525-0.236-7.767-0.982l0.831,0.41c0.597-1.617-10.398,1.476-10.903,1.408
			c0.604-0.858-0.307-1.418,1.036-2.032c-1.428-0.017-4.18,1.878-4.882,1.817c-0.082-0.16,0.003-0.39,0.003-0.39
			c-0.01,1.282-10.458-0.05-12.633,0.044c0.085-0.236,0.004-0.394,0.255-0.312c-1.83-0.734-1.125,2.268-3.208,1.447
			c-0.586-0.704-2.661-1.457-3.473-2.336l0.339-0.153c-3.954-3.258-7.356,6.462-9.057,0.967c-1.517,0.294-3.101,2.65-1.586-0.257
			c-0.628-1.231-12.983,1.636-14.007,1.837c0.858-1.171,2.629-1.77,3.726-2.465c-0.837-0.012-2.844,0.116-3.28,0.896
			c0.337-0.152,0.762-0.539,1.095-0.296c-1.796,2.171-23.095-3.587-20.853,0.851l0.164,0.1c-2.302-1.473-4.739-6.55-4.005-2.294
			c-1.53,0.813-4.318-0.245-3.805-1.533c-4.525,1.622-15.133,3.362-18.714,1.693l0.64-0.673c-3.859-1.023-31.948,0.847-31.931,0.615
			l0.266,0.031c0.123,0.345-19.69-1.401-20.989-1.77c-0.418-0.021-10.575,0.891-10.7,0.912c-3.052-0.112-6.055,0.947-7.985,0.58
			c-3.435,4.216-7.629,0.018-6.81,0.814c-0.245,1.153-0.993,0.907-2.245-0.737c-1.131,0.506-6.109-0.125-8.335,0.106
			c-7.965-2.566,59.557,10.357-3.564-1.179l0.848-0.383c-0.599,0.269-1.783,1.149-1.77,0.604c-3.045,3.693-1.941-0.375-2.388-0.137
			c0.832,0.469-5.234,0.842-3.805,0.2c1.109,0.019-1.634,2.156-2.503,2.075c0.334,0.463-0.435,0.948-1.064,1.1
			c-0.218-1.522-1.07,0.583,0.152-1.359c-1.448,0.642-12.441,0.353-14.857-0.202l0.831,0.41c0.262-0.709-13.536,1.052-9.867-0.624
			c-1.626-0.019-4.407,1.247-4.879,1.428c0.007-0.869-15.108,0.792-15.852,0.758c-0.77-2.132-1.38,0.063-3.207-1.914l0.339-0.153
			C913.928-120.285,906.907-116.665,905.429-115.85z M994.602-118.49C994.49-118.436,994.514-118.57,994.602-118.49
			C994.58-118.48,994.584-118.507,994.602-118.49z M1207.418-114.215c0.098-0.11,0.32-0.129,0.837,0H1207.418z"/>
		<path fill="#202020" d="M808.255-112.83v-1.324 M505.429-115.85c-2.36-1.762-2.46-2.497-0.3-2.205
			c-0.628-1.231-12.983,1.636-14.007,1.837c0.858-1.171,2.629-1.77,3.726-2.465c-0.837-0.012-2.844,0.116-3.28,0.896
			c0.337-0.152,0.762-0.539,1.095-0.296c-1.796,2.171-23.095-3.587-20.853,0.851l0.164,0.1c-2.302-1.473-4.739-6.55-4.005-2.294
			c-1.53,0.813-4.319-0.245-3.805-1.533c-4.525,1.622-15.133,3.362-18.714,1.693l0.64-0.673c-3.859-1.023-31.948,0.847-31.931,0.615
			l0.266,0.031c-0.875-2.466-10.83,3.416-13.395-0.717c0.128,6.869-4.232,30.011,4.088,30.011c13.642,0,27.284,0,40.925,0
			c54.352,0,108.705,0,163.057,0c53.341,0,106.681,0,160.022,0c12.377,0,24.754,0,37.131,0c7.724,0-1.53-27.108,0.756-28.14
			c0.514,0.509,0.824,0.303,0.931-0.619c-0.245,1.153-0.993,0.907-2.245-0.737c-6.623,2.962-5.106,0.169-11.898-1.072l0.848-0.383
			c-1.453-0.202-1.74,0.188-0.861,1.168c1.175,0.392-6.166,0.825-3.298-0.701c0.417,0.235-5.373,0.905-3.805,0.2
			c0.188,1.764-0.647,2.456-2.503,2.075l0.793,0.26c-0.269,0.71-0.932,0.617-1.857,0.841c-0.144-1.008-12.145-5.08-5.158-1.968
			l-1.78,1.388c4.899,0.079-4.525-0.236-7.768-0.982l0.831,0.41c0.597-1.617-10.398,1.476-10.903,1.408
			c0.604-0.858-0.307-1.418,1.036-2.032c-1.428-0.017-4.18,1.878-4.882,1.817c-0.082-0.16,0.003-0.39,0.003-0.39
			c-0.01,1.282-10.458-0.05-12.633,0.044c0.085-0.236,0.004-0.394,0.255-0.312c-1.83-0.734-1.125,2.268-3.208,1.447
			c-0.586-0.704-2.661-1.457-3.473-2.336l0.339-0.153c-3.954-3.258-7.356,6.462-9.057,0.967c-1.517,0.294-3.101,2.65-1.586-0.257
			c-0.628-1.231-12.983,1.636-14.007,1.837c0.858-1.171,2.629-1.77,3.726-2.465c-0.837-0.012-2.844,0.116-3.28,0.896
			c0.337-0.152,0.762-0.539,1.095-0.296c-1.796,2.171-23.095-3.587-20.853,0.851l0.164,0.1c-2.302-1.473-4.739-6.55-4.005-2.294
			c-1.53,0.813-4.319-0.245-3.805-1.533c-4.525,1.622-15.133,3.362-18.714,1.693l0.64-0.673c-3.859-1.023-31.948,0.847-31.931,0.615
			l0.266,0.031c0.122,0.345-19.69-1.401-20.989-1.77c-0.418-0.021-10.575,0.891-10.7,0.912c-3.052-0.112-6.055,0.947-7.985,0.58
			c-3.435,4.216-7.629,0.018-6.81,0.814c-0.245,1.153-0.993,0.907-2.245-0.737c-1.131,0.506-6.109-0.125-8.335,0.106
			c-7.965-2.566,59.557,10.357-3.564-1.179l0.848-0.383c-0.599,0.269-1.783,1.149-1.77,0.604c-3.045,3.693-1.941-0.375-2.388-0.137
			c0.832,0.469-5.234,0.842-3.805,0.2c1.109,0.019-1.634,2.156-2.503,2.075c0.334,0.463-0.435,0.948-1.064,1.1
			c-0.218-1.522-1.07,0.583,0.152-1.359c-1.448,0.642-12.441,0.353-14.857-0.202l0.831,0.41c0.262-0.709-13.536,1.052-9.867-0.624
			c-1.626-0.019-4.407,1.247-4.879,1.428c0.007-0.869-15.108,0.792-15.852,0.758c-0.77-2.132-1.38,0.063-3.207-1.914l0.339-0.153
			C513.928-120.285,506.907-116.665,505.429-115.85z M594.602-118.49C594.49-118.436,594.514-118.57,594.602-118.49
			C594.58-118.48,594.584-118.507,594.602-118.49z M807.418-114.215c0.098-0.11,0.32-0.129,0.837,0H807.418z"/>
		<path fill="#202020" d="M408.255-112.83v-1.324 M105.429-115.85c-2.36-1.762-2.46-2.497-0.3-2.205
			c-0.628-1.231-12.983,1.636-14.007,1.837c0.858-1.171,2.629-1.77,3.726-2.465c-0.837-0.012-2.844,0.116-3.28,0.896
			c0.337-0.152,0.762-0.539,1.095-0.296c-1.796,2.171-23.095-3.587-20.853,0.851l0.164,0.1c-2.302-1.473-4.739-6.55-4.005-2.294
			c-1.53,0.813-4.319-0.245-3.805-1.533c-4.525,1.622-15.133,3.362-18.714,1.693l0.64-0.673c-3.859-1.023-31.948,0.847-31.931,0.615
			l0.266,0.031c-0.875-2.466-10.83,3.416-13.395-0.717C1.157-113.141-3.203-90,5.117-90c13.642,0,27.284,0,40.925,0
			c54.352,0,108.705,0,163.057,0c53.341,0,106.681,0,160.022,0c12.377,0,24.754,0,37.131,0c7.724,0-1.53-27.108,0.756-28.14
			c0.514,0.509,0.824,0.303,0.931-0.619c-0.245,1.153-0.993,0.907-2.245-0.737c-6.623,2.962-5.106,0.169-11.898-1.072l0.848-0.383
			c-1.453-0.202-1.74,0.188-0.861,1.168c1.175,0.392-6.166,0.825-3.298-0.701c0.417,0.235-5.373,0.905-3.805,0.2
			c0.188,1.764-0.647,2.456-2.503,2.075l0.793,0.26c-0.269,0.71-0.932,0.617-1.857,0.841c-0.144-1.008-12.145-5.08-5.158-1.968
			l-1.78,1.388c4.899,0.079-4.525-0.236-7.768-0.982l0.831,0.41c0.597-1.617-10.398,1.476-10.903,1.408
			c0.604-0.858-0.307-1.418,1.036-2.032c-1.428-0.017-4.18,1.878-4.882,1.817c-0.082-0.16,0.003-0.39,0.003-0.39
			c-0.01,1.282-10.458-0.05-12.633,0.044c0.085-0.236,0.004-0.394,0.255-0.312c-1.83-0.734-1.125,2.268-3.208,1.447
			c-0.586-0.704-2.661-1.457-3.473-2.336l0.339-0.153c-3.954-3.258-7.356,6.462-9.057,0.967c-1.517,0.294-3.101,2.65-1.586-0.257
			c-0.628-1.231-12.983,1.636-14.007,1.837c0.858-1.171,2.629-1.77,3.726-2.465c-0.837-0.012-2.844,0.116-3.28,0.896
			c0.337-0.152,0.762-0.539,1.095-0.296c-1.796,2.171-23.095-3.587-20.853,0.851l0.164,0.1c-2.302-1.473-4.739-6.55-4.005-2.294
			c-1.53,0.813-4.319-0.245-3.805-1.533c-4.525,1.622-15.133,3.362-18.714,1.693l0.64-0.673c-3.859-1.023-31.948,0.847-31.931,0.615
			l0.266,0.031c0.122,0.345-19.69-1.401-20.989-1.77c-0.418-0.021-10.575,0.891-10.7,0.912c-3.052-0.112-6.055,0.947-7.985,0.58
			c-3.435,4.216-7.629,0.018-6.81,0.814c-0.245,1.153-0.993,0.907-2.245-0.737c-1.131,0.506-6.109-0.125-8.335,0.106
			c-7.965-2.566,59.558,10.357-3.564-1.179l0.848-0.383c-0.599,0.269-1.783,1.149-1.77,0.604c-3.045,3.693-1.941-0.375-2.388-0.137
			c0.832,0.469-5.234,0.842-3.805,0.2c1.109,0.019-1.634,2.156-2.503,2.075c0.334,0.463-0.435,0.948-1.064,1.1
			c-0.218-1.522-1.07,0.583,0.152-1.359c-1.448,0.642-12.441,0.353-14.857-0.202l0.831,0.41c0.262-0.709-13.536,1.052-9.867-0.624
			c-1.626-0.019-4.407,1.247-4.879,1.428c0.007-0.869-15.108,0.792-15.852,0.758c-0.77-2.132-1.38,0.063-3.207-1.914l0.339-0.153
			C113.928-120.285,106.907-116.665,105.429-115.85z M194.602-118.49C194.49-118.436,194.514-118.57,194.602-118.49
			C194.58-118.48,194.584-118.507,194.602-118.49z M407.418-114.215c0.098-0.11,0.32-0.129,0.837,0H407.418z"/>
		<path fill="#202020" d="M1208.255-142.83v-1.324 M905.429-145.85c-2.36-1.762-2.46-2.497-0.3-2.205
			c-0.628-1.231-12.983,1.636-14.007,1.837c0.858-1.171,2.629-1.77,3.726-2.465c-0.837-0.012-2.844,0.116-3.28,0.896
			c0.337-0.152,0.762-0.539,1.095-0.296c-1.796,2.171-23.095-3.587-20.853,0.851l0.164,0.1c-2.302-1.473-4.739-6.55-4.005-2.294
			c-1.53,0.813-4.319-0.245-3.805-1.533c-4.525,1.622-15.133,3.362-18.714,1.693l0.64-0.673c-3.859-1.023-31.948,0.847-31.931,0.615
			l0.266,0.031c-0.875-2.466-10.83,3.416-13.395-0.717c0.128,6.869-4.232,30.011,4.088,30.011c13.642,0,27.284,0,40.925,0
			c54.352,0,108.705,0,163.057,0c53.341,0,106.681,0,160.022,0c12.377,0,24.754,0,37.131,0c7.724,0-1.53-27.108,0.756-28.14
			c0.514,0.509,0.824,0.303,0.931-0.619c-0.245,1.153-0.993,0.907-2.245-0.737c-6.623,2.962-5.106,0.169-11.898-1.072l0.848-0.383
			c-1.453-0.202-1.74,0.188-0.861,1.168c1.175,0.392-6.166,0.825-3.298-0.701c0.417,0.235-5.373,0.905-3.805,0.2
			c0.188,1.764-0.647,2.456-2.503,2.075l0.793,0.26c-0.269,0.71-0.932,0.617-1.857,0.841c-0.144-1.008-12.145-5.08-5.158-1.968
			l-1.78,1.388c4.899,0.079-4.525-0.236-7.767-0.982l0.831,0.41c0.597-1.617-10.398,1.476-10.903,1.408
			c0.604-0.858-0.307-1.418,1.036-2.032c-1.428-0.017-4.18,1.878-4.882,1.817c-0.082-0.16,0.003-0.39,0.003-0.39
			c-0.01,1.282-10.458-0.05-12.633,0.044c0.085-0.236,0.004-0.394,0.255-0.312c-1.83-0.734-1.125,2.268-3.208,1.447
			c-0.586-0.704-2.661-1.457-3.473-2.336l0.339-0.153c-3.954-3.258-7.356,6.462-9.057,0.967c-1.517,0.294-3.101,2.65-1.586-0.257
			c-0.628-1.231-12.983,1.636-14.007,1.837c0.858-1.171,2.629-1.77,3.726-2.465c-0.837-0.012-2.844,0.116-3.28,0.896
			c0.337-0.152,0.762-0.539,1.095-0.296c-1.796,2.171-23.095-3.587-20.853,0.851l0.164,0.1c-2.302-1.473-4.739-6.55-4.005-2.294
			c-1.53,0.813-4.318-0.245-3.805-1.533c-4.525,1.622-15.133,3.362-18.714,1.693l0.64-0.673c-3.859-1.023-31.948,0.847-31.931,0.615
			l0.266,0.031c0.123,0.345-19.69-1.401-20.989-1.77c-0.418-0.021-10.575,0.891-10.7,0.912c-3.052-0.112-6.055,0.947-7.985,0.58
			c-3.435,4.216-7.629,0.018-6.81,0.814c-0.245,1.153-0.993,0.907-2.245-0.737c-1.131,0.506-6.109-0.125-8.335,0.106
			c-7.965-2.566,59.557,10.357-3.564-1.179l0.848-0.383c-0.599,0.269-1.783,1.149-1.77,0.604c-3.045,3.693-1.941-0.375-2.388-0.137
			c0.832,0.469-5.234,0.842-3.805,0.2c1.109,0.019-1.634,2.156-2.503,2.075c0.334,0.463-0.435,0.948-1.064,1.1
			c-0.218-1.522-1.07,0.583,0.152-1.359c-1.448,0.642-12.441,0.353-14.857-0.202l0.831,0.41c0.262-0.709-13.536,1.052-9.867-0.624
			c-1.626-0.019-4.407,1.247-4.879,1.428c0.007-0.869-15.108,0.792-15.852,0.758c-0.77-2.132-1.38,0.063-3.207-1.914l0.339-0.153
			C913.928-150.285,906.907-146.665,905.429-145.85z M994.602-148.49C994.49-148.436,994.514-148.57,994.602-148.49
			C994.58-148.48,994.584-148.507,994.602-148.49z M1207.418-144.215c0.098-0.11,0.32-0.129,0.837,0H1207.418z"/>
		<path fill="#202020" d="M808.255-142.83v-1.324 M505.429-145.85c-2.36-1.762-2.46-2.497-0.3-2.205
			c-0.628-1.231-12.983,1.636-14.007,1.837c0.858-1.171,2.629-1.77,3.726-2.465c-0.837-0.012-2.844,0.116-3.28,0.896
			c0.337-0.152,0.762-0.539,1.095-0.296c-1.796,2.171-23.095-3.587-20.853,0.851l0.164,0.1c-2.302-1.473-4.739-6.55-4.005-2.294
			c-1.53,0.813-4.319-0.245-3.805-1.533c-4.525,1.622-15.133,3.362-18.714,1.693l0.64-0.673c-3.859-1.023-31.948,0.847-31.931,0.615
			l0.266,0.031c-0.875-2.466-10.83,3.416-13.395-0.717c0.128,6.869-4.232,30.011,4.088,30.011c13.642,0,27.284,0,40.925,0
			c54.352,0,108.705,0,163.057,0c53.341,0,106.681,0,160.022,0c12.377,0,24.754,0,37.131,0c7.724,0-1.53-27.108,0.756-28.14
			c0.514,0.509,0.824,0.303,0.931-0.619c-0.245,1.153-0.993,0.907-2.245-0.737c-6.623,2.962-5.106,0.169-11.898-1.072l0.848-0.383
			c-1.453-0.202-1.74,0.188-0.861,1.168c1.175,0.392-6.166,0.825-3.298-0.701c0.417,0.235-5.373,0.905-3.805,0.2
			c0.188,1.764-0.647,2.456-2.503,2.075l0.793,0.26c-0.269,0.71-0.932,0.617-1.857,0.841c-0.144-1.008-12.145-5.08-5.158-1.968
			l-1.78,1.388c4.899,0.079-4.525-0.236-7.768-0.982l0.831,0.41c0.597-1.617-10.398,1.476-10.903,1.408
			c0.604-0.858-0.307-1.418,1.036-2.032c-1.428-0.017-4.18,1.878-4.882,1.817c-0.082-0.16,0.003-0.39,0.003-0.39
			c-0.01,1.282-10.458-0.05-12.633,0.044c0.085-0.236,0.004-0.394,0.255-0.312c-1.83-0.734-1.125,2.268-3.208,1.447
			c-0.586-0.704-2.661-1.457-3.473-2.336l0.339-0.153c-3.954-3.258-7.356,6.462-9.057,0.967c-1.517,0.294-3.101,2.65-1.586-0.257
			c-0.628-1.231-12.983,1.636-14.007,1.837c0.858-1.171,2.629-1.77,3.726-2.465c-0.837-0.012-2.844,0.116-3.28,0.896
			c0.337-0.152,0.762-0.539,1.095-0.296c-1.796,2.171-23.095-3.587-20.853,0.851l0.164,0.1c-2.302-1.473-4.739-6.55-4.005-2.294
			c-1.53,0.813-4.319-0.245-3.805-1.533c-4.525,1.622-15.133,3.362-18.714,1.693l0.64-0.673c-3.859-1.023-31.948,0.847-31.931,0.615
			l0.266,0.031c0.122,0.345-19.69-1.401-20.989-1.77c-0.418-0.021-10.575,0.891-10.7,0.912c-3.052-0.112-6.055,0.947-7.985,0.58
			c-3.435,4.216-7.629,0.018-6.81,0.814c-0.245,1.153-0.993,0.907-2.245-0.737c-1.131,0.506-6.109-0.125-8.335,0.106
			c-7.965-2.566,59.557,10.357-3.564-1.179l0.848-0.383c-0.599,0.269-1.783,1.149-1.77,0.604c-3.045,3.693-1.941-0.375-2.388-0.137
			c0.832,0.469-5.234,0.842-3.805,0.2c1.109,0.019-1.634,2.156-2.503,2.075c0.334,0.463-0.435,0.948-1.064,1.1
			c-0.218-1.522-1.07,0.583,0.152-1.359c-1.448,0.642-12.441,0.353-14.857-0.202l0.831,0.41c0.262-0.709-13.536,1.052-9.867-0.624
			c-1.626-0.019-4.407,1.247-4.879,1.428c0.007-0.869-15.108,0.792-15.852,0.758c-0.77-2.132-1.38,0.063-3.207-1.914l0.339-0.153
			C513.928-150.285,506.907-146.665,505.429-145.85z M594.602-148.49C594.49-148.436,594.514-148.57,594.602-148.49
			C594.58-148.48,594.584-148.507,594.602-148.49z M807.418-144.215c0.098-0.11,0.32-0.129,0.837,0H807.418z"/>
		<path fill="#202020" d="M408.255-142.83v-1.324 M105.429-145.85c-2.36-1.762-2.46-2.497-0.3-2.205
			c-0.628-1.231-12.983,1.636-14.007,1.837c0.858-1.171,2.629-1.77,3.726-2.465c-0.837-0.012-2.844,0.116-3.28,0.896
			c0.337-0.152,0.762-0.539,1.095-0.296c-1.796,2.171-23.095-3.587-20.853,0.851l0.164,0.1c-2.302-1.473-4.739-6.55-4.005-2.294
			c-1.53,0.813-4.319-0.245-3.805-1.533c-4.525,1.622-15.133,3.362-18.714,1.693l0.64-0.673c-3.859-1.023-31.948,0.847-31.931,0.615
			l0.266,0.031c-0.875-2.466-10.83,3.416-13.395-0.717C1.157-143.141-3.203-120,5.117-120c13.642,0,27.284,0,40.925,0
			c54.352,0,108.705,0,163.057,0c53.341,0,106.681,0,160.022,0c12.377,0,24.754,0,37.131,0c7.724,0-1.53-27.108,0.756-28.14
			c0.514,0.509,0.824,0.303,0.931-0.619c-0.245,1.153-0.993,0.907-2.245-0.737c-6.623,2.962-5.106,0.169-11.898-1.072l0.848-0.383
			c-1.453-0.202-1.74,0.188-0.861,1.168c1.175,0.392-6.166,0.825-3.298-0.701c0.417,0.235-5.373,0.905-3.805,0.2
			c0.188,1.764-0.647,2.456-2.503,2.075l0.793,0.26c-0.269,0.71-0.932,0.617-1.857,0.841c-0.144-1.008-12.145-5.08-5.158-1.968
			l-1.78,1.388c4.899,0.079-4.525-0.236-7.768-0.982l0.831,0.41c0.597-1.617-10.398,1.476-10.903,1.408
			c0.604-0.858-0.307-1.418,1.036-2.032c-1.428-0.017-4.18,1.878-4.882,1.817c-0.082-0.16,0.003-0.39,0.003-0.39
			c-0.01,1.282-10.458-0.05-12.633,0.044c0.085-0.236,0.004-0.394,0.255-0.312c-1.83-0.734-1.125,2.268-3.208,1.447
			c-0.586-0.704-2.661-1.457-3.473-2.336l0.339-0.153c-3.954-3.258-7.356,6.462-9.057,0.967c-1.517,0.294-3.101,2.65-1.586-0.257
			c-0.628-1.231-12.983,1.636-14.007,1.837c0.858-1.171,2.629-1.77,3.726-2.465c-0.837-0.012-2.844,0.116-3.28,0.896
			c0.337-0.152,0.762-0.539,1.095-0.296c-1.796,2.171-23.095-3.587-20.853,0.851l0.164,0.1c-2.302-1.473-4.739-6.55-4.005-2.294
			c-1.53,0.813-4.319-0.245-3.805-1.533c-4.525,1.622-15.133,3.362-18.714,1.693l0.64-0.673c-3.859-1.023-31.948,0.847-31.931,0.615
			l0.266,0.031c0.122,0.345-19.69-1.401-20.989-1.77c-0.418-0.021-10.575,0.891-10.7,0.912c-3.052-0.112-6.055,0.947-7.985,0.58
			c-3.435,4.216-7.629,0.018-6.81,0.814c-0.245,1.153-0.993,0.907-2.245-0.737c-1.131,0.506-6.109-0.125-8.335,0.106
			c-7.965-2.566,59.558,10.357-3.564-1.179l0.848-0.383c-0.599,0.269-1.783,1.149-1.77,0.604c-3.045,3.693-1.941-0.375-2.388-0.137
			c0.832,0.469-5.234,0.842-3.805,0.2c1.109,0.019-1.634,2.156-2.503,2.075c0.334,0.463-0.435,0.948-1.064,1.1
			c-0.218-1.522-1.07,0.583,0.152-1.359c-1.448,0.642-12.441,0.353-14.857-0.202l0.831,0.41c0.262-0.709-13.536,1.052-9.867-0.624
			c-1.626-0.019-4.407,1.247-4.879,1.428c0.007-0.869-15.108,0.792-15.852,0.758c-0.77-2.132-1.38,0.063-3.207-1.914l0.339-0.153
			C113.928-150.285,106.907-146.665,105.429-145.85z M194.602-148.49C194.49-148.436,194.514-148.57,194.602-148.49
			C194.58-148.48,194.584-148.507,194.602-148.49z M407.418-144.215c0.098-0.11,0.32-0.129,0.837,0H407.418z"/>
		<path fill="#202020" d="M1208.255-172.83v-1.324 M905.429-175.85c-2.36-1.762-2.46-2.497-0.3-2.205
			c-0.628-1.231-12.983,1.636-14.007,1.837c0.858-1.171,2.629-1.77,3.726-2.465c-0.837-0.012-2.844,0.116-3.28,0.896
			c0.337-0.152,0.762-0.539,1.095-0.296c-1.796,2.171-23.095-3.587-20.853,0.851l0.164,0.1c-2.302-1.473-4.739-6.55-4.005-2.294
			c-1.53,0.813-4.319-0.245-3.805-1.533c-4.525,1.622-15.133,3.362-18.714,1.693l0.64-0.673c-3.859-1.023-31.948,0.847-31.931,0.615
			l0.266,0.031c-0.875-2.466-10.83,3.416-13.395-0.717c0.128,6.869-4.232,30.011,4.088,30.011c13.642,0,27.284,0,40.925,0
			c54.352,0,108.705,0,163.057,0c53.341,0,106.681,0,160.022,0c12.377,0,24.754,0,37.131,0c7.724,0-1.53-27.108,0.756-28.14
			c0.514,0.509,0.824,0.303,0.931-0.619c-0.245,1.153-0.993,0.907-2.245-0.737c-6.623,2.962-5.106,0.169-11.898-1.072l0.848-0.383
			c-1.453-0.202-1.74,0.188-0.861,1.168c1.175,0.392-6.166,0.825-3.298-0.701c0.417,0.235-5.373,0.905-3.805,0.2
			c0.188,1.764-0.647,2.456-2.503,2.075l0.793,0.26c-0.269,0.71-0.932,0.617-1.857,0.841c-0.144-1.008-12.145-5.08-5.158-1.968
			l-1.78,1.388c4.899,0.079-4.525-0.236-7.767-0.982l0.831,0.41c0.597-1.617-10.398,1.476-10.903,1.408
			c0.604-0.858-0.307-1.418,1.036-2.032c-1.428-0.017-4.18,1.878-4.882,1.817c-0.082-0.16,0.003-0.39,0.003-0.39
			c-0.01,1.282-10.458-0.05-12.633,0.044c0.085-0.236,0.004-0.394,0.255-0.312c-1.83-0.734-1.125,2.268-3.208,1.447
			c-0.586-0.704-2.661-1.457-3.473-2.336l0.339-0.153c-3.954-3.258-7.356,6.462-9.057,0.967c-1.517,0.294-3.101,2.65-1.586-0.257
			c-0.628-1.231-12.983,1.636-14.007,1.837c0.858-1.171,2.629-1.77,3.726-2.465c-0.837-0.012-2.844,0.116-3.28,0.896
			c0.337-0.152,0.762-0.539,1.095-0.296c-1.796,2.171-23.095-3.587-20.853,0.851l0.164,0.1c-2.302-1.473-4.739-6.55-4.005-2.294
			c-1.53,0.813-4.318-0.245-3.805-1.533c-4.525,1.622-15.133,3.362-18.714,1.693l0.64-0.673c-3.859-1.023-31.948,0.847-31.931,0.615
			l0.266,0.031c0.123,0.345-19.69-1.401-20.989-1.77c-0.418-0.021-10.575,0.891-10.7,0.912c-3.052-0.112-6.055,0.947-7.985,0.58
			c-3.435,4.216-7.629,0.018-6.81,0.814c-0.245,1.153-0.993,0.907-2.245-0.737c-1.131,0.506-6.109-0.125-8.335,0.106
			c-7.965-2.566,59.557,10.357-3.564-1.179l0.848-0.383c-0.599,0.269-1.783,1.149-1.77,0.604c-3.045,3.693-1.941-0.375-2.388-0.137
			c0.832,0.469-5.234,0.842-3.805,0.2c1.109,0.019-1.634,2.156-2.503,2.075c0.334,0.463-0.435,0.948-1.064,1.1
			c-0.218-1.522-1.07,0.583,0.152-1.359c-1.448,0.642-12.441,0.353-14.857-0.202l0.831,0.41c0.262-0.709-13.536,1.052-9.867-0.624
			c-1.626-0.019-4.407,1.247-4.879,1.428c0.007-0.869-15.108,0.792-15.852,0.758c-0.77-2.132-1.38,0.063-3.207-1.914l0.339-0.153
			C913.928-180.285,906.907-176.665,905.429-175.85z M994.602-178.49C994.49-178.436,994.514-178.57,994.602-178.49
			C994.58-178.48,994.584-178.507,994.602-178.49z M1207.418-174.215c0.098-0.11,0.32-0.129,0.837,0H1207.418z"/>
		<path fill="#202020" d="M808.255-172.83v-1.324 M505.429-175.85c-2.36-1.762-2.46-2.497-0.3-2.205
			c-0.628-1.231-12.983,1.636-14.007,1.837c0.858-1.171,2.629-1.77,3.726-2.465c-0.837-0.012-2.844,0.116-3.28,0.896
			c0.337-0.152,0.762-0.539,1.095-0.296c-1.796,2.171-23.095-3.587-20.853,0.851l0.164,0.1c-2.302-1.473-4.739-6.55-4.005-2.294
			c-1.53,0.813-4.319-0.245-3.805-1.533c-4.525,1.622-15.133,3.362-18.714,1.693l0.64-0.673c-3.859-1.023-31.948,0.847-31.931,0.615
			l0.266,0.031c-0.875-2.466-10.83,3.416-13.395-0.717c0.128,6.869-4.232,30.011,4.088,30.011c13.642,0,27.284,0,40.925,0
			c54.352,0,108.705,0,163.057,0c53.341,0,106.681,0,160.022,0c12.377,0,24.754,0,37.131,0c7.724,0-1.53-27.108,0.756-28.14
			c0.514,0.509,0.824,0.303,0.931-0.619c-0.245,1.153-0.993,0.907-2.245-0.737c-6.623,2.962-5.106,0.169-11.898-1.072l0.848-0.383
			c-1.453-0.202-1.74,0.188-0.861,1.168c1.175,0.392-6.166,0.825-3.298-0.701c0.417,0.235-5.373,0.905-3.805,0.2
			c0.188,1.764-0.647,2.456-2.503,2.075l0.793,0.26c-0.269,0.71-0.932,0.617-1.857,0.841c-0.144-1.008-12.145-5.08-5.158-1.968
			l-1.78,1.388c4.899,0.079-4.525-0.236-7.768-0.982l0.831,0.41c0.597-1.617-10.398,1.476-10.903,1.408
			c0.604-0.858-0.307-1.418,1.036-2.032c-1.428-0.017-4.18,1.878-4.882,1.817c-0.082-0.16,0.003-0.39,0.003-0.39
			c-0.01,1.282-10.458-0.05-12.633,0.044c0.085-0.236,0.004-0.394,0.255-0.312c-1.83-0.734-1.125,2.268-3.208,1.447
			c-0.586-0.704-2.661-1.457-3.473-2.336l0.339-0.153c-3.954-3.258-7.356,6.462-9.057,0.967c-1.517,0.294-3.101,2.65-1.586-0.257
			c-0.628-1.231-12.983,1.636-14.007,1.837c0.858-1.171,2.629-1.77,3.726-2.465c-0.837-0.012-2.844,0.116-3.28,0.896
			c0.337-0.152,0.762-0.539,1.095-0.296c-1.796,2.171-23.095-3.587-20.853,0.851l0.164,0.1c-2.302-1.473-4.739-6.55-4.005-2.294
			c-1.53,0.813-4.319-0.245-3.805-1.533c-4.525,1.622-15.133,3.362-18.714,1.693l0.64-0.673c-3.859-1.023-31.948,0.847-31.931,0.615
			l0.266,0.031c0.122,0.345-19.69-1.401-20.989-1.77c-0.418-0.021-10.575,0.891-10.7,0.912c-3.052-0.112-6.055,0.947-7.985,0.58
			c-3.435,4.216-7.629,0.018-6.81,0.814c-0.245,1.153-0.993,0.907-2.245-0.737c-1.131,0.506-6.109-0.125-8.335,0.106
			c-7.965-2.566,59.557,10.357-3.564-1.179l0.848-0.383c-0.599,0.269-1.783,1.149-1.77,0.604c-3.045,3.693-1.941-0.375-2.388-0.137
			c0.832,0.469-5.234,0.842-3.805,0.2c1.109,0.019-1.634,2.156-2.503,2.075c0.334,0.463-0.435,0.948-1.064,1.1
			c-0.218-1.522-1.07,0.583,0.152-1.359c-1.448,0.642-12.441,0.353-14.857-0.202l0.831,0.41c0.262-0.709-13.536,1.052-9.867-0.624
			c-1.626-0.019-4.407,1.247-4.879,1.428c0.007-0.869-15.108,0.792-15.852,0.758c-0.77-2.132-1.38,0.063-3.207-1.914l0.339-0.153
			C513.928-180.285,506.907-176.665,505.429-175.85z M594.602-178.49C594.49-178.436,594.514-178.57,594.602-178.49
			C594.58-178.48,594.584-178.507,594.602-178.49z M807.418-174.215c0.098-0.11,0.32-0.129,0.837,0H807.418z"/>
		<path fill="#202020" d="M408.255-172.83v-1.324 M105.429-175.85c-2.36-1.762-2.46-2.497-0.3-2.205
			c-0.628-1.231-12.983,1.636-14.007,1.837c0.858-1.171,2.629-1.77,3.726-2.465c-0.837-0.012-2.844,0.116-3.28,0.896
			c0.337-0.152,0.762-0.539,1.095-0.296c-1.796,2.171-23.095-3.587-20.853,0.851l0.164,0.1c-2.302-1.473-4.739-6.55-4.005-2.294
			c-1.53,0.813-4.319-0.245-3.805-1.533c-4.525,1.622-15.133,3.362-18.714,1.693l0.64-0.673c-3.859-1.023-31.948,0.847-31.931,0.615
			l0.266,0.031c-0.875-2.466-10.83,3.416-13.395-0.717C1.157-173.141-3.203-150,5.117-150c13.642,0,27.284,0,40.925,0
			c54.352,0,108.705,0,163.057,0c53.341,0,106.681,0,160.022,0c12.377,0,24.754,0,37.131,0c7.724,0-1.53-27.108,0.756-28.14
			c0.514,0.509,0.824,0.303,0.931-0.619c-0.245,1.153-0.993,0.907-2.245-0.737c-6.623,2.962-5.106,0.169-11.898-1.072l0.848-0.383
			c-1.453-0.202-1.74,0.188-0.861,1.168c1.175,0.392-6.166,0.825-3.298-0.701c0.417,0.235-5.373,0.905-3.805,0.2
			c0.188,1.764-0.647,2.456-2.503,2.075l0.793,0.26c-0.269,0.71-0.932,0.617-1.857,0.841c-0.144-1.008-12.145-5.08-5.158-1.968
			l-1.78,1.388c4.899,0.079-4.525-0.236-7.768-0.982l0.831,0.41c0.597-1.617-10.398,1.476-10.903,1.408
			c0.604-0.858-0.307-1.418,1.036-2.032c-1.428-0.017-4.18,1.878-4.882,1.817c-0.082-0.16,0.003-0.39,0.003-0.39
			c-0.01,1.282-10.458-0.05-12.633,0.044c0.085-0.236,0.004-0.394,0.255-0.312c-1.83-0.734-1.125,2.268-3.208,1.447
			c-0.586-0.704-2.661-1.457-3.473-2.336l0.339-0.153c-3.954-3.258-7.356,6.462-9.057,0.967c-1.517,0.294-3.101,2.65-1.586-0.257
			c-0.628-1.231-12.983,1.636-14.007,1.837c0.858-1.171,2.629-1.77,3.726-2.465c-0.837-0.012-2.844,0.116-3.28,0.896
			c0.337-0.152,0.762-0.539,1.095-0.296c-1.796,2.171-23.095-3.587-20.853,0.851l0.164,0.1c-2.302-1.473-4.739-6.55-4.005-2.294
			c-1.53,0.813-4.319-0.245-3.805-1.533c-4.525,1.622-15.133,3.362-18.714,1.693l0.64-0.673c-3.859-1.023-31.948,0.847-31.931,0.615
			l0.266,0.031c0.122,0.345-19.69-1.401-20.989-1.77c-0.418-0.021-10.575,0.891-10.7,0.912c-3.052-0.112-6.055,0.947-7.985,0.58
			c-3.435,4.216-7.629,0.018-6.81,0.814c-0.245,1.153-0.993,0.907-2.245-0.737c-1.131,0.506-6.109-0.125-8.335,0.106
			c-7.965-2.566,59.558,10.357-3.564-1.179l0.848-0.383c-0.599,0.269-1.783,1.149-1.77,0.604c-3.045,3.693-1.941-0.375-2.388-0.137
			c0.832,0.469-5.234,0.842-3.805,0.2c1.109,0.019-1.634,2.156-2.503,2.075c0.334,0.463-0.435,0.948-1.064,1.1
			c-0.218-1.522-1.07,0.583,0.152-1.359c-1.448,0.642-12.441,0.353-14.857-0.202l0.831,0.41c0.262-0.709-13.536,1.052-9.867-0.624
			c-1.626-0.019-4.407,1.247-4.879,1.428c0.007-0.869-15.108,0.792-15.852,0.758c-0.77-2.132-1.38,0.063-3.207-1.914l0.339-0.153
			C113.928-180.285,106.907-176.665,105.429-175.85z M194.602-178.49C194.49-178.436,194.514-178.57,194.602-178.49
			C194.58-178.48,194.584-178.507,194.602-178.49z M407.418-174.215c0.098-0.11,0.32-0.129,0.837,0H407.418z"/>
	</pattern>
	<rect fill="url(#dryBrushPattern)" width="100%" height="100%"/>
</svg>
