<svg version="1.1" xmlns="http://www.w3.org/2000/svg" xmlns:xlink="http://www.w3.org/1999/xlink" x="0px" y="0px">
	<defs>
		<symbol id="icon-twitter" viewBox="0 0 16 16">
			<title>Twitter</title>
			<path d="M16 3.538c-0.588 0.263-1.222 0.438-1.884 0.516 0.678-0.406 1.197-1.050 1.444-1.816-0.634 0.375-1.338 0.65-2.084 0.797-0.6-0.638-1.453-1.034-2.397-1.034-1.813 0-3.281 1.469-3.281 3.281 0 0.256 0.028 0.506 0.084 0.747-2.728-0.138-5.147-1.444-6.766-3.431-0.281 0.484-0.444 1.050-0.444 1.65 0 1.138 0.578 2.144 1.459 2.731-0.538-0.016-1.044-0.166-1.488-0.409 0 0.013 0 0.028 0 0.041 0 1.591 1.131 2.919 2.634 3.219-0.275 0.075-0.566 0.116-0.866 0.116-0.212 0-0.416-0.022-0.619-0.059 0.419 1.303 1.631 2.253 3.066 2.281-1.125 0.881-2.538 1.406-4.078 1.406-0.266 0-0.525-0.016-0.784-0.047 1.456 0.934 3.181 1.475 5.034 1.475 6.037 0 9.341-5.003 9.341-9.341 0-0.144-0.003-0.284-0.009-0.425 0.641-0.459 1.197-1.038 1.637-1.697z"></path>
		</symbol>
		<symbol id="icon-facebook" viewBox="0 0 16 16">
			<title>Facebook</title>
			<path d="M9.5 3h2.5v-3h-2.5c-1.93 0-3.5 1.57-3.5 3.5v1.5h-2v3h2v8h3v-8h2.5l0.5-3h-3v-1.5c0-0.271 0.229-0.5 0.5-0.5z"></path>
		</symbol>
		<symbol id="icon-google-plus" viewBox="0 0 16 16">
			<title>Google+</title>
			<path d="M5.091 7.147v1.747h2.888c-0.116 0.75-0.872 2.197-2.888 2.197-1.737 0-3.156-1.441-3.156-3.216s1.419-3.216 3.156-3.216c0.991 0 1.65 0.422 2.028 0.784l1.381-1.331c-0.888-0.828-2.037-1.331-3.409-1.331-2.816 0.003-5.091 2.278-5.091 5.094s2.275 5.091 5.091 5.091c2.937 0 4.888-2.066 4.888-4.975 0-0.334-0.037-0.591-0.081-0.844h-4.806z"></path>
			<path d="M16 7h-1.5v-1.5h-1.5v1.5h-1.5v1.5h1.5v1.5h1.5v-1.5h1.5z"></path>
		</symbol>
		<symbol id="icon-linkedin" viewBox="0 0 16 16">
			<title>LinkedIn</title>
			<path d="M6 6h2.767v1.418h0.040c0.385-0.691 1.327-1.418 2.732-1.418 2.921 0 3.461 1.818 3.461 4.183v4.817h-2.885v-4.27c0-1.018-0.021-2.329-1.5-2.329-1.502 0-1.732 1.109-1.732 2.255v4.344h-2.883v-9z"></path>
			<path d="M1 6h3v9h-3v-9z"></path>
			<path d="M4 3.5c0 0.828-0.672 1.5-1.5 1.5s-1.5-0.672-1.5-1.5c0-0.828 0.672-1.5 1.5-1.5s1.5 0.672 1.5 1.5z"></path>
		</symbol>
		<symbol id="icon-menu" viewBox="0 0 16 16">
			<title>Menu</title>
			<path d="M1 3h14v3h-14zM1 7h14v3h-14zM1 11h14v3h-14z"></path>
		</symbol>




  		<g id="logo-shadow">
			<path fill="#739888" d="M153.943,124.766c-4.043,0-6.546,3.698-6.546,7.123c0,3.137,2.085,5.328,5.071,5.328c4.043,0,6.546-3.664,6.546-7.059
				C159.014,126.932,156.976,124.766,153.943,124.766z"/>
			<path fill="#739888" d="M221.934,153.463l-1.596-1.219l-6.174,7.689l1.544,1.294c1.773,1.486,2.79,3.692,2.79,6.053
				c0,3.425-2.105,7.111-6.726,7.111c-2.608,0-6.983-1.007-6.983-7.752c0-2.622,1.148-5.613,2.258-8.506
				c1.048-2.731,2.038-5.312,2.038-7.587c0-3.981-2.548-6.843-4.618-8.976c0.844-3.043,1.299-6.02,1.537-9.942l0.099-1.637
				l-8.331-2.444l-0.597,1.941c-1.053,3.425-1.566,6.224-1.566,8.556c0,0.908,0.073,1.786,0.222,2.644
				c-0.927-2.78-3.285-4.509-6.434-4.509c-7.251,0-11.998,8.017-13.521,16.032c-1.941,5.032-3.65,7.489-4.624,8.497
				c-0.085-0.312-0.169-0.651-0.241-0.944c-0.243-0.987-0.524-2.128-0.986-3.254c4.725-3.523,7.581-9.667,7.581-13.913
				c0-3.958-2.238-6.417-5.841-6.417c-0.397,0-0.824,0.036-1.274,0.125c3.133-4.703,6.409-10.852,6.409-15.314
				c0-3.818-2.423-6.097-6.482-6.097c-2.402,0-5.573,1.366-7.269,5.203c-2.032,4.61-4.348,14.876-7.285,32.296
				c-1.746,4.526-2.966,6.871-3.749,8.083c0.205-4.29,1.54-10.174,3.194-17.465c0.269-1.187,0.547-2.414,0.832-3.682l0.563-2.508
				h-9.649l-0.374,1.585c-0.158,0.667-0.351,1.45-0.568,2.325c-0.489,1.98-1.089,4.407-1.648,7.001
				c-0.419-7.37-3.136-11.104-8.091-11.104c-0.073,0-0.147,0.001-0.221,0.003c0.851-1.148,1.646-2.302,2.38-3.451l45.24-45.241
				c3.497-3.497,5.422-8.158,5.422-13.126s-1.926-9.629-5.422-13.126L127.51,5.422C124.014,1.926,119.352,0,114.384,0
				s-9.63,1.926-13.126,5.422L44.993,61.686c-3.496,3.496-5.422,8.158-5.422,13.126s1.925,9.63,5.422,13.126l27.179,27.179
				l-3.985-0.903l-0.744,1.368c-4.738,8.709-9.362,26.301-12.809,41.758c0.003-0.572,0.004-1.148,0.004-1.728
				c0-6.741-0.295-15.418-2.597-22.743c-3.537-11.138-12.158-17.272-24.274-17.272c-8.11,0-15.06,2.639-20.098,7.633
				C2.652,128.203,0,135.033,0,142.981c0,12.688,8.413,21.549,20.459,21.549c11.05,0,18.61-6.5,20.744-17.834l0.363-1.931
				l-10.032-2.372l-0.349,2.188c-1.214,7.618-5.194,11.987-10.919,11.987c-5.007,0-10.06-4.062-10.06-13.138
				c0-11.85,7.063-20.126,17.177-20.126c11.613,0,16.792,9.569,16.792,31.026c0,1.475-0.016,2.934-0.032,4.385
				c-0.016,1.45-0.032,2.893-0.032,4.335c0,5.994,0.17,12.99,2.193,20.177l0.332,1.177l8.277,1.886l0.843-3.818
				c2.549-11.547,5.147-23.313,7.728-33.451c-0.409,5.731-0.715,11.971-0.715,17.811c0,7.179,0.47,12.917,1.396,17.056l0.315,1.405
				l9.707,1.262l0.407-1.839c4.318-19.526,9.126-39.221,15.099-52.077l4.445,4.445c-6.099,2.873-10.085,12.094-10.085,20.515
				c0,8.151,3.81,13.214,9.944,13.214c2.725,0,6.117-0.786,9.611-5.925c1.104,3.146,3.295,5.605,7.443,5.605
				c3.354,0,6.677-2.556,9.415-7.218c0.967-0.362,1.906-0.853,2.792-1.455c1.066,7.053,4.892,8.673,8.181,8.673
				c3.353,0,6.677-2.556,9.415-7.219c0.653-0.245,1.295-0.551,1.918-0.911c0.263,3.57,1.586,8.129,6.618,8.129
				c1.621,0,2.973-0.52,4.081-1.26l0.105,0.94h8.851l0.225-1.803c0.113-0.898,0.234-1.808,0.36-2.722
				c1.025,2.643,2.815,4.845,6.318,4.845c3.156,0,5.522-2.324,7.418-5.405c1.63,3.662,4.611,5.725,8.546,5.725
				c4.818,0,8.031-3.018,10.567-7.388c-0.197,1.027-0.315,2.081-0.315,3.15c0,9.832,8.327,15.138,16.163,15.138
				c4.863,0,9.032-1.711,12.059-4.948c2.69-2.878,4.233-6.849,4.233-10.895C228,160.929,225.789,156.407,221.934,153.463z
				 M196.263,143.494c0-0.447-0.029-0.879-0.085-1.294c0.139,0.485,0.304,0.964,0.495,1.439c-0.689,3.189-1.479,5.952-2.407,8.429
				l-0.094,0.252c-2.185,5.76-4.788,8.928-7.339,8.928c-1.544,0-1.899-2.536-1.967-4.171
				C192.037,155.138,196.263,148.89,196.263,143.494z M84.162,127.107c-4.002,8.229-7.65,19.358-11.048,33.737
				c-0.006-0.697-0.009-1.416-0.009-2.154c0-8.827,0.5-22.832,2.858-39.783L84.162,127.107z M132.343,150.803
				c0-3.165,1.282-5.652,2.453-5.876c0.205,0.352,0.549,1.408,0.549,3.632c0,2.508-0.388,5.323-1.048,7.781
				C132.883,155.078,132.343,152.76,132.343,150.803z M95.536,161.248c-1.544,0-1.899-2.536-1.967-4.171
				c4.414-1.193,7.713-4.019,9.597-7.273c-0.116,0.878-0.213,1.718-0.294,2.526C100.687,158.083,98.086,161.248,95.536,161.248z
				 M112.031,149.478c0.96,0.121,1.928,0.166,2.903,0.14c-0.091,2.223-0.457,4.605-1.026,6.722c-1.413-1.262-1.953-3.58-1.953-5.537
				C111.955,150.358,111.981,149.914,112.031,149.478z"/>
  		</g>
  		<g id="logo-shield">
			<path fill="#FFFFFF" d="M220.593,95.477L132.829,7.713C127.855,2.739,121.223,0,114.152,0c-7.07,0-13.703,2.739-18.676,7.713
				L7.712,95.477C2.739,100.449,0,107.082,0,114.152s2.739,13.703,7.712,18.676l87.764,87.765c4.974,4.974,11.606,7.713,18.676,7.713
				c7.07,0,13.703-2.739,18.676-7.713l87.764-87.765c4.974-4.973,7.712-11.605,7.712-18.676S225.566,100.449,220.593,95.477z"/>
			<path d="M127.817,215.582c-7.516,7.517-19.814,7.517-27.33,0l-87.764-87.765c-7.516-7.516-7.516-19.814,0-27.33l87.764-87.764
				c7.516-7.517,19.814-7.517,27.33,0l87.765,87.764c7.516,7.516,7.516,19.814,0,27.33L127.817,215.582z"/>
			<path fill="#FFCC00" d="M124.196,206.832c-5.524,5.523-14.564,5.523-20.088,0l-82.635-82.636c-5.524-5.524-5.524-14.564,0-20.088
				l82.635-82.635c5.524-5.524,14.564-5.524,20.088,0l82.636,82.635c5.524,5.523,5.524,14.563,0,20.088L124.196,206.832z"/>
		</g>
		<g id="logo-bike">
			<path d="M137.498,68.079c0.004-3.811-2.592-5.801-3.541-6.958c-1.307-1.559-2.961-2.111-3.7-2.293
				c-0.054-0.158-0.129-0.308-0.21-0.48c-0.473-0.942-1.35-2.163-1.358-2.176l-0.038-0.048c-1.592-1.783-3.176-2.417-4.521-2.413
				c-1.519,0.014-2.628,0.751-3.197,1.233l-0.553-0.554l-0.042-0.038c-0.926-0.755-1.92-1.025-2.788-1.023
				c-0.976,0.006-1.796,0.315-2.337,0.589c-0.005-0.051-0.007-0.103-0.007-0.151c0-0.095,0.01-0.182,0.026-0.246
				c-0.006-0.072,0.306-0.528,0.886-1.146c0.576-0.633,1.401-1.498,2.422-2.676c0.979-1.108,1.435-1.971,1.422-3.092
				c-0.008-1.222-0.422-2.662-0.826-5.598c-0.315-2.353-1.576-3.764-2.952-4.488c-1.372-0.732-2.828-0.851-3.703-0.853
				c-0.487,0-0.796,0.04-0.815,0.042l-0.053,0.01c-1.853,0.423-3.971,0.609-6.157,0.609c-4.056,0-8.346-0.643-11.631-1.538
				c-2.473-0.673-4.288-1.147-5.952-1.151c-1.802-0.008-3.381,0.607-5.128,2.033c-0.84,0.682-1.94,0.942-3.134,0.943
				c-1.4,0.001-2.894-0.365-4.07-0.74c-0.589-0.188-1.099-0.376-1.487-0.52c-0.195-0.072-0.359-0.133-0.495-0.179
				c-0.144-0.042-0.202-0.079-0.399-0.093v-0.001c-0.119-0.015-0.791-0.369-1.886-1.104c-1.112-0.737-2.723-1.862-4.982-3.466
				c-1.996-1.418-4.021-1.857-5.717-1.856c-2.625,0.003-4.475,1.021-4.523,1.044L56,29.736l-5.191,3.657
				c0.013-0.141,0.019-0.278,0.019-0.415c-0.006-1.176-0.423-2.244-0.613-2.678c0.668-2.345,1.186-3.627,1.523-4.301
				c0.169-0.338,0.292-0.522,0.358-0.607c0.647-0.199,1.156-0.717,1.7-1.34c1.571-1.869,3.14-5.047,3.441-5.662
				c3.28-2.858,6.756-3.064,7.685-3.064c0.086,0,0.146,0.001,0.184,0.003c4.006,1.103,11.388,1.71,11.406,1.714
				c0.061,0.005,0.124,0,0.184-0.016c1.772-0.453,3.032-1.278,3.83-2.33c0.798-1.051,1.119-2.299,1.116-3.542
				c-0.001-1.546-0.48-3.099-1.169-4.417c-1.165-2.265-2.974-2.777-4.08-2.757c-0.575,0.001-0.976,0.114-1.078,0.145
				c-0.681,0.182-2.128,0.311-3.841,0.377c-1.729,0.068-3.753,0.085-5.68,0.085c-1.929,0-3.761-0.017-5.114-0.017
				c-4.219,0.009-8.148,1.91-9.304,2.563C51.039,7.33,50.292,7.863,49.28,8.6c-2.059,1.504-5.089,3.783-6.795,5.071
				c0.091-0.364,0.1-0.737,0.105-1.072c0-0.2-0.008-0.382-0.017-0.524c0.162-0.124,0.399-0.303,0.68-0.503
				c0.531-0.38,1.219-0.836,1.794-1.123c0.716-0.362,1.609-1.071,2.366-1.706c0.751-0.633,1.34-1.183,1.344-1.188l0.083-0.097
				l1.523-2.285c1.263-1.206,1.862-2.112,1.886-3.028c0.006-0.491-0.231-0.937-0.562-1.223C50.69,0.09,49.058,0.023,47.635,0
				c-0.621,0-1.194,0.029-1.628,0.059c-0.754,0.059-1.608,0.436-2.605,0.993c-2.962,1.683-7.02,5.13-9.297,7.76
				c-1.588,1.858-3.272,5.862-4.633,9.47c-0.967,2.578-1.742,4.932-2.104,6.06c-2.837-1.768-5.587-2.125-5.977-2.172
				c-0.265-0.064-0.528-0.097-0.786-0.097c-0.977,0.001-1.836,0.444-2.551,1.043c-2.131,1.807-3.329,5.133-3.354,5.167
				c-0.014,0.047-1.156,3.377-1.158,7.299c0,1.541,0.177,3.176,0.683,4.741c0.537,1.677,1.557,2.75,2.697,3.354
				c1.14,0.607,2.377,0.773,3.43,0.773c0.604,0,1.15-0.057,1.587-0.122c-0.256,1.011-0.422,2.476-0.542,3.79
				c-0.081,0.898-0.135,1.715-0.165,2.219c-1.985,0.055-8.987,0.803-15.604,7.959C1.213,63.072-0.002,68.627,0,73.121
				c0.001,2.518,0.378,4.713,0.79,6.289c0.206,0.789,0.419,1.424,0.605,1.874c0.093,0.228,0.178,0.407,0.262,0.552
				c0.043,0.073,0.084,0.139,0.146,0.209c0.073,0.057,0.112,0.198,0.479,0.235c0.178,0.009,0.389-0.118,0.458-0.226l0.023-0.032
				c-0.009-0.023,0.287-0.226,0.584-0.337c0.438,6.215,2.737,11.588,6.695,15.443c4.108,4.004,9.986,6.342,17.298,6.342
				c0.476-0.001,0.958-0.011,1.447-0.03l0.077-0.009c8.326-1.499,12.887-5.867,15.3-9.852c1.929-3.174,2.523-6.096,2.688-7.174
				l0.393-0.055c4.783,4.836,12.887,5.236,12.935,5.258l34.724,2.314c2.713,4.636,8.582,9.261,16.221,9.269
				c1.235,0,2.516-0.122,3.834-0.385c8.831-1.781,12.508-8.884,13.085-10.11c1.91-1.102,3.373-3.395,4.442-5.436
				c0.81-1.561,1.364-2.982,1.6-3.617c0.238-0.061,0.519-0.2,0.79-0.465c0.4-0.381,0.804-1.002,1.198-2.049
				c0.23-0.616,0.313-1.271,0.314-1.918c-0.007-1.902-0.711-3.783-0.993-4.466C136.917,72.076,137.497,69.893,137.498,68.079z
				 M48.757,2.352c0.122,0.102,0.129,0.131,0.14,0.258c0.005,0.146-0.093,0.445-0.346,0.795c-0.802,1.124-1.372,2.126-2.691,3.152
				c-0.619,0.484-2.051,1.373-3.324,2.386c-0.639,0.511-1.245,1.054-1.711,1.628c-0.459,0.575-0.809,1.19-0.816,1.894
				c0,0.138,0.014,0.276,0.046,0.415c0.021,0.09,0.033,0.195,0.033,0.318c0.007,0.598-0.303,1.51-0.642,2.336
				c-0.167,0.416-0.339,0.815-0.474,1.172c-0.132,0.364-0.24,0.658-0.248,1.004c0.001,0.148,0.022,0.343,0.175,0.537
				c0.155,0.197,0.418,0.277,0.597,0.27c0.322-0.01,0.561-0.121,0.893-0.29c0.663-0.357,1.774-1.179,3.228-2.259
				c2.169-1.613,5.039-3.777,7.834-5.589c2.785-1.813,5.541-3.259,7.269-3.456c0.965-0.117,2.123-0.162,3.376-0.161
				c3.477-0.001,7.67,0.341,10.737,0.342c1.521-0.005,2.749-0.072,3.595-0.363c0.097-0.034,0.188-0.05,0.283-0.05
				c0.437-0.017,1.081,0.404,1.582,1.186c0.503,0.77,0.851,1.831,0.849,2.855c-0.022,1.467-0.62,2.802-2.474,3.53
				c-0.07,0.026-0.133,0.067-0.185,0.118c-0.063,0.003-0.144,0.006-0.244,0.006c-0.947,0.001-3.519-0.227-9.871-1.244
				c-0.025-0.003-0.639-0.098-1.6-0.098c-1.561,0.002-4.046,0.242-6.388,1.564c-1.83,1.035-2.864,1.931-3.486,2.702
				c-0.622,0.767-0.819,1.431-0.958,1.777c-0.121,0.311-0.665,1.327-1.315,2.214c-0.326,0.446-0.682,0.869-1.016,1.17
				c-0.332,0.307-0.646,0.465-0.797,0.475c-0.542,0.052-0.985,0.32-1.218,0.68c-0.235,0.355-0.282,0.728-0.284,1.025
				c0.001,0.223,0.029,0.412,0.056,0.541l-1.035,3.449c-0.377-0.478-0.906-1.08-1.576-1.688c-1.445-1.309-3.572-2.656-6.246-2.66
				c-0.266,0-0.535,0.014-0.81,0.042c-0.116-0.022-0.303-0.052-0.547-0.052c-0.577-0.002-1.481,0.168-2.385,0.914
				c-0.805,0.663-1.597,1.756-2.229,3.518l-4.668-2.981c0.091-0.354,0.244-0.938,0.457-1.69c1.063-3.817,3.706-11.957,6.935-15.264
				c2.151-2.226,4.375-3.912,6.274-5.033c1.885-1.126,3.499-1.67,4.211-1.655c0.045,0,0.084,0.002,0.114,0.005
				C48.341,2.141,48.631,2.256,48.757,2.352z M134.074,72.708c-0.117-0.138-0.332-0.46-0.55-1.011
				c-1.454-3.545-3.191-7.416-9.053-13.061l-0.038-0.033c-0.001-0.001-0.507-0.406-1.063-0.912c-0.371-0.33-0.77-0.731-1.025-1.036
				c0.376-0.257,1.015-0.589,1.747-0.583c0.985,0.009,2.314,0.533,3.769,3.056c-0.012,0.079-0.02,0.173-0.02,0.279
				c-0.006,0.372,0.123,0.944,0.63,1.374c0.483,0.41,1.217,0.656,2.323,0.678c0.017,0.01,0.038,0.021,0.061,0.033
				c0.399,0.232,1.441,0.906,2.365,2.049c0.924,1.147,1.735,2.739,1.737,4.883c0,0.815-0.119,1.717-0.402,2.709l-0.015,0.07
				c0,0-0.017,0.111-0.053,0.289c-0.054,0.267-0.156,0.674-0.285,0.971C134.159,72.562,134.113,72.648,134.074,72.708z M85.165,37.293
				c0.613-0.41,1.018-0.758,1.391-0.969c0.373-0.208,0.716-0.326,1.38-0.331c0.797-0.002,2.031,0.208,4.041,0.751
				c3.817,1.027,7.795,2.073,12.417,2.074c1.914,0,3.937-0.181,6.102-0.613c0.813-0.162,1.517-0.234,2.124-0.234
				c2.305,0.029,3.181,0.936,3.767,2.124c0.569,1.21,0.642,2.707,0.941,3.745c0.235,0.775,0.408,1.297,0.404,1.746
				c-0.003,0.391-0.104,0.788-0.483,1.41c-0.379,0.617-1.036,1.426-2.078,2.532c-1.544,1.634-2.009,2.944-2.412,3.659
				c-0.205,0.36-0.351,0.534-0.6,0.666c-0.252,0.135-0.687,0.234-1.457,0.233c-0.362,0-0.795-0.02-1.307-0.063
				c-0.228-0.02-0.457-0.029-0.688-0.029c-5.146,0.037-10.421,4.488-12.907,8.488c-0.217,0.373-0.829,0.775-1.659,1.069
				c-1.239,0.45-2.904,0.697-4.242,0.819c-1.291,0.119-2.271,0.129-2.344,0.131l-5.585-0.207c0,0-1.563-0.068-3.108-0.069
				c-0.581,0.001-1.158,0.01-1.656,0.037c-0.462,0.026-0.839,0.06-1.148,0.138c0.054-0.176,0.117-0.381,0.189-0.613
				c0.141-0.379,0.189-0.803,0.197-1.271h16.506c0.585-0.001,1.118-0.124,1.551-0.358c0.418-0.229,0.811-0.615,0.82-1.189
				c-0.009-0.572-0.402-0.96-0.82-1.188c-0.433-0.234-0.966-0.357-1.551-0.359h-0.139c0.045-0.021,0.09-0.043,0.133-0.066
				c0.418-0.227,0.811-0.615,0.821-1.188c-0.01-0.573-0.403-0.96-0.821-1.188c-0.433-0.234-0.966-0.356-1.55-0.358h-0.559
				c0.111-0.043,0.218-0.09,0.319-0.146c0.418-0.226,0.811-0.614,0.82-1.186c-0.009-0.572-0.402-0.961-0.82-1.188
				c-0.433-0.234-0.966-0.356-1.55-0.358H74.382c-0.199-0.356-0.477-0.853-0.739-1.337c-0.178-0.328-0.354-0.663-0.487-0.931
				c0.531,0.009,1.343,0.11,2.016,0.213c0.713,0.108,1.278,0.217,1.28,0.217c3.229,0.691,5.497,0.907,7.25,0.907
				c2.722-0.005,4.156-0.51,5.929-0.502c0.191,0,0.386,0.006,0.59,0.017c0.233,0.014,0.443,0.02,0.633,0.02
				c0.53-0.002,0.91-0.043,1.237-0.17c0.162-0.066,0.321-0.161,0.447-0.314c0.127-0.152,0.195-0.363,0.192-0.543
				c-0.018-0.429-0.222-0.672-0.411-0.922c-0.197-0.242-0.429-0.469-0.635-0.675c-0.486-0.481-1.113-0.595-1.626-0.595
				c-0.781,0.004-1.417,0.25-1.45,0.26l-0.099,0.049c-0.336,0.209-0.561,0.258-0.693,0.256c-0.196-0.004-0.289-0.086-0.406-0.241
				c-0.052-0.075-0.092-0.159-0.117-0.222c-0.005-0.012-0.009-0.023-0.012-0.033c-0.011-0.443-0.077-0.791-0.25-1.092
				c-0.176-0.325-0.565-0.538-0.894-0.523c-0.385,0.008-0.673,0.17-0.923,0.348c-0.249,0.186-0.455,0.402-0.609,0.633
				c-0.056,0.092-0.329,0.364-0.629,0.556c-0.299,0.203-0.65,0.333-0.809,0.325c-0.095-0.005-0.098-0.016-0.123-0.037
				c-0.026-0.024-0.096-0.125-0.126-0.39c-0.067-0.595-0.205-1.168-0.429-1.642c-0.114-0.237-0.248-0.453-0.438-0.634
				c-0.185-0.179-0.457-0.329-0.771-0.328c-0.459,0.007-0.812,0.282-1.095,0.646c-0.291,0.374-0.554,0.893-0.827,1.616
				c-0.183,0.492-0.364,0.797-0.492,0.939c-0.063,0.073-0.11,0.105-0.131,0.117c-0.009,0.004-0.014,0.006-0.016,0.006
				c-0.003,0-0.01-0.002-0.024-0.01c-0.103-0.035-0.366-0.35-0.523-0.664c-0.082-0.155-0.15-0.307-0.196-0.416
				c-0.013-0.031-0.023-0.057-0.032-0.08c0.007-0.309,0.011-0.604,0.011-0.889c0.001-3.234-0.496-5.14-1.178-6.488
				c-0.687-1.348-1.497-2.084-2.028-2.984c-0.104-0.168-0.181-0.313-0.238-0.435c2.26,0.886,4.06,1.229,5.545,1.229
				C82.458,39.008,84.003,38.072,85.165,37.293z M126.81,80.045h-1.813c-1.444-4.437-4.977-7.928-9.44-9.314l-0.817-2.238
				C120.583,69.821,125.234,74.3,126.81,80.045z M12.113,94.941C8.688,91.514,6.57,86.787,6.57,81.559c0-0.939,0.068-1.863,0.2-2.765
				c0.372-0.413,0.812-0.558,1.387-0.565c0.877-0.006,1.98,0.436,2.832,0.904c0.427,0.23,0.794,0.464,1.053,0.639
				c0.091,0.062,0.168,0.115,0.229,0.157l0.19,1.142c0.043,0.369,0.609,4.697,4.486,9.229c2.562,2.988,6.589,5.533,11.354,5.539
				c1.998,0,4.118-0.453,6.283-1.502c1.541-0.748,3.576-2.207,5.298-4c1.589-1.668,2.927-3.617,3.223-5.633l1.078-0.121
				c-1.446,9.014-9.262,15.905-18.686,15.903C20.267,100.485,15.54,98.368,12.113,94.941z M32.87,84.438
				c-0.045,0.008-0.469,0.078-1.153,0.15c-0.725,0.076-1.731,0.152-2.848,0.152c-2.234,0.008-4.905-0.324-6.594-1.463
				c-1.883-1.255-4.747-3.025-7.521-4.491c-1.387-0.733-2.751-1.39-3.967-1.868c-1.221-0.477-2.276-0.785-3.141-0.791
				c-2.083,0.006-3.659,0.604-4.548,1.52c-0.153-0.871-0.307-2.111-0.307-3.584c0.001-3.16,0.703-7.371,3.599-11.346
				c2.895-3.972,8-7.746,16.944-9.986c0.016-0.002,0.056-0.01,0.127-0.021c0.287-0.048,1.016-0.148,2.046-0.148
				c1.418,0,3.406,0.189,5.614,0.959c-0.478,0.856-1.336,2.532-1.725,4.17c-0.855,0.087-2.903,0.355-5.214,1.105
				c-3.021,0.983-6.537,2.793-8.312,6.216l-0.036,0.083c0,0-0.112,0.348-0.322,0.902c-0.317,0.83-0.852,2.113-1.527,3.297
				c-0.669,1.187-1.506,2.26-2.282,2.679c-0.227,0.126-0.335,0.392-0.262,0.64c0.072,0.25,0.306,0.414,0.565,0.398
				c0.03-0.002,0.06-0.002,0.094-0.002c0.982-0.027,3.785,0.928,9.236,7.354c0.143,0.168,0.372,0.235,0.584,0.171
				c0.211-0.064,0.363-0.248,0.389-0.467c0,0,0.009-0.068,0.031-0.211c0.079-0.494,0.337-1.785,0.953-3.074
				c0.618-1.295,1.578-2.553,3.024-3.111c0.076-0.03,0.139-0.071,0.196-0.129c0.036-0.04,0.923-0.948,1.381-2.517
				c0.416-1.433,0.832-3.264,1.295-4.845c0.231-0.789,0.474-1.518,0.724-2.083c0.245-0.567,0.52-0.968,0.694-1.094
				c1.005-0.77,1.341-1.712,1.332-2.444c-0.003-0.555-0.162-0.981-0.271-1.213c0.014-0.109,0.037-0.273,0.071-0.479
				c0.18-1.201,0.813-3.785,2.011-4.81c0.055-0.049,0.099-0.107,0.13-0.174l6.85-14.217l0.008-0.018c0,0,0.063-0.142,0.187-0.373
				c0.186-0.348,0.507-0.872,0.891-1.281c0.387-0.417,0.81-0.67,1.154-0.661c0.334-0.003,0.833,0.206,1.462,1.185l-0.374,3.266
				c-0.535,0.629-1.049,1.589-1.582,2.729c-1.704,3.676-3.394,9.163-3.398,9.176c-0.037,0.117-0.033,0.244,0.011,0.359
				c0,0,0,0,0.004,0.012c0.031,0.09,0.201,0.627,0.2,1.436c-0.01,1.501-0.546,3.939-3.76,6.424c-0.095,0.072-0.163,0.174-0.195,0.287
				c-0.002,0.011-0.421,1.47-0.637,2.76c-0.073,0.488-0.532,1.595-1.021,2.667c-0.491,1.088-1.008,2.167-1.24,2.855
				c-0.32,0.97-0.959,3.534-0.964,5.769c0.002,0.832,0.087,1.621,0.353,2.293c0.331,0.823,0.45,1.596,0.682,2.266
				c0.119,0.334,0.273,0.662,0.562,0.926c0.288,0.269,0.7,0.407,1.135,0.402c0.298-0.002,0.617-0.053,0.979-0.152
				c1.908-0.531,5.085-1.941,7.135-1.928c0.488,0,0.893,0.078,1.189,0.229c0.078,0.039,0.161,0.059,0.249,0.059h0.5
				c0.12,0.465,0.339,1.231,0.645,1.937L32.87,84.438L32.87,84.438z M17.864,41.156c-0.04-0.027-0.067-0.049-0.083-0.061
				c-0.001-0.002-0.002-0.002-0.003-0.003c-1.304-1.323-1.746-2.667-1.755-4.419c-0.005-2.093,0.708-4.728,1.503-8.123
				c0.386-1.641,1.031-2.563,1.722-3.098c0.692-0.532,1.473-0.7,2.21-0.702c0.587,0,1.134,0.112,1.529,0.226
				c0.198,0.056,0.356,0.112,0.464,0.153c0.066,0.024,0.108,0.043,0.132,0.054c0.25,0.149,2.047,1.227,4.205,2.642
				c2.322,1.521,5.063,3.438,6.67,4.948c1.379,1.301,1.704,2.466,1.711,3.387c0,0.576-0.14,1.062-0.278,1.402
				c-0.07,0.17-0.14,0.303-0.189,0.389c-0.024,0.045-0.045,0.076-0.058,0.095c-0.012,0.02-0.013,0.02-0.013,0.021l-0.027,0.043
				c-1.156,1.953-2.443,1.995-2.735,2.012c-0.024,0-0.04-0.001-0.049-0.002l0,0c-2.09-0.227-3.743-0.316-5.054-0.316
				c-2.362,0.002-3.618,0.284-4.352,0.625c-0.427,0.189-0.678,0.436-0.816,0.646c-1.099,0.463-1.996,0.61-2.705,0.611
				c-0.747-0.001-1.289-0.166-1.642-0.322C18.072,41.285,17.944,41.209,17.864,41.156z M36.337,31.164
				c0.039-0.441,0.207-1.593,0.75-2.568c0.561-0.979,1.374-1.76,2.938-1.773c0.258,0,0.538,0.023,0.842,0.074
				c4.796,0.818,6.038,3.305,6.426,4.227c0.221,0.535,0.721,1.735,0.714,2.68c-0.001,0.447-0.102,0.795-0.319,1.037
				c-0.216,0.24-0.598,0.455-1.365,0.504c-1.181,0.069-2.143,0.138-2.981,0.137c-1.682-0.008-2.848-0.242-4.584-1.301
				c-1.278-0.788-1.875-1.545-2.163-2.074c-0.144-0.268-0.211-0.479-0.243-0.614c-0.016-0.068-0.023-0.117-0.026-0.146
				c0-0.007-0.001-0.012-0.001-0.016C36.327,31.302,36.33,31.248,36.337,31.164z M24.669,46.641c0.065-0.604,0.129-1.003,0.129-1.004
				v-0.174c0,0-0.006-0.04-0.015-0.133c-0.009-0.095-0.017-0.232-0.017-0.398c-0.003-0.498,0.088-1.234,0.439-1.783
				c0.358-0.539,0.902-0.975,2.159-0.988c0.47,0,0.889-0.004,1.262-0.004c1.312-0.01,2.022,0.073,2.333,0.303
				c0.165,0.113,0.297,0.268,0.441,0.578c0.14,0.309,0.272,0.764,0.403,1.383c0.304,1.402,0.59,2.615,0.586,3.523
				c-0.029,0.993-0.237,1.517-1.122,1.988c-0.907,0.461-2.694,0.829-4.189,0.823c-0.748,0.002-1.43-0.091-1.875-0.263
				c-0.463-0.185-0.589-0.361-0.608-0.54c-0.039-0.348-0.055-0.731-0.055-1.121C24.539,48.049,24.603,47.246,24.669,46.641z
				 M93.705,72.135c-0.221-0.046-0.482-0.062-0.855-0.086c-1.198-0.066-3.284-0.079-4.774-0.079c-0.458,0-0.86,0.001-1.158,0.003
				v-4.603c0.104,0,0.221-0.001,0.341-0.001c0.369,0,0.793,0.005,1.138,0.021c0.167,0.008,0.317,0.018,0.425,0.031
				c0.038,0.147,0.089,0.422,0.107,0.684c0.034,0.385,0.045,0.791,0.045,1.002c0,0.128-0.008,0.208-0.01,0.324
				c0.001,0.07,0.001,0.168,0.047,0.299c0.07,0.211,0.263,0.361,0.37,0.412c0.118,0.062,0.216,0.098,0.355,0.154
				c0.17,0.063,0.301,0.08,0.495,0.109c1.035,0.143,3.466,0.245,4.375,0.279c0.038,0.172,0.084,0.451,0.13,0.87
				c0.004,0.036,0.006,0.069,0.006,0.104c-0.02,0.256-0.059,0.263-0.227,0.368c-0.17,0.085-0.464,0.119-0.649,0.116
				C93.786,72.142,93.732,72.139,93.705,72.135z M87.177,74.328c0.295-0.018,0.581-0.028,0.857-0.028
				c2.538,0.003,4.236,0.769,5.322,1.854c1.084,1.086,1.579,2.534,1.579,3.978c0,0.088-0.002,0.174-0.005,0.261l-9.947,0.192
				c-0.007-0.014-0.015-0.029-0.022-0.045c-0.322-0.646-0.959-2.158-0.952-3.469c0.003-0.715,0.174-1.332,0.61-1.8
				C85.055,74.803,85.818,74.418,87.177,74.328 M60.469,77.221h12.973c0.41,0.002,0.742,0.333,0.743,0.742
				c-0.001,0.41-0.333,0.742-0.743,0.742H60.469c-0.409,0-0.741-0.332-0.742-0.742C59.728,77.554,60.06,77.223,60.469,77.221z
				 M73.494,74.119H60.521c-0.41-0.001-0.742-0.334-0.743-0.744c0-0.41,0.333-0.742,0.743-0.742h12.972c0.41,0,0.742,0.333,0.743,0.742
				C74.236,73.785,73.903,74.118,73.494,74.119z M44.489,68.531c-0.125-0.254-0.268-0.581-0.419-0.975
				c-0.592-1.515-1.942-2.887-3.138-3.932c-0.724-0.627-1.396-1.125-1.816-1.424l1.374-2.197c0.059,0.078,0.122,0.162,0.191,0.253
				c0.609,0.816,1.531,2.112,2.31,3.457c0.783,1.337,1.407,2.755,1.463,3.667c0.026,0.365,0.038,0.683,0.038,0.951
				C44.491,68.401,44.491,68.469,44.489,68.531z M47.99,49.756L48,49.793l1.383,5.07c0.005,0.175,0.025,0.618,0.125,1.148
				c0.132,0.674,0.368,1.504,0.971,2.119c0.155,0.159,0.225,0.352,0.228,0.631c0.003,0.322-0.121,0.729-0.311,1.07
				c-0.184,0.344-0.446,0.621-0.589,0.701c-0.168,0.102-0.265,0.121-0.306,0.12c-0.044-0.003-0.118-0.006-0.324-0.212
				c-0.196-0.199-0.461-0.572-0.789-1.119c-0.883-1.461-1.971-4.412-2.262-6.484c-0.152-1.06-0.269-2.494-0.345-3.654
				c-0.077-1.161-0.116-2.048-0.116-2.051l-0.002-0.023c0-0.002-0.015-0.174-0.015-0.429c-0.002-0.303,0.027-0.712,0.107-0.979
				c0.035-0.125,0.082-0.211,0.106-0.24c0.062,0.015,0.272,0.095,0.585,0.391l0.088,0.062l-0.002,0.004
				C46.566,45.935,47.371,46.598,47.99,49.756z M106.207,68.838l0.896,1.86c-4.668,1.408-8.334,5.114-9.689,9.806l-0.459-0.008
				l-0.525-3.329C98.278,72.865,101.646,70.244,106.207,68.838z M74.669,44.821c-0.002,0.742-0.156,1.366-0.508,1.89
				c-0.354,0.523-0.921,0.979-1.848,1.328c-0.998,0.374-1.873,0.508-2.648,0.508c-1.977,0-3.274-0.863-4.339-1.148
				c-0.511-0.123-1.428-0.182-2.601-0.185c-1.234,0-2.707,0.077-4.066,0.278c-1.332,0.201-2.541,0.494-3.377,1.039
				c-0.087,0.031-0.351,0.111-0.747,0.111c-0.709-0.005-1.857-0.24-3.286-1.577c-1.188-1.108-1.921-3.004-2.392-4.835
				c-0.417-1.586-0.631-3.067-0.912-4.037l9.154-6.302l0.027-0.021c0,0,0.006-0.006,0.04-0.028c0.237-0.167,1.44-0.935,3.272-0.933
				c1.282,0,2.887,0.365,4.756,1.608c2.575,1.716,4.355,2.843,5.626,3.946c1.271,1.107,2.048,2.166,2.727,3.89
				C74.188,41.98,74.673,43.555,74.669,44.821z M46.311,80.055c-0.146-0.479-0.231-0.873-0.279-1.145
				c-0.024-0.136-0.039-0.24-0.047-0.311c-0.008-0.068-0.01-0.093-0.01-0.093l-0.011-0.071c-0.31-1.477-0.45-2.852-0.45-4.126
				c0.005-6.438,3.545-10.491,7.153-13.009c1.802-1.252,3.613-2.104,4.969-2.637c0.678-0.268,1.243-0.455,1.635-0.578
				c0.393-0.12,0.604-0.17,0.604-0.172c0.249-0.061,0.423-0.281,0.423-0.538c-0.013-2.933,0.331-4.344,0.993-4.92
				c0.331-0.307,0.798-0.503,1.522-0.617c0.702-0.112,1.622-0.138,2.77-0.138h0.083c0.593,0,1.247,0.006,1.964,0.006
				c1.449,0.006,2.492,0.585,3.343,1.506c1.27,1.379,1.989,3.574,2.35,5.422c0.184,0.925,0.282,1.76,0.335,2.361
				c0.053,0.6,0.058,0.957,0.059,0.957c0.007,0.154,0.009,0.294,0.01,0.43c-0.012,2.208-0.753,3.432-1.841,4.207
				c-1.095,0.771-2.64,1.059-4.217,1.057c-1.519,0-3.05-0.26-4.194-0.521c-0.573-0.13-1.049-0.26-1.38-0.357
				c-0.331-0.099-0.51-0.159-0.511-0.159c-0.086-0.029-0.182-0.037-0.271-0.023c-2.727,0.474-5.416,2.804-5.456,2.821l-0.09,0.098
				c-1.927,2.643-2.687,4.847-2.688,6.689c-0.002,2.647,1.585,4.395,3.089,5.412c1.512,1.031,2.984,1.412,3.021,1.422l0.148,0.019
				c0.006,0,2.207-0.034,5.841-0.089c10.878-0.168,34.551-0.527,50.142-0.754c0.294,0.108,0.579,0.165,0.854,0.165
				c0.287,0,0.562-0.065,0.799-0.188c7.145-0.104,12.288-0.172,13.133-0.172c0.755-0.004,1.24,0.104,1.447,0.225
				c0.197,0.133,0.21,0.152,0.232,0.418c0.005,0.285-0.145,0.806-0.455,1.471c-0.307,0.67-0.757,1.492-1.295,2.459
				c-2.016,3.602-4.303,4.523-5.936,5.146c-1.428,0.537-3.184,1.076-3.606,1.205c-2.325-0.139-45.136-2.715-59.473-3.522
				c-7.239-0.418-10.934-3.178-12.897-5.797C47.144,82.302,46.605,81.012,46.311,80.055z M133.768,81.002
				c-0.01,0.047-0.023,0.088-0.037,0.125c-0.106-0.083-0.279-0.246-0.482-0.51c-0.313-0.402-0.716-1.027-1.205-1.92
				c-1.743-3.172-3.516-7.509-6.184-11.262c-2.65-3.738-6.254-6.929-11.599-7.693c-0.292-0.114-1.38-0.526-2.448-0.534
				c-0.46,0.003-0.946,0.075-1.366,0.376c-0.427,0.3-0.685,0.85-0.674,1.475c0,0.43,0.098,0.913,0.298,1.482
				c1.471,4.201,6.031,14.565,6.035,14.57c0.006,0.016,0.053,0.113,0.129,0.295c0.23,0.535,0.681,1.784,0.673,2.666
				c0.001,0.1-0.005,0.193-0.015,0.281c-0.04,0.342-0.151,0.584-0.278,0.725c-0.358,0.006-0.721,0.011-1.089,0.016
				c-0.576-0.26-1.394-0.884-2.39-2.023c-0.214-0.438-1.489-3.051-2.765-5.861c-0.697-1.538-1.395-3.135-1.914-4.453
				c-0.26-0.658-0.476-1.248-0.622-1.719c-0.148-0.463-0.221-0.834-0.216-0.941c-0.006-0.951-0.033-1.816-0.466-2.566
				c-0.442-0.764-1.305-1.209-2.529-1.309c-0.463-0.043-0.851-0.068-1.195-0.068c-0.679-0.007-1.249,0.119-1.722,0.471
				c-0.468,0.346-0.812,0.814-1.312,1.479c-0.622,0.83-1.175,1.777-1.662,2.493c-0.241,0.356-0.468,0.654-0.649,0.835
				c-0.09,0.092-0.168,0.151-0.216,0.18c-0.017,0.008-0.029,0.014-0.037,0.018c-0.31-0.076-0.719-0.182-1.005-0.347
				c-0.299-0.186-0.407-0.311-0.417-0.59c0-0.187,0.074-0.494,0.338-0.931c0.619-1.035,2.002-3.336,3.902-5.387
				c1.899-2.059,4.295-3.811,6.852-3.897l0.132-0.02c0,0,0.024-0.007,0.088-0.023c0.19-0.045,0.664-0.141,1.192-0.14
				c0.396-0.001,0.819,0.054,1.173,0.198c0.356,0.148,0.643,0.364,0.852,0.738l0.059,0.084c0.081,0.111,0.587,0.583,1.677,0.575
				c0.661-0.001,1.532-0.159,2.691-0.622c0.126-0.05,0.227-0.143,0.288-0.262c0,0,0,0,0.011-0.02c0.043-0.073,0.19-0.298,0.417-0.483
				c0.231-0.188,0.517-0.337,0.909-0.338c0.286,0,0.647,0.08,1.111,0.344c2.791,1.592,11.825,8.479,15.71,22.25
				c0.014,0.14,0.054,0.605,0.054,1.123C133.869,80.287,133.839,80.726,133.768,81.002z"/>
		</g>
		<g id="logo-text">
			<path fill="#FFFFFF" d="M347.449,70.125l-3.103-2.369L333.75,80.955l3.002,2.516c2.586,2.167,4.069,5.387,4.069,8.835
				c0,4.961-3.035,10.301-9.7,10.301c-3.772,0-10.102-1.468-10.102-11.301c0-3.942,1.764-8.539,3.47-12.984
				c1.662-4.331,3.231-8.421,3.231-12.118c0-6.317-3.85-10.837-7.112-14.227c1.256-4.653,1.942-9.246,2.305-15.234l0.192-3.183
				l-14.348-4.208l-1.161,3.772c-1.667,5.417-2.478,9.858-2.478,13.577c0,0.121,0.014,0.237,0.016,0.357
				c-2.024-2.56-5.125-4.056-8.917-4.056c-6.64,0-12.691,4.278-17.041,12.046c-0.271,0.484-0.518,1-0.772,1.506
				c0.14-0.951,0.213-1.874,0.213-2.753c0-6.708-4.024-11.009-10.309-10.792c4.648-7.229,9.208-16.226,9.208-22.91
				c0-6.449-4.075-10.3-10.9-10.3c-3.996,0-9.262,2.255-12.061,8.586c-1.668,3.783-3.354,9.792-4.994,16.927
				c0.024-0.304,0.052-0.609,0.052-0.912c0-5.417-3.578-9.201-8.7-9.201c-6.794,0-11,6.177-11,11.9c0,2.847,1.066,5.272,2.841,6.901
				h-3.206l-0.728,3.081c-0.245,1.039-0.548,2.261-0.885,3.624c-0.461,1.863-0.994,4.025-1.54,6.358
				c-1.422-8.353-5.327-12.832-11.689-13.318c6.666-9.256,10.508-17.939,10.508-24.046s-3.794-9.9-9.9-9.9
				c-12.761,0-15.795,16.658-20.821,44.256l-0.112,0.618c-0.044,0.236-0.08,0.457-0.123,0.69c-1.648-7.259-5.438-11.166-11.353-11.617
				c6.665-9.254,10.507-17.938,10.507-24.046c0-5.651-3.252-9.314-8.575-9.831l0.22-0.257l-2.398-2.617
				C178.343,2.289,172.57,0,165.01,0c-13.591,0-24.986,10.395-34.835,31.778c-5.21,11.312-10.023,25.805-14.554,43.885
				c0.122-14.094,1.079-35.133,4.646-60.2l0.52-3.649L106.739,8.63l-1.446,2.659c-6.742,12.394-13.328,36.214-18.517,58.576
				c-0.144-9.815-0.903-21.434-4.059-31.473C77.088,20.664,63.374,10.9,44.103,10.9C18.136,10.9,0,28.79,0,54.403
				c0,20.255,13.448,34.401,32.702,34.401c17.392,0,29.778-10.64,33.133-28.461l0.707-3.753l-17.21-4.071l-0.678,4.254
				c-2.501,15.689-11.255,18.031-16.251,18.031c-7.417,0-14.901-6.092-14.901-19.701c0-18.019,10.692-30.603,26.001-30.603
				c17.568,0,25.402,14.682,25.402,47.604c0,2.297-0.025,4.57-0.05,6.831c-0.025,2.265-0.05,4.518-0.05,6.77
				c0,9.401,0.267,20.378,3.45,31.686l0.645,2.288l14.144,3.224l1.489-6.743c3.282-14.866,6.616-29.966,9.942-43.671
				c-0.345,6.362-0.567,12.885-0.567,19.118c0,11.256,0.739,20.265,2.197,26.775l0.611,2.731l16.408,2.133l0.791-3.575
				c11.06-50.012,24.593-103.369,45.297-103.369c2.399,0,5.575,0.472,7.073,2.719l0.608,0.912c-2.94,6.651-4.936,16.38-7.19,28.602
				c-1.915-3.452-5.421-5.531-9.891-5.531c-6.64,0-12.692,4.278-17.041,12.046c-3.544,6.331-5.66,14.613-5.66,22.155
				c0,13.201,6.246,21.401,16.301,21.401c6.453,0,11.105-3.267,14.817-8.305c2.729,6.188,7.528,7.805,11.784,7.805
				c5.464,0,10.832-4.037,15.225-11.409c1.114-0.435,2.197-0.974,3.238-1.605c1.98,10.542,8.075,13.014,13.34,13.014
				c5.463,0,10.83-4.037,15.225-11.408c0.599-0.234,1.186-0.506,1.765-0.798c1.144,10.518,7.233,12.206,11.011,12.206
				c2.152,0,4.038-0.512,5.717-1.415l0.101,0.915h15.214l0.438-3.504c0.068-0.542,0.138-1.085,0.209-1.63
				c1.822,3.209,4.69,5.634,9.423,5.634c4.756,0,8.434-3.096,11.485-7.63c2.768,5.18,7.403,8.13,13.415,8.13
				c6.718,0,11.486-3.539,15.272-8.935c-0.032,0.51-0.07,1.019-0.07,1.535c0,15.85,13.396,24.401,26.001,24.401
				c7.809,0,14.513-2.756,19.386-7.969c4.332-4.634,6.816-11.023,6.816-17.532C357.222,82.15,353.66,74.868,347.449,70.125z
				 M303.109,68.203l-0.039,0.105c-3.267,8.769-7.223,13.798-10.853,13.798c-1.59,0-2.082-3.087-2.233-5.121
				c6.043-1.76,9.977-5.179,12.315-7.951c0.326-0.385,0.638-0.779,0.937-1.181C303.193,67.969,303.152,68.088,303.109,68.203z
				 M274.372,68.555c-2.404,6.222-4.58,9.871-6.069,11.816c-0.345-1.398-0.737-2.988-1.342-4.592c3.253-2.522,5.906-5.775,7.855-9.208
				C274.66,67.231,274.5,67.89,274.372,68.555z M248.794,38.753c-2.013,9.257-3.936,19.985-5.642,30.109
				c-1.62,4.193-2.94,7.163-3.984,9.245c0.731-6.204,2.525-14.11,4.661-23.525c0.418-1.839,0.849-3.74,1.29-5.704l1.094-4.876h-1.18
				C246.758,42.65,248.03,40.785,248.794,38.753z M211.115,63.104c0,3.354-0.452,7.065-1.239,10.458
				c-1.27-1.824-1.861-4.46-1.861-6.958c0-3.998,1.393-7.17,2.607-8.113C210.846,59.227,211.115,60.625,211.115,63.104z
				 M179.312,63.104c0,3.355-0.452,7.067-1.239,10.458c-1.27-1.824-1.862-4.46-1.862-6.958c0-3.997,1.392-7.168,2.607-8.113
				C179.043,59.227,179.312,60.626,179.312,63.104z M160.494,68.742c-3.234,8.495-7.115,13.363-10.684,13.363
				c-1.59,0-2.082-3.087-2.233-5.121c6.043-1.76,9.977-5.179,12.315-7.951c0.228-0.27,0.441-0.55,0.657-0.829
				C160.53,68.386,160.512,68.564,160.494,68.742z"/>
			<path fill="#010101" d="M116.307,14.9c-3.7,26.002-4.7,48.003-4.7,64.004c0,17.802,1.2,28.102,1.2,28.102
				C124.308,48.203,139.909,4,165.01,4c6.9,0,11.4,2.101,14.7,5.7l-6.1,7.101c-2-3-5.7-4.5-10.401-4.5
				c-22.301,0-35.602,45.003-49.203,106.506l-10-1.3c-1.5-6.7-2.1-16.001-2.1-25.901c0-27.401,4.3-60.104,4.3-60.104
				c-7.301,18.701-15.001,54.003-22.202,86.605l-7.9-1.801c-2.9-10.301-3.3-20.401-3.3-30.602c0-4.5,0.1-9.001,0.1-13.601
				c0-23.802-3.6-51.604-29.402-51.604c-18.201,0-30.001,14.901-30.001,34.603c0,16.2,9.5,23.701,18.901,23.701
				c10.401,0,18.001-7.601,20.201-21.401l9.301,2.2c-3.2,17.001-14.601,25.201-29.202,25.201C16.001,84.805,4,72.904,4,54.403
				C4,31.002,20.001,14.9,44.103,14.9c18.601,0,30.102,9.9,34.802,24.702c3.3,10.5,3.9,23.001,3.9,34.502c0,6-0.1,11.801-0.1,16.9
				c0,5.4,0.1,9.901,0.9,13.102c5.5-28.302,15.301-72.705,25.202-90.906L116.307,14.9z M164.411,69.704c0.6,0,2.8,0.8,2.8,1.4
				c-5,13.101-10,23.501-19.801,23.501c-8.7,0-12.301-8-12.301-17.401c0-13.601,7.5-30.201,18.701-30.201c5,0,7.5,3.6,7.5,8.2
				c0,7.101-6,16.701-17.801,18.602c0,0.5,0,1,0,1.5c0,6,1.7,10.801,6.3,10.801C155.711,86.105,160.611,79.904,164.411,69.704z
				 M143.81,70.004c7.5-3.7,10.801-10.601,10.801-14.301c0-1.5-0.6-2.5-1.6-2.5C148.91,53.203,145.01,61.703,143.81,70.004z
				 M174.612,49.203l-0.4,1.899c2.101-2.1,4.7-3.399,7.501-3.399c7.2,0,9.5,7.1,9.5,17.4c0,4.5-1.1,9.4-2.7,13.801
				c3.001-1.3,5.701-4,7.701-9.2c0.6,0,2.8,0.8,2.8,1.4c-2.4,6.4-7.4,10.8-12.501,12.301c-3.3,6-7.8,10.7-12.501,10.7
				c-7.4,0-10-6.7-10-16.901c0-6.2,1-13.7,2.5-21.801c4.7-25.802,7.5-41.603,17.001-41.603c4.101,0,5.9,2.3,5.9,5.9
				c0,6.5-5.7,17.301-14.501,27.802L174.612,49.203z M178.712,83.405c-3.7-0.9-6.001-3.301-7.4-6.4c0,5.8,0.5,9.7,2.899,9.7
				C175.912,86.705,177.412,85.505,178.712,83.405z M179.512,54.203c-4.5,0-7.301,6.101-7.301,12.4c0,5.801,2.5,11.901,8.2,13.102
				c1.801-4.801,2.9-11.102,2.9-16.602S182.112,54.203,179.512,54.203z M184.913,21.701c0-0.9-0.4-1.4-0.9-1.4c-0.7,0-3,1-7.5,19.901
				c3.2-4.7,7-11.2,8.3-17.701C184.812,22.201,184.913,21.901,184.913,21.701z M206.414,49.203l-0.399,1.899
				c2.1-2.1,4.7-3.399,7.5-3.399c7.201,0,9.501,7.1,9.501,17.4c0,4.5-1.101,9.4-2.7,13.801c3-1.3,5.7-4,7.7-9.2
				c0.601,0,2.801,0.8,2.801,1.4c-2.4,6.4-7.4,10.8-12.501,12.301c-3.301,6-7.801,10.7-12.501,10.7c-7.4,0-10.001-6.7-10.001-16.901
				c0-6.2,1-13.7,2.501-21.801c4.7-25.802,7.5-41.603,17.001-41.603c4.1,0,5.9,2.3,5.9,5.9c0,6.5-5.701,17.301-14.501,27.802
				L206.414,49.203z M210.514,83.405c-3.7-0.9-6-3.301-7.4-6.4c0,5.8,0.5,9.7,2.9,9.7C207.714,86.705,209.214,85.505,210.514,83.405z
				 M211.314,54.203c-4.5,0-7.3,6.101-7.3,12.4c0,5.801,2.5,11.901,8.2,13.102c1.8-4.801,2.9-11.102,2.9-16.602
				S213.915,54.203,211.314,54.203z M216.714,21.701c0-0.9-0.399-1.4-0.899-1.4c-0.7,0-3.001,1-7.501,19.901
				c3.2-4.7,7.001-11.2,8.301-17.701C216.615,22.201,216.714,21.901,216.714,21.701z M241.215,48.003
				c-3.501,15.601-6.4,27.201-6.4,35.402c0,2.899,1.1,3.399,2,3.399c2.6,0,5.9-5.6,10.301-17.101c0.5,0,2.8,0.7,2.8,1.3v0.101
				c-4.4,11.4-7.9,23.001-16.101,23.001c-5.4,0-7.201-5-7.201-11.9c0-11.101,4.4-27.002,6.101-34.202H241.215z M233.915,37.102
				c0-3.6,2.601-7.9,7-7.9c3.301,0,4.7,2.4,4.7,5.201c0,3.6-2.6,7.8-7,7.8C235.415,42.202,233.915,39.802,233.915,37.102z
				 M243.215,93.605c-0.1-0.9-0.1-1.8-0.1-2.7c0-7.9,3.1-16.101,3.1-16.101c3.501-21.201,7.9-45.503,12.001-54.804
				c1.9-4.3,5.4-6.2,8.4-6.2c5.001,0,6.9,2.5,6.9,6.3c0,8.101-8.601,21.802-14.801,29.402l-1.6,8.301
				c3.2-6.701,7.2-10.801,11.601-10.801c4.1,0,5.9,2.8,5.9,6.8c0,6.601-5.101,16.302-12.801,20.602c3.1,4.601,2.5,11.701,5.3,11.701
				c2.4,0,6.7-4.9,11.101-16.401c0.601,0,2.801,0.8,2.801,1.4c-4.4,11.4-9.101,23.001-16.102,23.001c-8.101,0-8-11.501-9.601-17.601
				h-1.5c-0.899,5.7-1.8,11.5-2.5,17.101H243.215z M265.317,54.203c-2.4,0-5.7,3.4-10.001,13.4l-0.5,3.101c1.2,0,2.301,0.3,3.2,0.6
				c4.4-3.6,9.001-11.3,9.001-15.101c0-1-0.3-1.8-1.2-2C265.617,54.203,265.517,54.203,265.317,54.203z M268.017,21.701
				c0-0.9-0.4-1.4-0.9-1.4c-1.6,0-2.9,4.2-6.5,20.802c2.9-5.4,6.101-12.701,7.301-18.602
				C267.917,22.201,268.017,21.901,268.017,21.701z M306.818,69.704c0.601,0,2.801,0.8,2.801,1.4
				c-5.001,13.101-10.001,23.501-19.802,23.501c-8.7,0-12.301-8-12.301-17.401c0-13.601,7.501-30.201,18.701-30.201
				c5,0,7.501,3.6,7.501,8.2c0,7.101-6.001,16.701-17.802,18.602c0,0.5,0,1,0,1.5c0,6,1.7,10.801,6.301,10.801
				C298.118,86.105,303.018,79.904,306.818,69.704z M286.216,70.004c7.501-3.7,10.801-10.601,10.801-14.301c0-1.5-0.6-2.5-1.6-2.5
				C291.317,53.203,287.417,61.703,286.216,70.004z M315.62,67.904c0-3.001-0.9-5.301-2-7.4l-4.001,10.601c0,0-2.8-0.5-2.8-1.301v-0.1
				c1.8-4.801,3.101-9.801,4.101-14.601c-1-2.2-1.801-4.9-1.801-8.401c0-3.2,0.7-7.2,2.301-12.4l7.5,2.2
				c-0.399,6.601-1.2,11.4-2.8,16.601c3.3,3.4,7.601,7.401,7.601,13.102c0,6.4-6.701,16.4-6.701,25.102
				c0,11.101,6.9,15.301,14.102,15.301c8.8,0,13.7-7.001,13.7-14.301c0-4.4-1.8-8.801-5.5-11.901l5.7-7.1
				c5.501,4.2,8.201,10.5,8.201,16.801c0,10.801-7.901,21.501-22.202,21.501c-11.101,0-22.001-7.4-22.001-20.401
				C309.019,81.904,315.62,73.004,315.62,67.904z"/>
		</g>
	</defs>
</svg>